{"glyphs":{"0":{"ha":833,"x_min":53,"x_max":781,"o":"m 417 -14 q 219 36 300 -14 q 95 172 138 86 q 53 368 53 258 q 95 564 53 478 q 219 700 138 650 q 417 750 300 750 q 615 700 533 750 q 738 564 696 650 q 781 368 781 478 q 738 172 781 258 q 615 36 696 86 q 417 -14 533 -14 m 417 119 q 629 187 549 119 q 710 368 710 254 q 629 549 710 482 q 417 617 549 617 q 204 549 285 617 q 124 368 124 482 q 204 187 124 254 q 417 119 285 119 z "},"1":{"ha":833,"x_min":122,"x_max":713,"o":"m 122 0 l 122 22 l 289 78 l 289 658 l 122 714 l 122 736 l 713 736 l 713 714 l 546 658 l 546 78 l 713 22 l 713 0 l 122 0 z "},"2":{"ha":833,"x_min":56,"x_max":751,"o":"m 75 0 l 75 60 q 246 213 176 153 q 357 317 315 274 q 417 399 399 360 q 436 488 436 438 q 401 581 436 539 q 292 624 367 624 q 181 586 225 624 q 108 489 138 549 l 56 508 q 203 689 107 628 q 413 750 300 750 q 634 683 558 750 q 710 517 710 617 q 663 386 710 439 q 526 285 615 333 q 314 176 438 238 l 658 176 l 728 311 l 751 311 l 735 0 l 75 0 z "},"3":{"ha":833,"x_min":42,"x_max":764,"o":"m 368 -193 q 179 -165 258 -193 q 53 -74 100 -137 q 42 -46 42 -58 q 67 -8 42 -28 l 154 58 l 176 58 l 193 21 q 260 -90 225 -53 q 361 -126 296 -126 q 465 -76 431 -126 q 500 49 500 -25 q 422 208 500 157 q 211 258 343 258 l 192 318 l 194 318 q 320 339 263 318 q 413 397 378 360 q 447 483 447 433 q 413 585 447 547 q 308 624 378 624 q 199 586 242 624 q 125 489 156 549 l 72 508 q 218 689 124 628 q 429 750 313 750 q 642 694 565 750 q 718 554 718 639 q 656 427 718 478 q 485 360 593 376 q 700 264 636 333 q 764 96 764 194 q 710 -60 764 4 q 567 -159 657 -125 q 368 -193 478 -193 z "},"4":{"ha":833,"x_min":11,"x_max":815,"o":"m 393 -181 l 393 47 l 11 47 l 11 90 l 525 736 l 650 736 l 650 168 l 815 168 l 815 47 l 650 47 l 650 -181 l 393 -181 m 156 168 l 393 168 l 393 467 l 156 168 z "},"5":{"ha":833,"x_min":83,"x_max":733,"o":"m 350 -194 q 196 -172 261 -194 q 94 -103 131 -150 q 83 -75 83 -87 q 108 -37 83 -56 l 196 29 l 218 29 l 235 -8 q 290 -101 261 -69 q 374 -133 319 -133 q 462 -85 429 -133 q 494 38 494 -37 q 433 175 494 135 q 257 215 372 215 q 192 212 219 215 q 126 203 164 208 l 126 736 l 654 736 l 654 574 l 206 574 l 206 418 q 258 422 228 421 q 331 424 288 424 q 629 347 525 424 q 733 138 733 271 q 683 -28 733 47 q 547 -149 633 -103 q 350 -194 461 -194 z "},"6":{"ha":833,"x_min":46,"x_max":788,"o":"m 418 -14 q 222 29 306 -14 q 92 153 139 72 q 46 349 46 235 q 123 624 46 504 q 342 822 200 743 q 682 931 485 900 l 682 876 q 438 722 525 829 q 326 467 351 615 q 538 553 400 553 q 673 518 617 553 q 758 424 729 483 q 788 293 788 365 q 746 139 788 208 q 622 28 704 69 q 418 -14 539 -14 m 317 338 q 327 192 317 256 q 362 92 338 129 q 426 56 386 56 q 485 88 464 56 q 513 166 506 121 q 521 250 521 211 q 510 344 521 300 q 476 416 500 389 q 415 443 453 443 q 318 386 357 443 q 317 338 317 363 z "},"7":{"ha":833,"x_min":83,"x_max":736,"o":"m 175 -181 q 277 31 215 -83 q 414 267 339 144 q 569 514 489 390 l 83 514 l 83 736 l 736 736 l 736 667 q 601 394 668 536 q 480 107 535 253 q 396 -181 425 -39 l 175 -181 z "},"8":{"ha":833,"x_min":56,"x_max":778,"o":"m 406 -14 q 226 13 306 -14 q 101 90 147 40 q 56 208 56 140 q 69 281 56 243 q 121 356 83 319 q 228 424 158 393 q 119 537 147 479 q 90 669 90 594 q 137 801 90 742 q 261 895 183 860 q 435 931 339 931 q 585 903 517 931 q 694 826 653 875 q 735 715 735 778 q 686 613 735 658 q 565 532 638 567 q 730 406 682 468 q 778 267 778 344 q 733 128 778 192 q 606 25 689 64 q 406 -14 522 -14 m 318 756 q 328 699 318 726 q 376 640 339 671 q 494 568 414 608 q 538 633 521 593 q 554 721 554 674 q 519 831 554 796 q 433 867 483 867 q 349 837 381 867 q 318 756 318 807 m 246 221 q 290 97 246 144 q 397 50 333 50 q 499 85 464 50 q 535 172 535 119 q 527 224 535 201 q 497 267 519 246 q 428 314 474 288 q 308 378 383 340 q 299 383 303 381 q 259 322 272 364 q 246 221 246 281 z "},"9":{"ha":833,"x_min":46,"x_max":788,"o":"m 151 -194 l 151 -140 q 395 14 308 -93 q 507 269 482 121 q 296 183 433 183 q 160 218 217 183 q 75 312 104 253 q 46 443 46 371 q 88 597 46 528 q 212 708 129 667 q 415 750 294 750 q 611 707 528 750 q 741 583 694 664 q 788 388 788 501 q 710 113 788 232 q 491 -85 633 -7 q 151 -194 349 -164 m 313 486 q 323 392 313 436 q 357 320 333 347 q 418 293 381 293 q 515 350 476 293 q 517 399 517 374 q 506 544 517 481 q 472 644 496 607 q 407 681 447 681 q 349 648 369 681 q 320 570 328 615 q 313 486 313 525 z "},"\u0000":{"ha":0,"x_min":0,"x_max":0,"o":""}," ":{"ha":347,"x_min":0,"x_max":0,"o":""}," ":{"ha":694,"x_min":0,"x_max":0,"o":""}," ":{"ha":347,"x_min":0,"x_max":0,"o":""}," ":{"ha":174,"x_min":0,"x_max":0,"o":""}," ":{"ha":35,"x_min":0,"x_max":0,"o":""},"​":{"ha":0,"x_min":0,"x_max":0,"o":""},"A":{"ha":1097,"x_min":14,"x_max":1083,"o":"m 14 0 l 14 22 l 96 71 l 464 924 l 624 924 l 988 71 l 1083 22 l 1083 0 l 583 0 l 583 22 l 703 74 l 614 288 l 290 288 l 201 74 l 315 22 l 315 0 l 14 0 m 322 364 l 582 364 l 453 674 l 322 364 z "},"B":{"ha":1024,"x_min":42,"x_max":996,"o":"m 42 0 l 42 22 l 165 81 l 165 836 l 42 894 l 42 917 l 546 917 q 733 894 650 917 q 863 826 815 871 q 911 711 911 781 q 853 581 911 640 q 690 497 796 521 q 914 418 832 478 q 996 267 996 358 q 942 130 996 190 q 794 35 888 69 q 581 0 700 0 l 42 0 m 454 840 l 429 840 l 429 504 l 461 504 q 598 549 549 504 q 647 667 647 593 q 599 796 647 751 q 454 840 551 840 m 500 442 l 429 442 l 429 76 l 510 76 q 661 129 606 76 q 717 263 717 182 q 660 397 717 353 q 500 442 604 442 z "},"C":{"ha":974,"x_min":49,"x_max":897,"o":"m 553 -14 q 349 21 442 -14 q 190 118 257 56 q 85 263 122 181 q 49 443 49 346 q 93 639 49 550 q 213 793 138 728 q 382 894 288 858 q 576 931 476 931 q 701 922 651 931 q 788 899 750 914 q 867 864 826 883 l 888 594 l 863 594 l 699 839 q 650 856 675 850 q 589 861 625 861 q 454 810 514 861 q 360 664 394 758 q 325 439 325 569 q 358 239 325 324 q 450 108 392 154 q 583 63 508 63 q 651 69 618 63 q 718 94 685 76 l 872 304 l 897 304 l 874 61 q 733 6 821 25 q 553 -14 644 -14 z "},"D":{"ha":1139,"x_min":42,"x_max":1097,"o":"m 42 0 l 42 22 l 165 81 l 165 836 l 42 894 l 42 917 l 558 917 q 851 863 731 917 q 1034 714 971 808 q 1097 500 1097 619 q 1057 300 1097 392 q 942 142 1017 208 q 768 38 868 75 q 549 0 668 0 l 42 0 m 485 840 l 429 840 l 429 76 l 506 76 q 743 180 661 76 q 825 457 825 283 q 741 737 825 633 q 485 840 657 840 z "},"E":{"ha":972,"x_min":42,"x_max":889,"o":"m 42 0 l 42 22 l 165 81 l 165 836 l 42 894 l 42 917 l 850 917 l 850 675 l 828 675 l 714 840 l 429 840 l 429 511 l 629 511 l 713 633 l 735 633 l 735 315 l 713 315 l 629 435 l 429 435 l 429 76 l 743 76 l 867 304 l 889 304 l 889 0 l 42 0 z "},"F":{"ha":892,"x_min":42,"x_max":836,"o":"m 42 0 l 42 22 l 165 81 l 165 836 l 42 894 l 42 917 l 836 917 l 836 675 l 814 675 l 714 840 l 429 840 l 429 504 l 615 504 l 699 626 l 721 626 l 721 322 l 699 322 l 615 442 l 429 442 l 429 81 l 582 22 l 582 0 l 42 0 z "},"G":{"ha":1040,"x_min":51,"x_max":1017,"o":"m 542 -14 q 353 21 442 -14 q 197 118 264 56 q 90 263 129 181 q 51 443 51 346 q 96 639 51 550 q 217 793 140 728 q 390 894 293 858 q 593 931 488 931 q 721 922 668 931 q 815 899 774 914 q 897 864 857 883 l 918 610 l 892 610 l 731 840 q 606 864 681 864 q 467 812 531 864 q 366 665 404 760 q 328 439 328 569 q 362 238 328 324 q 453 106 396 153 q 582 60 511 60 q 643 64 610 60 l 643 332 l 519 404 l 519 426 l 1017 426 l 1017 404 l 907 332 l 907 103 q 801 41 864 67 q 670 1 739 15 q 542 -14 601 -14 m 799 107 l 785 100 q 799 107 792 103 z "},"H":{"ha":1183,"x_min":42,"x_max":1142,"o":"m 42 0 l 42 22 l 165 81 l 165 836 l 42 894 l 42 917 l 536 917 l 536 894 l 429 836 l 429 510 l 757 510 l 757 836 l 647 894 l 647 917 l 1142 917 l 1142 894 l 1021 836 l 1021 81 l 1142 22 l 1142 0 l 647 0 l 647 22 l 757 81 l 757 433 l 429 433 l 429 81 l 536 22 l 536 0 l 42 0 z "},"I":{"ha":594,"x_min":42,"x_max":553,"o":"m 42 0 l 42 22 l 165 81 l 165 836 l 42 894 l 42 917 l 553 917 l 553 894 l 429 836 l 429 81 l 553 22 l 553 0 l 42 0 z "},"J":{"ha":638,"x_min":49,"x_max":596,"o":"m 92 -240 q 49 -200 49 -240 q 55 -147 49 -181 q 69 -78 61 -114 l 83 -78 q 112 -85 101 -83 q 136 -87 122 -87 q 174 -77 158 -87 q 199 -33 190 -67 q 208 68 208 0 l 208 836 l 85 894 l 85 917 l 596 917 l 596 894 l 472 836 l 472 346 q 451 192 472 264 q 399 62 431 121 q 333 -42 367 3 q 276 -115 300 -86 q 187 -202 235 -164 q 92 -240 139 -240 z "},"K":{"ha":1125,"x_min":42,"x_max":1119,"o":"m 42 0 l 42 22 l 165 81 l 165 836 l 42 894 l 42 917 l 553 917 l 553 894 l 429 836 l 429 81 l 553 22 l 553 0 l 42 0 m 429 458 l 808 842 l 701 894 l 701 917 l 1051 917 l 1051 894 l 956 851 l 663 574 l 1014 65 l 1119 22 l 1119 0 l 740 0 l 429 458 z "},"L":{"ha":917,"x_min":42,"x_max":861,"o":"m 42 0 l 42 22 l 165 81 l 165 836 l 42 894 l 42 917 l 567 917 l 567 894 l 429 836 l 429 76 l 714 76 l 839 360 l 861 360 l 861 0 l 42 0 z "},"M":{"ha":1415,"x_min":42,"x_max":1374,"o":"m 42 0 l 42 22 l 165 81 l 194 838 l 71 894 l 71 917 l 471 917 l 725 329 l 972 917 l 1363 917 l 1363 894 l 1239 856 l 1263 81 l 1374 22 l 1374 0 l 888 0 l 888 22 l 1004 79 l 992 719 l 685 -7 l 596 -7 l 282 724 l 264 79 l 390 22 l 390 0 l 42 0 z "},"N":{"ha":1149,"x_min":42,"x_max":1107,"o":"m 42 0 l 42 22 l 165 81 l 165 836 l 42 894 l 42 917 l 343 917 l 889 344 l 889 836 l 718 894 l 718 917 l 1107 917 l 1107 894 l 986 836 l 986 -7 l 876 -7 l 263 629 l 263 81 l 433 22 l 433 0 l 42 0 z "},"O":{"ha":1079,"x_min":49,"x_max":1031,"o":"m 539 -14 q 344 22 433 -14 q 189 120 256 57 q 85 269 122 183 q 49 458 49 356 q 85 647 49 561 q 189 797 122 733 q 344 895 256 860 q 539 931 433 931 q 734 895 644 931 q 890 797 824 860 q 994 647 957 733 q 1031 458 1031 561 q 994 269 1031 356 q 890 120 957 183 q 734 22 824 57 q 539 -14 644 -14 m 557 60 q 659 104 615 60 q 728 228 703 149 q 753 418 753 308 q 722 650 753 551 q 640 803 692 749 q 524 858 589 858 q 422 815 467 858 q 352 691 378 771 q 326 501 326 611 q 358 269 326 368 q 441 115 389 169 q 557 60 493 60 z "},"P":{"ha":990,"x_min":42,"x_max":963,"o":"m 42 0 l 42 22 l 165 81 l 165 836 l 42 894 l 42 917 l 600 917 q 790 891 708 917 q 917 811 872 865 q 963 671 963 757 q 910 533 963 592 q 769 443 858 475 q 567 411 681 411 l 429 411 l 429 81 l 582 22 l 582 0 l 42 0 m 429 840 l 429 474 l 464 474 q 636 526 574 474 q 699 657 699 579 q 635 797 699 754 q 454 840 572 840 l 429 840 z "},"Q":{"ha":1079,"x_min":49,"x_max":1133,"o":"m 957 -221 q 807 -201 885 -221 q 640 -134 729 -181 q 443 -6 550 -87 q 239 78 328 14 q 99 241 150 143 q 49 458 49 339 q 85 647 49 561 q 189 797 122 733 q 344 895 256 860 q 539 931 433 931 q 734 895 644 931 q 890 797 824 860 q 994 647 957 733 q 1031 458 1031 561 q 991 264 1031 353 q 881 111 951 175 q 717 15 811 47 q 907 -123 831 -87 q 1039 -158 983 -158 q 1095 -153 1072 -158 q 1133 -144 1118 -149 l 1133 -183 q 1061 -209 1103 -197 q 957 -221 1019 -221 m 557 60 q 659 104 615 60 q 728 228 703 149 q 753 418 753 308 q 722 650 753 551 q 640 803 692 749 q 524 858 589 858 q 422 815 467 858 q 352 691 378 771 q 326 501 326 611 q 358 269 326 368 q 441 115 389 169 q 557 60 493 60 z "},"R":{"ha":1069,"x_min":42,"x_max":1083,"o":"m 42 0 l 42 22 l 165 81 l 165 836 l 42 894 l 42 917 l 593 917 q 823 856 739 917 q 907 690 907 796 q 857 563 907 614 q 724 481 807 513 l 978 82 l 1083 22 l 1083 0 l 717 0 l 468 428 l 429 428 l 429 82 l 533 22 l 533 0 l 42 0 m 463 840 l 429 840 l 429 490 l 471 490 q 601 538 554 490 q 647 665 647 586 q 601 795 647 750 q 463 840 556 840 z "},"S":{"ha":832,"x_min":54,"x_max":771,"o":"m 383 -14 q 211 6 288 -14 q 68 61 135 26 l 54 301 l 81 301 l 203 113 q 272 76 232 90 q 354 61 311 61 q 473 92 425 61 q 521 189 521 122 q 503 255 521 228 q 436 309 486 282 q 288 378 386 336 q 136 483 189 418 q 83 632 83 547 q 115 749 83 694 q 200 844 147 804 q 319 908 253 885 q 453 931 385 931 q 600 913 528 931 q 728 864 672 894 l 742 642 l 717 642 l 601 804 q 537 841 569 828 q 464 854 504 854 q 374 822 410 854 q 339 732 339 789 q 356 674 339 700 q 413 622 372 647 q 525 565 453 597 q 712 444 653 510 q 771 282 771 379 q 717 124 771 190 q 575 22 664 58 q 383 -14 486 -14 z "},"T":{"ha":997,"x_min":42,"x_max":956,"o":"m 214 0 l 214 22 l 367 81 l 367 840 l 186 840 l 64 596 l 42 596 l 42 917 l 956 917 l 956 596 l 933 596 l 811 840 l 631 840 l 631 81 l 783 22 l 783 0 l 214 0 z "},"U":{"ha":1189,"x_min":42,"x_max":1147,"o":"m 604 -14 q 374 26 472 -14 q 221 161 275 67 q 167 419 167 256 l 167 836 l 42 894 l 42 917 l 556 917 l 556 894 l 431 836 l 431 403 q 466 224 431 289 q 560 133 501 160 q 692 106 619 106 q 806 130 753 106 q 892 209 860 154 q 925 354 925 264 l 925 839 l 800 894 l 800 917 l 1147 917 l 1147 894 l 1022 838 l 1022 419 q 971 161 1022 256 q 825 26 919 67 q 604 -14 731 -14 z "},"V":{"ha":1083,"x_min":13,"x_max":1068,"o":"m 494 -7 l 114 836 l 13 894 l 13 917 l 501 917 l 501 894 l 394 842 l 631 318 l 643 318 l 879 840 l 767 894 l 767 917 l 1068 917 l 1068 894 l 986 849 l 596 -7 l 494 -7 z "},"W":{"ha":1501,"x_min":14,"x_max":1488,"o":"m 396 -7 l 122 833 l 14 894 l 14 917 l 506 917 l 506 894 l 389 840 l 540 350 l 550 350 l 790 924 l 892 924 l 1126 350 l 1136 350 l 1289 840 l 1171 894 l 1171 917 l 1488 917 l 1488 894 l 1394 847 l 1114 -7 l 1013 -7 l 767 569 l 757 569 l 497 -7 l 396 -7 z "},"X":{"ha":1119,"x_min":28,"x_max":1092,"o":"m 28 0 l 28 22 l 143 79 l 426 417 l 138 839 l 42 894 l 42 917 l 572 917 l 572 894 l 464 838 l 464 831 l 632 590 l 825 831 l 825 836 l 714 894 l 714 917 l 1063 917 l 1063 894 l 965 846 l 683 518 l 990 81 l 1092 22 l 1092 0 l 554 0 l 554 22 l 654 76 l 654 82 l 479 339 l 268 85 l 264 79 l 375 22 l 375 0 l 28 0 z "},"Y":{"ha":1081,"x_min":14,"x_max":1067,"o":"m 290 0 l 290 22 l 414 81 l 414 428 l 114 836 l 14 894 l 14 917 l 504 917 l 504 894 l 397 840 l 397 835 l 635 515 l 847 832 l 847 838 l 736 894 l 736 917 l 1067 917 l 1067 894 l 971 849 l 678 428 l 678 81 l 801 22 l 801 0 l 290 0 z "},"Z":{"ha":1022,"x_min":111,"x_max":911,"o":"m 111 0 l 111 51 l 586 840 l 264 840 l 150 613 l 128 613 l 128 917 l 896 917 l 896 865 l 421 76 l 765 76 l 889 318 l 911 318 l 911 0 l 111 0 z "},"À":{"ha":1097,"x_min":14,"x_max":1083,"o":"m 14 0 l 14 22 l 96 71 l 464 924 l 624 924 l 988 71 l 1083 22 l 1083 0 l 583 0 l 583 22 l 703 74 l 614 288 l 290 288 l 201 74 l 315 22 l 315 0 l 14 0 m 322 364 l 582 364 l 453 674 l 322 364 m 524 986 l 336 1096 q 288 1143 300 1118 q 275 1197 275 1168 l 453 1197 l 564 986 l 524 986 z "},"Á":{"ha":1097,"x_min":14,"x_max":1083,"o":"m 14 0 l 14 22 l 96 71 l 464 924 l 624 924 l 988 71 l 1083 22 l 1083 0 l 583 0 l 583 22 l 703 74 l 614 288 l 290 288 l 201 74 l 315 22 l 315 0 l 14 0 m 322 364 l 582 364 l 453 674 l 322 364 m 524 986 l 635 1197 l 813 1197 q 800 1142 813 1168 q 751 1096 788 1117 l 564 986 l 524 986 z "},"Â":{"ha":1097,"x_min":14,"x_max":1083,"o":"m 14 0 l 14 22 l 96 71 l 464 924 l 624 924 l 988 71 l 1083 22 l 1083 0 l 583 0 l 583 22 l 703 74 l 614 288 l 290 288 l 201 74 l 315 22 l 315 0 l 14 0 m 322 364 l 582 364 l 453 674 l 322 364 m 311 986 l 504 1197 l 585 1197 l 778 986 l 738 986 l 544 1065 l 351 986 l 311 986 z "},"Ã":{"ha":1097,"x_min":14,"x_max":1083,"o":"m 14 0 l 14 22 l 96 71 l 464 924 l 624 924 l 988 71 l 1083 22 l 1083 0 l 583 0 l 583 22 l 703 74 l 614 288 l 290 288 l 201 74 l 315 22 l 315 0 l 14 0 m 322 364 l 582 364 l 453 674 l 322 364 m 304 999 q 374 1145 338 1106 q 457 1185 410 1185 q 538 1166 500 1185 q 608 1128 575 1147 q 672 1110 642 1110 q 710 1123 693 1110 q 746 1185 726 1136 l 785 1185 q 715 1038 751 1078 q 632 999 679 999 q 551 1017 589 999 q 481 1055 514 1036 q 417 1074 447 1074 q 379 1060 396 1074 q 343 999 363 1047 l 304 999 z "},"Ä":{"ha":1097,"x_min":14,"x_max":1083,"o":"m 14 0 l 14 22 l 96 71 l 464 924 l 624 924 l 988 71 l 1083 22 l 1083 0 l 583 0 l 583 22 l 703 74 l 614 288 l 290 288 l 201 74 l 315 22 l 315 0 l 14 0 m 322 364 l 582 364 l 453 674 l 322 364 m 401 1001 q 338 1028 363 1001 q 313 1090 313 1054 q 338 1153 313 1126 q 401 1179 363 1179 q 465 1153 440 1179 q 490 1090 490 1126 q 465 1028 490 1054 q 401 1001 440 1001 m 689 1001 q 624 1028 649 1001 q 600 1090 600 1054 q 624 1153 600 1126 q 689 1179 649 1179 q 753 1153 729 1179 q 778 1090 778 1126 q 753 1028 778 1054 q 689 1001 729 1001 z "},"Ā":{"ha":1097,"x_min":14,"x_max":1083,"o":"m 14 0 l 14 22 l 96 71 l 464 924 l 624 924 l 988 71 l 1083 22 l 1083 0 l 583 0 l 583 22 l 703 74 l 614 288 l 290 288 l 201 74 l 315 22 l 315 0 l 14 0 m 322 364 l 582 364 l 453 674 l 322 364 m 332 1044 l 332 1136 l 757 1136 l 757 1044 l 332 1044 z "},"Ă":{"ha":1097,"x_min":14,"x_max":1083,"o":"m 14 0 l 14 22 l 96 71 l 464 924 l 624 924 l 988 71 l 1083 22 l 1083 0 l 583 0 l 583 22 l 703 74 l 614 288 l 290 288 l 201 74 l 315 22 l 315 0 l 14 0 m 322 364 l 582 364 l 453 674 l 322 364 m 544 986 q 386 1038 438 986 q 311 1197 335 1090 l 350 1197 q 429 1120 378 1136 q 544 1104 481 1104 q 659 1120 608 1104 q 739 1197 710 1136 l 778 1197 q 544 986 729 986 z "},"Å":{"ha":1097,"x_min":14,"x_max":1083,"o":"m 14 0 l 14 22 l 96 71 l 464 924 l 624 924 l 988 71 l 1083 22 l 1083 0 l 583 0 l 583 22 l 703 74 l 614 288 l 290 288 l 201 74 l 315 22 l 315 0 l 14 0 m 322 364 l 582 364 l 453 674 l 322 364 m 544 986 q 453 1019 489 986 q 418 1106 418 1053 q 453 1191 418 1157 q 544 1225 489 1225 q 635 1191 600 1225 q 671 1106 671 1157 q 635 1020 671 1054 q 544 986 600 986 m 550 1021 q 589 1097 589 1021 q 539 1190 589 1190 q 510 1172 519 1190 q 500 1114 500 1154 q 550 1021 500 1021 z "},"Ǻ":{"ha":1097,"x_min":14,"x_max":1083,"o":"m 14 0 l 14 22 l 96 71 l 464 924 l 624 924 l 988 71 l 1083 22 l 1083 0 l 583 0 l 583 22 l 703 74 l 614 288 l 290 288 l 201 74 l 315 22 l 315 0 l 14 0 m 322 364 l 582 364 l 453 674 l 322 364 m 544 986 q 453 1019 489 986 q 418 1106 418 1053 q 453 1191 418 1157 q 544 1225 489 1225 q 635 1191 600 1225 q 671 1106 671 1157 q 635 1020 671 1054 q 544 986 600 986 m 550 1021 q 589 1097 589 1021 q 539 1190 589 1190 q 510 1172 519 1190 q 500 1114 500 1154 q 550 1021 500 1021 m 524 1257 l 635 1468 l 813 1468 q 800 1413 813 1439 q 751 1367 788 1388 l 564 1257 l 524 1257 z "},"Ạ":{"ha":1097,"x_min":14,"x_max":1083,"o":"m 14 0 l 14 22 l 96 71 l 464 924 l 624 924 l 988 71 l 1083 22 l 1083 0 l 583 0 l 583 22 l 703 74 l 614 288 l 290 288 l 201 74 l 315 22 l 315 0 l 14 0 m 322 364 l 582 364 l 453 674 l 322 364 z "},"Ą":{"ha":1097,"x_min":14,"x_max":1083,"o":"m 858 -174 q 932 -254 858 -254 q 967 -248 949 -254 q 996 -229 985 -242 l 1001 -229 l 1001 -261 q 872 -333 967 -333 q 770 -299 808 -333 q 732 -206 732 -264 q 763 -106 732 -157 q 850 0 794 -56 l 583 0 l 583 22 l 703 74 l 614 288 l 290 288 l 201 74 l 315 22 l 315 0 l 14 0 l 14 22 l 96 71 l 464 924 l 624 924 l 985 78 l 1083 22 l 1083 0 l 908 0 q 872 -87 885 -44 q 858 -174 858 -131 m 322 364 l 582 364 l 453 674 l 322 364 z "},"Ȁ":{"ha":1097,"x_min":14,"x_max":1083,"o":"m 14 0 l 14 22 l 96 71 l 464 924 l 624 924 l 988 71 l 1083 22 l 1083 0 l 583 0 l 583 22 l 703 74 l 614 288 l 290 288 l 201 74 l 315 22 l 315 0 l 14 0 m 322 364 l 582 364 l 453 674 l 322 364 m 418 986 l 256 1110 q 230 1153 228 1131 q 239 1197 232 1176 l 369 1197 l 458 986 l 418 986 m 629 986 l 492 1110 q 468 1154 468 1132 q 475 1197 468 1176 l 606 1197 l 669 986 l 629 986 z "},"Ȃ":{"ha":1097,"x_min":14,"x_max":1083,"o":"m 14 0 l 14 22 l 96 71 l 464 924 l 624 924 l 988 71 l 1083 22 l 1083 0 l 583 0 l 583 22 l 703 74 l 614 288 l 290 288 l 201 74 l 315 22 l 315 0 l 14 0 m 322 364 l 582 364 l 453 674 l 322 364 m 311 986 q 544 1197 360 1197 q 703 1145 651 1197 q 778 986 754 1093 l 739 986 q 660 1063 711 1047 q 544 1079 608 1079 q 430 1063 481 1079 q 350 986 379 1047 l 311 986 z "},"Ắ":{"ha":1097,"x_min":14,"x_max":1083,"o":"m 14 0 l 14 22 l 96 71 l 464 924 l 624 924 l 988 71 l 1083 22 l 1083 0 l 583 0 l 583 22 l 703 74 l 614 288 l 290 288 l 201 74 l 315 22 l 315 0 l 14 0 m 322 364 l 582 364 l 453 674 l 322 364 z "},"Ặ":{"ha":1097,"x_min":14,"x_max":1083,"o":"m 14 0 l 14 22 l 96 71 l 464 924 l 624 924 l 988 71 l 1083 22 l 1083 0 l 583 0 l 583 22 l 703 74 l 614 288 l 290 288 l 201 74 l 315 22 l 315 0 l 14 0 m 322 364 l 582 364 l 453 674 l 322 364 m 544 986 q 386 1038 438 986 q 311 1197 335 1090 l 350 1197 q 429 1120 378 1136 q 544 1104 481 1104 q 659 1120 608 1104 q 739 1197 710 1136 l 778 1197 q 544 986 729 986 z "},"Ằ":{"ha":1097,"x_min":14,"x_max":1083,"o":"m 14 0 l 14 22 l 96 71 l 464 924 l 624 924 l 988 71 l 1083 22 l 1083 0 l 583 0 l 583 22 l 703 74 l 614 288 l 290 288 l 201 74 l 315 22 l 315 0 l 14 0 m 322 364 l 582 364 l 453 674 l 322 364 z "},"Ẳ":{"ha":1097,"x_min":14,"x_max":1083,"o":"m 14 0 l 14 22 l 96 71 l 464 924 l 624 924 l 988 71 l 1083 22 l 1083 0 l 583 0 l 583 22 l 703 74 l 614 288 l 290 288 l 201 74 l 315 22 l 315 0 l 14 0 m 322 364 l 582 364 l 453 674 l 322 364 z "},"Ẵ":{"ha":1097,"x_min":14,"x_max":1083,"o":"m 14 0 l 14 22 l 96 71 l 464 924 l 624 924 l 988 71 l 1083 22 l 1083 0 l 583 0 l 583 22 l 703 74 l 614 288 l 290 288 l 201 74 l 315 22 l 315 0 l 14 0 m 322 364 l 582 364 l 453 674 l 322 364 z "},"Ấ":{"ha":1097,"x_min":14,"x_max":1083,"o":"m 14 0 l 14 22 l 96 71 l 464 924 l 624 924 l 988 71 l 1083 22 l 1083 0 l 583 0 l 583 22 l 703 74 l 614 288 l 290 288 l 201 74 l 315 22 l 315 0 l 14 0 m 322 364 l 582 364 l 453 674 l 322 364 m 708 1118 l 767 1317 l 929 1317 q 915 1264 929 1288 q 868 1215 900 1240 l 749 1118 l 708 1118 m 311 986 l 504 1197 l 585 1197 l 778 986 l 738 986 l 544 1065 l 351 986 l 311 986 z "},"Ậ":{"ha":1097,"x_min":14,"x_max":1083,"o":"m 14 0 l 14 22 l 96 71 l 464 924 l 624 924 l 988 71 l 1083 22 l 1083 0 l 583 0 l 583 22 l 703 74 l 614 288 l 290 288 l 201 74 l 315 22 l 315 0 l 14 0 m 322 364 l 582 364 l 453 674 l 322 364 m 311 986 l 504 1197 l 585 1197 l 778 986 l 738 986 l 544 1065 l 351 986 l 311 986 z "},"Ầ":{"ha":1097,"x_min":14,"x_max":1083,"o":"m 14 0 l 14 22 l 96 71 l 464 924 l 624 924 l 988 71 l 1083 22 l 1083 0 l 583 0 l 583 22 l 703 74 l 614 288 l 290 288 l 201 74 l 315 22 l 315 0 l 14 0 m 322 364 l 582 364 l 453 674 l 322 364 m 340 1118 l 221 1215 q 174 1264 189 1240 q 160 1317 160 1288 l 322 1317 l 381 1118 l 340 1118 m 311 986 l 504 1197 l 585 1197 l 778 986 l 738 986 l 544 1065 l 351 986 l 311 986 z "},"Ẩ":{"ha":1097,"x_min":14,"x_max":1083,"o":"m 14 0 l 14 22 l 96 71 l 464 924 l 624 924 l 988 71 l 1083 22 l 1083 0 l 583 0 l 583 22 l 703 74 l 614 288 l 290 288 l 201 74 l 315 22 l 315 0 l 14 0 m 322 364 l 582 364 l 453 674 l 322 364 z "},"Ẫ":{"ha":1097,"x_min":14,"x_max":1083,"o":"m 14 0 l 14 22 l 96 71 l 464 924 l 624 924 l 988 71 l 1083 22 l 1083 0 l 583 0 l 583 22 l 703 74 l 614 288 l 290 288 l 201 74 l 315 22 l 315 0 l 14 0 m 322 364 l 582 364 l 453 674 l 322 364 z "},"Ả":{"ha":1097,"x_min":14,"x_max":1083,"o":"m 14 0 l 14 22 l 96 71 l 464 924 l 624 924 l 988 71 l 1083 22 l 1083 0 l 583 0 l 583 22 l 703 74 l 614 288 l 290 288 l 201 74 l 315 22 l 315 0 l 14 0 m 322 364 l 582 364 l 453 674 l 322 364 m 474 990 l 474 992 q 536 1017 517 1006 q 556 1050 556 1029 q 534 1084 556 1071 q 460 1107 513 1097 l 482 1215 q 614 1173 576 1207 q 651 1103 651 1139 q 610 1017 651 1047 q 489 975 569 988 l 474 990 z "},"Æ":{"ha":1471,"x_min":14,"x_max":1388,"o":"m 644 917 l 1349 917 l 1349 675 l 1326 675 l 1213 840 l 928 840 l 928 511 l 1128 511 l 1211 633 l 1233 633 l 1233 315 l 1211 315 l 1128 435 l 928 435 l 928 76 l 1242 76 l 1365 304 l 1388 304 l 1388 0 l 540 0 l 540 22 l 664 81 l 664 315 l 364 315 l 207 71 l 315 22 l 315 0 l 14 0 l 14 22 l 104 72 l 644 917 m 413 392 l 664 392 l 664 785 l 413 392 z "},"Ǽ":{"ha":1471,"x_min":14,"x_max":1388,"o":"m 644 917 l 1349 917 l 1349 675 l 1326 675 l 1213 840 l 928 840 l 928 511 l 1128 511 l 1211 633 l 1233 633 l 1233 315 l 1211 315 l 1128 435 l 928 435 l 928 76 l 1242 76 l 1365 304 l 1388 304 l 1388 0 l 540 0 l 540 22 l 664 81 l 664 315 l 364 315 l 207 71 l 315 22 l 315 0 l 14 0 l 14 22 l 104 72 l 644 917 m 413 392 l 664 392 l 664 785 l 413 392 m 785 986 l 896 1197 l 1074 1197 q 1061 1142 1074 1168 q 1013 1096 1049 1117 l 825 986 l 785 986 z "},"Ć":{"ha":974,"x_min":49,"x_max":897,"o":"m 553 -14 q 349 21 442 -14 q 190 118 257 56 q 85 263 122 181 q 49 443 49 346 q 93 639 49 550 q 213 793 138 728 q 382 894 288 858 q 576 931 476 931 q 701 922 651 931 q 788 899 750 914 q 867 864 826 883 l 888 594 l 863 594 l 699 839 q 650 856 675 850 q 589 861 625 861 q 454 810 514 861 q 360 664 394 758 q 325 439 325 569 q 358 239 325 324 q 450 108 392 154 q 583 63 508 63 q 651 69 618 63 q 718 94 685 76 l 872 304 l 897 304 l 874 61 q 733 6 821 25 q 553 -14 644 -14 m 525 986 l 636 1197 l 814 1197 q 801 1142 814 1168 q 753 1096 789 1117 l 565 986 l 525 986 z "},"Ĉ":{"ha":974,"x_min":49,"x_max":897,"o":"m 553 -14 q 349 21 442 -14 q 190 118 257 56 q 85 263 122 181 q 49 443 49 346 q 93 639 49 550 q 213 793 138 728 q 382 894 288 858 q 576 931 476 931 q 701 922 651 931 q 788 899 750 914 q 867 864 826 883 l 888 594 l 863 594 l 699 839 q 650 856 675 850 q 589 861 625 861 q 454 810 514 861 q 360 664 394 758 q 325 439 325 569 q 358 239 325 324 q 450 108 392 154 q 583 63 508 63 q 651 69 618 63 q 718 94 685 76 l 872 304 l 897 304 l 874 61 q 733 6 821 25 q 553 -14 644 -14 m 313 986 l 506 1197 l 586 1197 l 779 986 l 739 986 l 546 1065 l 353 986 l 313 986 z "},"Č":{"ha":974,"x_min":49,"x_max":897,"o":"m 553 -14 q 349 21 442 -14 q 190 118 257 56 q 85 263 122 181 q 49 443 49 346 q 93 639 49 550 q 213 793 138 728 q 382 894 288 858 q 576 931 476 931 q 701 922 651 931 q 788 899 750 914 q 867 864 826 883 l 888 594 l 863 594 l 699 839 q 650 856 675 850 q 589 861 625 861 q 454 810 514 861 q 360 664 394 758 q 325 439 325 569 q 358 239 325 324 q 450 108 392 154 q 583 63 508 63 q 651 69 618 63 q 718 94 685 76 l 872 304 l 897 304 l 874 61 q 733 6 821 25 q 553 -14 644 -14 m 506 986 l 313 1197 l 353 1197 l 546 1118 l 739 1197 l 779 1197 l 586 986 l 506 986 z "},"Ċ":{"ha":974,"x_min":49,"x_max":897,"o":"m 553 -14 q 349 21 442 -14 q 190 118 257 56 q 85 263 122 181 q 49 443 49 346 q 93 639 49 550 q 213 793 138 728 q 382 894 288 858 q 576 931 476 931 q 701 922 651 931 q 788 899 750 914 q 867 864 826 883 l 888 594 l 863 594 l 699 839 q 650 856 675 850 q 589 861 625 861 q 454 810 514 861 q 360 664 394 758 q 325 439 325 569 q 358 239 325 324 q 450 108 392 154 q 583 63 508 63 q 651 69 618 63 q 718 94 685 76 l 872 304 l 897 304 l 874 61 q 733 6 821 25 q 553 -14 644 -14 m 546 997 q 465 1029 497 997 q 433 1110 433 1061 q 465 1190 433 1158 q 546 1222 497 1222 q 626 1190 594 1222 q 658 1110 658 1158 q 626 1029 658 1061 q 546 997 594 997 z "},"Ç":{"ha":974,"x_min":49,"x_max":897,"o":"m 514 -289 q 571 -276 550 -289 q 592 -236 592 -264 q 565 -185 592 -207 q 457 -143 539 -162 l 517 -12 q 272 56 378 -6 q 108 219 167 118 q 49 443 49 319 q 93 639 49 550 q 213 793 138 728 q 382 894 288 858 q 576 931 476 931 q 701 922 651 931 q 788 899 750 914 q 867 864 826 883 l 888 594 l 863 594 l 699 839 q 650 856 675 850 q 589 861 625 861 q 454 810 514 861 q 360 664 394 758 q 325 439 325 569 q 358 239 325 324 q 450 108 392 154 q 583 63 508 63 q 651 69 618 63 q 718 94 685 76 l 872 304 l 897 304 l 874 61 q 741 8 824 28 q 571 -14 658 -11 l 556 -49 q 667 -108 636 -72 q 699 -199 699 -144 q 656 -296 699 -258 q 546 -333 614 -333 q 484 -326 511 -333 q 435 -306 457 -319 l 435 -274 l 440 -274 q 476 -285 456 -282 q 514 -289 497 -289 z "},"Ḉ":{"ha":974,"x_min":49,"x_max":897,"o":"m 525 986 l 636 1197 l 814 1197 q 801 1142 814 1168 q 753 1096 789 1117 l 565 986 l 525 986 m 546 -333 q 484 -326 511 -333 q 435 -306 457 -319 l 435 -274 l 440 -274 q 476 -285 456 -282 q 514 -289 497 -289 q 571 -276 550 -289 q 592 -236 592 -264 q 565 -185 592 -207 q 457 -143 539 -162 l 517 -12 q 272 56 378 -6 q 108 219 167 118 q 49 443 49 319 q 93 639 49 550 q 213 793 138 728 q 382 894 288 858 q 576 931 476 931 q 701 922 651 931 q 788 899 750 914 q 867 864 826 883 l 888 594 l 863 594 l 699 839 q 650 856 675 850 q 589 861 625 861 q 454 810 514 861 q 360 664 394 758 q 325 439 325 569 q 358 239 325 324 q 450 108 392 154 q 583 63 508 63 q 651 69 618 63 q 718 94 685 76 l 872 304 l 897 304 l 874 61 q 741 8 824 28 q 571 -14 658 -11 l 556 -49 q 667 -108 636 -72 q 699 -199 699 -144 q 656 -296 699 -258 q 546 -333 614 -333 z "},"Ď":{"ha":1139,"x_min":42,"x_max":1097,"o":"m 42 0 l 42 22 l 165 81 l 165 836 l 42 894 l 42 917 l 558 917 q 851 863 731 917 q 1034 714 971 808 q 1097 500 1097 619 q 1057 300 1097 392 q 942 142 1017 208 q 768 38 868 75 q 549 0 668 0 l 42 0 m 485 840 l 429 840 l 429 76 l 506 76 q 743 180 661 76 q 825 457 825 283 q 741 737 825 633 q 485 840 657 840 m 506 986 l 313 1197 l 353 1197 l 546 1118 l 739 1197 l 779 1197 l 586 986 l 506 986 z "},"Đ":{"ha":1139,"x_min":42,"x_max":1097,"o":"m 42 0 l 42 22 l 165 81 l 165 438 l 42 438 l 42 514 l 165 514 l 165 836 l 42 894 l 42 917 l 558 917 q 851 863 731 917 q 1034 714 971 808 q 1097 500 1097 619 q 1057 300 1097 392 q 942 142 1017 208 q 768 38 868 75 q 549 0 668 0 l 42 0 m 618 438 l 429 438 l 429 76 l 506 76 q 743 180 661 76 q 825 457 825 283 q 741 737 825 633 q 485 840 657 840 l 429 840 l 429 514 l 618 514 l 618 438 z "},"Ḍ":{"ha":1139,"x_min":42,"x_max":1097,"o":"m 42 0 l 42 22 l 165 81 l 165 836 l 42 894 l 42 917 l 558 917 q 851 863 731 917 q 1034 714 971 808 q 1097 500 1097 619 q 1057 300 1097 392 q 942 142 1017 208 q 768 38 868 75 q 549 0 668 0 l 42 0 m 485 840 l 429 840 l 429 76 l 506 76 q 743 180 661 76 q 825 457 825 283 q 741 737 825 633 q 485 840 657 840 z "},"Ḏ":{"ha":1139,"x_min":42,"x_max":1097,"o":"m 42 0 l 42 22 l 165 81 l 165 836 l 42 894 l 42 917 l 558 917 q 851 863 731 917 q 1034 714 971 808 q 1097 500 1097 619 q 1057 300 1097 392 q 942 142 1017 208 q 768 38 868 75 q 549 0 668 0 l 42 0 m 485 840 l 429 840 l 429 76 l 506 76 q 743 180 661 76 q 825 457 825 283 q 741 737 825 633 q 485 840 657 840 z "},"È":{"ha":972,"x_min":42,"x_max":889,"o":"m 42 0 l 42 22 l 165 81 l 165 836 l 42 894 l 42 917 l 850 917 l 850 675 l 828 675 l 714 840 l 429 840 l 429 511 l 629 511 l 713 633 l 735 633 l 735 315 l 713 315 l 629 435 l 429 435 l 429 76 l 743 76 l 867 304 l 889 304 l 889 0 l 42 0 m 488 986 l 300 1096 q 251 1143 264 1118 q 239 1197 239 1168 l 417 1197 l 528 986 l 488 986 z "},"É":{"ha":972,"x_min":42,"x_max":889,"o":"m 42 0 l 42 22 l 165 81 l 165 836 l 42 894 l 42 917 l 850 917 l 850 675 l 828 675 l 714 840 l 429 840 l 429 511 l 629 511 l 713 633 l 735 633 l 735 315 l 713 315 l 629 435 l 429 435 l 429 76 l 743 76 l 867 304 l 889 304 l 889 0 l 42 0 m 488 986 l 599 1197 l 776 1197 q 764 1142 776 1168 q 715 1096 751 1117 l 528 986 l 488 986 z "},"Ê":{"ha":972,"x_min":42,"x_max":889,"o":"m 42 0 l 42 22 l 165 81 l 165 836 l 42 894 l 42 917 l 850 917 l 850 675 l 828 675 l 714 840 l 429 840 l 429 511 l 629 511 l 713 633 l 735 633 l 735 315 l 713 315 l 629 435 l 429 435 l 429 76 l 743 76 l 867 304 l 889 304 l 889 0 l 42 0 m 275 986 l 468 1197 l 549 1197 l 742 986 l 701 986 l 508 1065 l 315 986 l 275 986 z "},"Ě":{"ha":972,"x_min":42,"x_max":889,"o":"m 42 0 l 42 22 l 165 81 l 165 836 l 42 894 l 42 917 l 850 917 l 850 675 l 828 675 l 714 840 l 429 840 l 429 511 l 629 511 l 713 633 l 735 633 l 735 315 l 713 315 l 629 435 l 429 435 l 429 76 l 743 76 l 867 304 l 889 304 l 889 0 l 42 0 m 468 986 l 275 1197 l 315 1197 l 508 1118 l 701 1197 l 742 1197 l 549 986 l 468 986 z "},"Ẽ":{"ha":972,"x_min":42,"x_max":889,"o":"m 42 0 l 42 22 l 165 81 l 165 836 l 42 894 l 42 917 l 850 917 l 850 675 l 828 675 l 714 840 l 429 840 l 429 511 l 629 511 l 713 633 l 735 633 l 735 315 l 713 315 l 629 435 l 429 435 l 429 76 l 743 76 l 867 304 l 889 304 l 889 0 l 42 0 m 268 999 q 338 1145 301 1106 q 421 1185 374 1185 q 501 1166 464 1185 q 572 1128 539 1147 q 636 1110 606 1110 q 674 1123 657 1110 q 710 1185 690 1136 l 749 1185 q 679 1038 715 1078 q 596 999 643 999 q 515 1017 553 999 q 444 1055 478 1036 q 381 1074 411 1074 q 343 1060 360 1074 q 307 999 326 1047 l 268 999 z "},"Ë":{"ha":972,"x_min":42,"x_max":889,"o":"m 42 0 l 42 22 l 165 81 l 165 836 l 42 894 l 42 917 l 850 917 l 850 675 l 828 675 l 714 840 l 429 840 l 429 511 l 629 511 l 713 633 l 735 633 l 735 315 l 713 315 l 629 435 l 429 435 l 429 76 l 743 76 l 867 304 l 889 304 l 889 0 l 42 0 m 365 1001 q 301 1028 326 1001 q 276 1090 276 1054 q 301 1153 276 1126 q 365 1179 326 1179 q 429 1153 404 1179 q 454 1090 454 1126 q 429 1028 454 1054 q 365 1001 404 1001 m 653 1001 q 588 1028 613 1001 q 564 1090 564 1054 q 588 1153 564 1126 q 653 1179 613 1179 q 717 1153 693 1179 q 742 1090 742 1126 q 717 1028 742 1054 q 653 1001 693 1001 z "},"Ē":{"ha":972,"x_min":42,"x_max":889,"o":"m 42 0 l 42 22 l 165 81 l 165 836 l 42 894 l 42 917 l 850 917 l 850 675 l 828 675 l 714 840 l 429 840 l 429 511 l 629 511 l 713 633 l 735 633 l 735 315 l 713 315 l 629 435 l 429 435 l 429 76 l 743 76 l 867 304 l 889 304 l 889 0 l 42 0 m 296 1044 l 296 1136 l 721 1136 l 721 1044 l 296 1044 z "},"Ĕ":{"ha":972,"x_min":42,"x_max":889,"o":"m 42 0 l 42 22 l 165 81 l 165 836 l 42 894 l 42 917 l 850 917 l 850 675 l 828 675 l 714 840 l 429 840 l 429 511 l 629 511 l 713 633 l 735 633 l 735 315 l 713 315 l 629 435 l 429 435 l 429 76 l 743 76 l 867 304 l 889 304 l 889 0 l 42 0 m 508 986 q 350 1038 401 986 q 275 1197 299 1090 l 314 1197 q 393 1120 342 1136 q 508 1104 444 1104 q 623 1120 572 1104 q 703 1197 674 1136 l 742 1197 q 508 986 693 986 z "},"Ė":{"ha":972,"x_min":42,"x_max":889,"o":"m 42 0 l 42 22 l 165 81 l 165 836 l 42 894 l 42 917 l 850 917 l 850 675 l 828 675 l 714 840 l 429 840 l 429 511 l 629 511 l 713 633 l 735 633 l 735 315 l 713 315 l 629 435 l 429 435 l 429 76 l 743 76 l 867 304 l 889 304 l 889 0 l 42 0 m 508 997 q 428 1029 460 997 q 396 1110 396 1061 q 428 1190 396 1158 q 508 1222 460 1222 q 589 1190 557 1222 q 621 1110 621 1158 q 589 1029 621 1061 q 508 997 557 997 z "},"Ę":{"ha":972,"x_min":42,"x_max":889,"o":"m 42 0 l 42 22 l 165 81 l 165 836 l 42 894 l 42 917 l 850 917 l 850 675 l 828 675 l 714 840 l 429 840 l 429 511 l 629 511 l 713 633 l 735 633 l 735 315 l 713 315 l 629 435 l 429 435 l 429 76 l 743 76 l 867 304 l 889 304 l 889 0 l 796 0 q 759 -87 772 -44 q 746 -174 746 -131 q 819 -254 746 -254 q 854 -248 836 -254 q 883 -229 872 -242 l 889 -229 l 889 -261 q 760 -333 854 -333 q 657 -299 694 -333 q 619 -206 619 -264 q 651 -106 619 -157 q 738 0 682 -56 l 42 0 z "},"Ẹ":{"ha":972,"x_min":42,"x_max":889,"o":"m 42 0 l 42 22 l 165 81 l 165 836 l 42 894 l 42 917 l 850 917 l 850 675 l 828 675 l 714 840 l 429 840 l 429 511 l 629 511 l 713 633 l 735 633 l 735 315 l 713 315 l 629 435 l 429 435 l 429 76 l 743 76 l 867 304 l 889 304 l 889 0 l 42 0 z "},"Ȅ":{"ha":972,"x_min":42,"x_max":889,"o":"m 42 0 l 42 22 l 165 81 l 165 836 l 42 894 l 42 917 l 850 917 l 850 675 l 828 675 l 714 840 l 429 840 l 429 511 l 629 511 l 713 633 l 735 633 l 735 315 l 713 315 l 629 435 l 429 435 l 429 76 l 743 76 l 867 304 l 889 304 l 889 0 l 42 0 m 382 986 l 219 1110 q 194 1153 192 1131 q 203 1197 196 1176 l 333 1197 l 422 986 l 382 986 m 593 986 l 456 1110 q 432 1154 432 1132 q 439 1197 432 1176 l 569 1197 l 633 986 l 593 986 z "},"Ȇ":{"ha":972,"x_min":42,"x_max":889,"o":"m 42 0 l 42 22 l 165 81 l 165 836 l 42 894 l 42 917 l 850 917 l 850 675 l 828 675 l 714 840 l 429 840 l 429 511 l 629 511 l 713 633 l 735 633 l 735 315 l 713 315 l 629 435 l 429 435 l 429 76 l 743 76 l 867 304 l 889 304 l 889 0 l 42 0 m 275 986 q 508 1197 324 1197 q 667 1145 615 1197 q 742 986 718 1093 l 703 986 q 624 1063 675 1047 q 508 1079 572 1079 q 394 1063 444 1079 q 314 986 343 1047 l 275 986 z "},"Ế":{"ha":972,"x_min":42,"x_max":893,"o":"m 42 0 l 42 22 l 165 81 l 165 836 l 42 894 l 42 917 l 850 917 l 850 675 l 828 675 l 714 840 l 429 840 l 429 511 l 629 511 l 713 633 l 735 633 l 735 315 l 713 315 l 629 435 l 429 435 l 429 76 l 743 76 l 867 304 l 889 304 l 889 0 l 42 0 m 672 1118 l 731 1317 l 893 1317 q 878 1264 893 1288 q 832 1215 864 1240 l 713 1118 l 672 1118 m 275 986 l 468 1197 l 549 1197 l 742 986 l 701 986 l 508 1065 l 315 986 l 275 986 z "},"Ệ":{"ha":972,"x_min":42,"x_max":889,"o":"m 42 0 l 42 22 l 165 81 l 165 836 l 42 894 l 42 917 l 850 917 l 850 675 l 828 675 l 714 840 l 429 840 l 429 511 l 629 511 l 713 633 l 735 633 l 735 315 l 713 315 l 629 435 l 429 435 l 429 76 l 743 76 l 867 304 l 889 304 l 889 0 l 42 0 m 275 986 l 468 1197 l 549 1197 l 742 986 l 701 986 l 508 1065 l 315 986 l 275 986 z "},"Ề":{"ha":972,"x_min":42,"x_max":889,"o":"m 42 0 l 42 22 l 165 81 l 165 836 l 42 894 l 42 917 l 850 917 l 850 675 l 828 675 l 714 840 l 429 840 l 429 511 l 629 511 l 713 633 l 735 633 l 735 315 l 713 315 l 629 435 l 429 435 l 429 76 l 743 76 l 867 304 l 889 304 l 889 0 l 42 0 m 304 1118 l 185 1215 q 138 1264 153 1240 q 124 1317 124 1288 l 286 1317 l 344 1118 l 304 1118 m 275 986 l 468 1197 l 549 1197 l 742 986 l 701 986 l 508 1065 l 315 986 l 275 986 z "},"Ể":{"ha":972,"x_min":42,"x_max":889,"o":"m 42 0 l 42 22 l 165 81 l 165 836 l 42 894 l 42 917 l 850 917 l 850 675 l 828 675 l 714 840 l 429 840 l 429 511 l 629 511 l 713 633 l 735 633 l 735 315 l 713 315 l 629 435 l 429 435 l 429 76 l 743 76 l 867 304 l 889 304 l 889 0 l 42 0 z "},"Ễ":{"ha":972,"x_min":42,"x_max":889,"o":"m 42 0 l 42 22 l 165 81 l 165 836 l 42 894 l 42 917 l 850 917 l 850 675 l 828 675 l 714 840 l 429 840 l 429 511 l 629 511 l 713 633 l 735 633 l 735 315 l 713 315 l 629 435 l 429 435 l 429 76 l 743 76 l 867 304 l 889 304 l 889 0 l 42 0 z "},"Ẻ":{"ha":972,"x_min":42,"x_max":889,"o":"m 42 0 l 42 22 l 165 81 l 165 836 l 42 894 l 42 917 l 850 917 l 850 675 l 828 675 l 714 840 l 429 840 l 429 511 l 629 511 l 713 633 l 735 633 l 735 315 l 713 315 l 629 435 l 429 435 l 429 76 l 743 76 l 867 304 l 889 304 l 889 0 l 42 0 m 438 990 l 438 992 q 500 1017 481 1006 q 519 1050 519 1029 q 498 1084 519 1071 q 424 1107 476 1097 l 446 1215 q 578 1173 540 1207 q 615 1103 615 1139 q 574 1017 615 1047 q 453 975 533 988 l 438 990 z "},"Ḕ":{"ha":972,"x_min":42,"x_max":889,"o":"m 42 0 l 42 22 l 165 81 l 165 836 l 42 894 l 42 917 l 850 917 l 850 675 l 828 675 l 714 840 l 429 840 l 429 511 l 629 511 l 713 633 l 735 633 l 735 315 l 713 315 l 629 435 l 429 435 l 429 76 l 743 76 l 867 304 l 889 304 l 889 0 l 42 0 z "},"Ḗ":{"ha":972,"x_min":42,"x_max":889,"o":"m 42 0 l 42 22 l 165 81 l 165 836 l 42 894 l 42 917 l 850 917 l 850 675 l 828 675 l 714 840 l 429 840 l 429 511 l 629 511 l 713 633 l 735 633 l 735 315 l 713 315 l 629 435 l 429 435 l 429 76 l 743 76 l 867 304 l 889 304 l 889 0 l 42 0 z "},"Ḝ":{"ha":972,"x_min":42,"x_max":889,"o":"m 508 986 q 350 1038 401 986 q 275 1197 299 1090 l 314 1197 q 393 1120 342 1136 q 508 1104 444 1104 q 623 1120 572 1104 q 703 1197 674 1136 l 742 1197 q 508 986 693 986 m 42 0 l 42 22 l 165 81 l 165 836 l 42 894 l 42 917 l 850 917 l 850 675 l 828 675 l 714 840 l 429 840 l 429 511 l 629 511 l 713 633 l 735 633 l 735 315 l 713 315 l 629 435 l 429 435 l 429 76 l 743 76 l 867 304 l 889 304 l 889 0 l 536 0 l 514 -49 q 626 -108 594 -72 q 657 -199 657 -144 q 615 -296 657 -258 q 504 -333 572 -333 q 442 -326 469 -333 q 393 -306 415 -319 l 393 -274 l 399 -274 q 435 -285 414 -282 q 472 -289 456 -289 q 529 -276 508 -289 q 550 -236 550 -264 q 524 -185 550 -207 q 415 -143 497 -162 l 481 0 l 42 0 z "},"Ĝ":{"ha":1040,"x_min":51,"x_max":1017,"o":"m 542 -14 q 353 21 442 -14 q 197 118 264 56 q 90 263 129 181 q 51 443 51 346 q 96 639 51 550 q 217 793 140 728 q 390 894 293 858 q 593 931 488 931 q 721 922 668 931 q 815 899 774 914 q 897 864 857 883 l 918 610 l 892 610 l 731 840 q 606 864 681 864 q 467 812 531 864 q 366 665 404 760 q 328 439 328 569 q 362 238 328 324 q 453 106 396 153 q 582 60 511 60 q 643 64 610 60 l 643 332 l 519 404 l 519 426 l 1017 426 l 1017 404 l 907 332 l 907 103 q 801 41 864 67 q 670 1 739 15 q 542 -14 601 -14 m 799 107 l 785 100 q 799 107 792 103 m 331 986 l 524 1197 l 604 1197 l 797 986 l 757 986 l 564 1065 l 371 986 l 331 986 z "},"Ğ":{"ha":1040,"x_min":51,"x_max":1017,"o":"m 542 -14 q 353 21 442 -14 q 197 118 264 56 q 90 263 129 181 q 51 443 51 346 q 96 639 51 550 q 217 793 140 728 q 390 894 293 858 q 593 931 488 931 q 721 922 668 931 q 815 899 774 914 q 897 864 857 883 l 918 610 l 892 610 l 731 840 q 606 864 681 864 q 467 812 531 864 q 366 665 404 760 q 328 439 328 569 q 362 238 328 324 q 453 106 396 153 q 582 60 511 60 q 643 64 610 60 l 643 332 l 519 404 l 519 426 l 1017 426 l 1017 404 l 907 332 l 907 103 q 801 41 864 67 q 670 1 739 15 q 542 -14 601 -14 m 799 107 l 785 100 q 799 107 792 103 m 564 986 q 406 1038 457 986 q 331 1197 354 1090 l 369 1197 q 449 1120 397 1136 q 564 1104 500 1104 q 678 1120 628 1104 q 758 1197 729 1136 l 797 1197 q 564 986 749 986 z "},"Ġ":{"ha":1040,"x_min":51,"x_max":1017,"o":"m 542 -14 q 353 21 442 -14 q 197 118 264 56 q 90 263 129 181 q 51 443 51 346 q 96 639 51 550 q 217 793 140 728 q 390 894 293 858 q 593 931 488 931 q 721 922 668 931 q 815 899 774 914 q 897 864 857 883 l 918 610 l 892 610 l 731 840 q 606 864 681 864 q 467 812 531 864 q 366 665 404 760 q 328 439 328 569 q 362 238 328 324 q 453 106 396 153 q 582 60 511 60 q 643 64 610 60 l 643 332 l 519 404 l 519 426 l 1017 426 l 1017 404 l 907 332 l 907 103 q 801 41 864 67 q 670 1 739 15 q 542 -14 601 -14 m 799 107 l 785 100 q 799 107 792 103 m 564 997 q 483 1029 515 997 q 451 1110 451 1061 q 483 1190 451 1158 q 564 1222 515 1222 q 644 1190 613 1222 q 676 1110 676 1158 q 644 1029 676 1061 q 564 997 613 997 z "},"Ģ":{"ha":1040,"x_min":51,"x_max":1017,"o":"m 542 -14 q 353 21 442 -14 q 197 118 264 56 q 90 263 129 181 q 51 443 51 346 q 96 639 51 550 q 217 793 140 728 q 390 894 293 858 q 593 931 488 931 q 721 922 668 931 q 815 899 774 914 q 897 864 857 883 l 918 610 l 892 610 l 731 840 q 606 864 681 864 q 467 812 531 864 q 366 665 404 760 q 328 439 328 569 q 362 238 328 324 q 453 106 396 153 q 582 60 511 60 q 643 64 610 60 l 643 332 l 519 404 l 519 426 l 1017 426 l 1017 404 l 907 332 l 907 103 q 801 41 864 67 q 670 1 739 15 q 542 -14 601 -14 m 799 107 l 785 100 q 799 107 792 103 m 608 986 q 491 1017 532 986 q 450 1100 450 1047 q 494 1185 450 1156 q 606 1215 538 1215 q 635 1214 619 1215 q 663 1210 651 1213 l 663 1181 q 639 1184 651 1183 q 619 1185 626 1185 q 558 1143 558 1185 q 584 1106 558 1117 q 664 1096 610 1096 l 664 1015 q 652 994 664 1003 q 608 986 640 986 z "},"Ǧ":{"ha":1040,"x_min":51,"x_max":1017,"o":"m 542 -14 q 353 21 442 -14 q 197 118 264 56 q 90 263 129 181 q 51 443 51 346 q 96 639 51 550 q 217 793 140 728 q 390 894 293 858 q 593 931 488 931 q 721 922 668 931 q 815 899 774 914 q 897 864 857 883 l 918 610 l 892 610 l 731 840 q 606 864 681 864 q 467 812 531 864 q 366 665 404 760 q 328 439 328 569 q 362 238 328 324 q 453 106 396 153 q 582 60 511 60 q 643 64 610 60 l 643 332 l 519 404 l 519 426 l 1017 426 l 1017 404 l 907 332 l 907 103 q 801 41 864 67 q 670 1 739 15 q 542 -14 601 -14 m 799 107 l 785 100 q 799 107 792 103 m 524 986 l 331 1197 l 371 1197 l 564 1118 l 757 1197 l 797 1197 l 604 986 l 524 986 z "},"Ḡ":{"ha":1040,"x_min":51,"x_max":1017,"o":"m 542 -14 q 353 21 442 -14 q 197 118 264 56 q 90 263 129 181 q 51 443 51 346 q 96 639 51 550 q 217 793 140 728 q 390 894 293 858 q 593 931 488 931 q 721 922 668 931 q 815 899 774 914 q 897 864 857 883 l 918 610 l 892 610 l 731 840 q 606 864 681 864 q 467 812 531 864 q 366 665 404 760 q 328 439 328 569 q 362 238 328 324 q 453 106 396 153 q 582 60 511 60 q 643 64 610 60 l 643 332 l 519 404 l 519 426 l 1017 426 l 1017 404 l 907 332 l 907 103 q 801 41 864 67 q 670 1 739 15 q 542 -14 601 -14 m 799 107 l 785 100 q 799 107 792 103 m 351 1044 l 351 1136 l 776 1136 l 776 1044 l 351 1044 z "},"Ĥ":{"ha":1183,"x_min":42,"x_max":1142,"o":"m 42 0 l 42 22 l 165 81 l 165 836 l 42 894 l 42 917 l 536 917 l 536 894 l 429 836 l 429 510 l 757 510 l 757 836 l 647 894 l 647 917 l 1142 917 l 1142 894 l 1021 836 l 1021 81 l 1142 22 l 1142 0 l 647 0 l 647 22 l 757 81 l 757 433 l 429 433 l 429 81 l 536 22 l 536 0 l 42 0 m 358 986 l 551 1197 l 632 1197 l 825 986 l 785 986 l 592 1065 l 399 986 l 358 986 z "},"Ħ":{"ha":1183,"x_min":42,"x_max":1142,"o":"m 42 0 l 42 22 l 165 81 l 165 651 l 42 651 l 42 728 l 165 728 l 165 836 l 42 894 l 42 917 l 536 917 l 536 894 l 429 836 l 429 728 l 757 728 l 757 836 l 647 894 l 647 917 l 1142 917 l 1142 894 l 1021 836 l 1021 728 l 1142 728 l 1142 651 l 1021 651 l 1021 81 l 1142 22 l 1142 0 l 647 0 l 647 22 l 757 81 l 757 433 l 429 433 l 429 81 l 536 22 l 536 0 l 42 0 m 429 510 l 757 510 l 757 651 l 429 651 l 429 510 z "},"Ḥ":{"ha":1183,"x_min":42,"x_max":1142,"o":"m 42 0 l 42 22 l 165 81 l 165 836 l 42 894 l 42 917 l 536 917 l 536 894 l 429 836 l 429 510 l 757 510 l 757 836 l 647 894 l 647 917 l 1142 917 l 1142 894 l 1021 836 l 1021 81 l 1142 22 l 1142 0 l 647 0 l 647 22 l 757 81 l 757 433 l 429 433 l 429 81 l 536 22 l 536 0 l 42 0 z "},"Ḫ":{"ha":1183,"x_min":42,"x_max":1142,"o":"m 42 0 l 42 22 l 165 81 l 165 836 l 42 894 l 42 917 l 536 917 l 536 894 l 429 836 l 429 510 l 757 510 l 757 836 l 647 894 l 647 917 l 1142 917 l 1142 894 l 1021 836 l 1021 81 l 1142 22 l 1142 0 l 647 0 l 647 22 l 757 81 l 757 433 l 429 433 l 429 81 l 536 22 l 536 0 l 42 0 z "},"Ì":{"ha":594,"x_min":28,"x_max":553,"o":"m 42 0 l 42 22 l 165 81 l 165 836 l 42 894 l 42 917 l 553 917 l 553 894 l 429 836 l 429 81 l 553 22 l 553 0 l 42 0 m 276 986 l 89 1096 q 40 1143 53 1118 q 28 1197 28 1168 l 206 1197 l 317 986 l 276 986 z "},"Í":{"ha":594,"x_min":42,"x_max":565,"o":"m 42 0 l 42 22 l 165 81 l 165 836 l 42 894 l 42 917 l 553 917 l 553 894 l 429 836 l 429 81 l 553 22 l 553 0 l 42 0 m 276 986 l 388 1197 l 565 1197 q 553 1142 565 1168 q 504 1096 540 1117 l 317 986 l 276 986 z "},"Î":{"ha":594,"x_min":42,"x_max":553,"o":"m 42 0 l 42 22 l 165 81 l 165 836 l 42 894 l 42 917 l 553 917 l 553 894 l 429 836 l 429 81 l 553 22 l 553 0 l 42 0 m 64 986 l 257 1197 l 338 1197 l 531 986 l 490 986 l 297 1065 l 104 986 l 64 986 z "},"Ĩ":{"ha":594,"x_min":42,"x_max":553,"o":"m 42 0 l 42 22 l 165 81 l 165 836 l 42 894 l 42 917 l 553 917 l 553 894 l 429 836 l 429 81 l 553 22 l 553 0 l 42 0 m 57 999 q 126 1145 90 1106 q 210 1185 163 1185 q 290 1166 253 1185 q 361 1128 328 1147 q 425 1110 394 1110 q 463 1123 446 1110 q 499 1185 479 1136 l 538 1185 q 468 1038 504 1078 q 385 999 432 999 q 304 1017 342 999 q 233 1055 267 1036 q 169 1074 200 1074 q 132 1060 149 1074 q 96 999 115 1047 l 57 999 z "},"Ï":{"ha":594,"x_min":42,"x_max":553,"o":"m 42 0 l 42 22 l 165 81 l 165 836 l 42 894 l 42 917 l 553 917 l 553 894 l 429 836 l 429 81 l 553 22 l 553 0 l 42 0 m 154 1001 q 90 1028 115 1001 q 65 1090 65 1054 q 90 1153 65 1126 q 154 1179 115 1179 q 218 1153 193 1179 q 243 1090 243 1126 q 218 1028 243 1054 q 154 1001 193 1001 m 442 1001 q 377 1028 401 1001 q 353 1090 353 1054 q 377 1153 353 1126 q 442 1179 401 1179 q 506 1153 482 1179 q 531 1090 531 1126 q 506 1028 531 1054 q 442 1001 482 1001 z "},"Ī":{"ha":594,"x_min":42,"x_max":553,"o":"m 42 0 l 42 22 l 165 81 l 165 836 l 42 894 l 42 917 l 553 917 l 553 894 l 429 836 l 429 81 l 553 22 l 553 0 l 42 0 m 85 1044 l 85 1136 l 510 1136 l 510 1044 l 85 1044 z "},"Ĭ":{"ha":594,"x_min":42,"x_max":553,"o":"m 42 0 l 42 22 l 165 81 l 165 836 l 42 894 l 42 917 l 553 917 l 553 894 l 429 836 l 429 81 l 553 22 l 553 0 l 42 0 m 297 986 q 139 1038 190 986 q 64 1197 88 1090 l 103 1197 q 182 1120 131 1136 q 297 1104 233 1104 q 412 1120 361 1104 q 492 1197 463 1136 l 531 1197 q 297 986 482 986 z "},"İ":{"ha":594,"x_min":42,"x_max":553,"o":"m 42 0 l 42 22 l 165 81 l 165 836 l 42 894 l 42 917 l 553 917 l 553 894 l 429 836 l 429 81 l 553 22 l 553 0 l 42 0 m 297 997 q 217 1029 249 997 q 185 1110 185 1061 q 217 1190 185 1158 q 297 1222 249 1222 q 378 1190 346 1222 q 410 1110 410 1158 q 378 1029 410 1061 q 297 997 346 997 z "},"Į":{"ha":594,"x_min":42,"x_max":553,"o":"m 42 0 l 42 22 l 165 81 l 165 836 l 42 894 l 42 917 l 553 917 l 553 894 l 429 836 l 429 81 l 553 22 l 553 0 l 340 0 q 303 -87 317 -44 q 290 -174 290 -131 q 364 -254 290 -254 q 399 -248 381 -254 q 428 -229 417 -242 l 433 -229 l 433 -261 q 304 -333 399 -333 q 201 -299 239 -333 q 164 -206 164 -264 q 195 -106 164 -157 q 282 0 226 -56 l 42 0 z "},"Ị":{"ha":594,"x_min":42,"x_max":553,"o":"m 42 0 l 42 22 l 165 81 l 165 836 l 42 894 l 42 917 l 553 917 l 553 894 l 429 836 l 429 81 l 553 22 l 553 0 l 42 0 z "},"Ȉ":{"ha":594,"x_min":-19,"x_max":553,"o":"m 42 0 l 42 22 l 165 81 l 165 836 l 42 894 l 42 917 l 553 917 l 553 894 l 429 836 l 429 81 l 553 22 l 553 0 l 42 0 m 171 986 l 8 1110 q -17 1153 -19 1131 q -8 1197 -15 1176 l 122 1197 l 211 986 l 171 986 m 382 986 l 244 1110 q 221 1154 221 1132 q 228 1197 221 1176 l 358 1197 l 422 986 l 382 986 z "},"Ȋ":{"ha":594,"x_min":42,"x_max":553,"o":"m 42 0 l 42 22 l 165 81 l 165 836 l 42 894 l 42 917 l 553 917 l 553 894 l 429 836 l 429 81 l 553 22 l 553 0 l 42 0 m 64 986 q 297 1197 113 1197 q 456 1145 404 1197 q 531 986 507 1093 l 492 986 q 413 1063 464 1047 q 297 1079 361 1079 q 183 1063 233 1079 q 103 986 132 1047 l 64 986 z "},"Ỉ":{"ha":594,"x_min":42,"x_max":553,"o":"m 42 0 l 42 22 l 165 81 l 165 836 l 42 894 l 42 917 l 553 917 l 553 894 l 429 836 l 429 81 l 553 22 l 553 0 l 42 0 m 226 990 l 226 992 q 289 1017 269 1006 q 308 1050 308 1029 q 287 1084 308 1071 q 213 1107 265 1097 l 235 1215 q 367 1173 329 1207 q 404 1103 404 1139 q 363 1017 404 1047 q 242 975 322 988 l 226 990 z "},"Ḯ":{"ha":594,"x_min":42,"x_max":565,"o":"m 42 0 l 42 22 l 165 81 l 165 836 l 42 894 l 42 917 l 553 917 l 553 894 l 429 836 l 429 81 l 553 22 l 553 0 l 42 0 z "},"Ĳ":{"ha":1232,"x_min":42,"x_max":1190,"o":"m 42 0 l 42 22 l 165 81 l 165 836 l 42 894 l 42 917 l 553 917 l 553 894 l 429 836 l 429 81 l 553 22 l 553 0 l 42 0 m 686 -240 q 643 -200 643 -240 q 649 -147 643 -181 q 664 -78 656 -114 l 678 -78 q 706 -85 696 -83 q 731 -87 717 -87 q 769 -77 753 -87 q 794 -33 785 -67 q 803 68 803 0 l 803 836 l 679 894 l 679 917 l 1190 917 l 1190 894 l 1067 836 l 1067 346 q 1046 192 1067 264 q 993 62 1025 121 q 928 -42 961 3 q 871 -115 894 -86 q 781 -202 829 -164 q 686 -240 733 -240 z "},"Ĵ":{"ha":638,"x_min":49,"x_max":596,"o":"m 92 -240 q 49 -200 49 -240 q 55 -147 49 -181 q 69 -78 61 -114 l 83 -78 q 112 -85 101 -83 q 136 -87 122 -87 q 174 -77 158 -87 q 199 -33 190 -67 q 208 68 208 0 l 208 836 l 85 894 l 85 917 l 596 917 l 596 894 l 472 836 l 472 346 q 451 192 472 264 q 399 62 431 121 q 333 -42 367 3 q 276 -115 300 -86 q 187 -202 235 -164 q 92 -240 139 -240 m 107 986 l 300 1197 l 381 1197 l 574 986 l 533 986 l 340 1065 l 147 986 l 107 986 z "},"Ķ":{"ha":1125,"x_min":42,"x_max":1119,"o":"m 42 0 l 42 22 l 165 81 l 165 836 l 42 894 l 42 917 l 553 917 l 553 894 l 429 836 l 429 81 l 553 22 l 553 0 l 42 0 m 429 458 l 808 842 l 701 894 l 701 917 l 1051 917 l 1051 894 l 956 851 l 663 574 l 1014 65 l 1119 22 l 1119 0 l 740 0 l 429 458 m 578 -332 q 548 -331 564 -332 q 521 -326 532 -329 l 521 -297 q 544 -301 532 -300 q 564 -301 557 -301 q 625 -260 625 -301 q 599 -223 625 -233 q 519 -212 574 -212 l 519 -132 q 531 -111 519 -119 q 575 -103 543 -103 q 692 -133 651 -103 q 733 -217 733 -164 q 690 -302 733 -272 q 578 -332 646 -332 z "},"Ĺ":{"ha":917,"x_min":42,"x_max":861,"o":"m 42 0 l 42 22 l 165 81 l 165 836 l 42 894 l 42 917 l 567 917 l 567 894 l 429 836 l 429 76 l 714 76 l 839 360 l 861 360 l 861 0 l 42 0 m 276 986 l 388 1197 l 565 1197 q 553 1142 565 1168 q 504 1096 540 1117 l 317 986 l 276 986 z "},"Ľ":{"ha":917,"x_min":42,"x_max":861,"o":"m 42 0 l 42 22 l 165 81 l 165 836 l 42 894 l 42 917 l 567 917 l 567 894 l 429 836 l 429 76 l 714 76 l 839 360 l 861 360 l 861 0 l 42 0 m 624 657 l 643 917 l 801 917 q 806 875 806 897 q 786 826 806 853 l 664 657 l 624 657 z "},"Ļ":{"ha":917,"x_min":42,"x_max":861,"o":"m 42 0 l 42 22 l 165 81 l 165 836 l 42 894 l 42 917 l 567 917 l 567 894 l 429 836 l 429 76 l 714 76 l 839 360 l 861 360 l 861 0 l 42 0 m 453 -332 q 423 -331 439 -332 q 396 -326 407 -329 l 396 -297 q 419 -301 407 -300 q 439 -301 432 -301 q 500 -260 500 -301 q 474 -223 500 -233 q 394 -212 449 -212 l 394 -132 q 406 -111 394 -119 q 450 -103 418 -103 q 567 -133 526 -103 q 608 -217 608 -164 q 565 -302 608 -272 q 453 -332 521 -332 z "},"Ł":{"ha":917,"x_min":42,"x_max":861,"o":"m 42 0 l 42 22 l 165 81 l 165 275 l 42 186 l 42 282 l 165 371 l 165 836 l 42 894 l 42 917 l 567 917 l 567 894 l 429 836 l 429 522 l 621 653 l 621 557 l 429 425 l 429 76 l 714 76 l 839 360 l 861 360 l 861 0 l 42 0 z "},"Ŀ":{"ha":917,"x_min":42,"x_max":863,"o":"m 42 0 l 42 22 l 165 81 l 165 836 l 42 894 l 42 917 l 567 917 l 567 894 l 429 836 l 429 76 l 714 76 l 839 360 l 861 360 l 861 0 l 42 0 m 750 381 q 669 413 701 381 q 638 493 638 444 q 669 574 638 542 q 750 606 701 606 q 831 574 799 606 q 863 493 863 542 q 831 413 863 444 q 750 381 799 381 z "},"Ḷ":{"ha":917,"x_min":42,"x_max":861,"o":"m 42 0 l 42 22 l 165 81 l 165 836 l 42 894 l 42 917 l 567 917 l 567 894 l 429 836 l 429 76 l 714 76 l 839 360 l 861 360 l 861 0 l 42 0 z "},"Ḻ":{"ha":917,"x_min":42,"x_max":861,"o":"m 42 0 l 42 22 l 165 81 l 165 836 l 42 894 l 42 917 l 567 917 l 567 894 l 429 836 l 429 76 l 714 76 l 839 360 l 861 360 l 861 0 l 42 0 z "},"Ṃ":{"ha":1415,"x_min":42,"x_max":1374,"o":"m 42 0 l 42 22 l 165 81 l 194 838 l 71 894 l 71 917 l 471 917 l 725 329 l 972 917 l 1363 917 l 1363 894 l 1239 856 l 1263 81 l 1374 22 l 1374 0 l 888 0 l 888 22 l 1004 79 l 992 719 l 685 -7 l 596 -7 l 282 724 l 264 79 l 390 22 l 390 0 l 42 0 z "},"Ń":{"ha":1149,"x_min":42,"x_max":1107,"o":"m 42 0 l 42 22 l 165 81 l 165 836 l 42 894 l 42 917 l 343 917 l 889 344 l 889 836 l 718 894 l 718 917 l 1107 917 l 1107 894 l 986 836 l 986 -7 l 876 -7 l 263 629 l 263 81 l 433 22 l 433 0 l 42 0 m 556 986 l 667 1197 l 844 1197 q 832 1142 844 1168 q 783 1096 819 1117 l 596 986 l 556 986 z "},"Ň":{"ha":1149,"x_min":42,"x_max":1107,"o":"m 42 0 l 42 22 l 165 81 l 165 836 l 42 894 l 42 917 l 343 917 l 889 344 l 889 836 l 718 894 l 718 917 l 1107 917 l 1107 894 l 986 836 l 986 -7 l 876 -7 l 263 629 l 263 81 l 433 22 l 433 0 l 42 0 m 536 986 l 343 1197 l 383 1197 l 576 1118 l 769 1197 l 810 1197 l 617 986 l 536 986 z "},"Ñ":{"ha":1149,"x_min":42,"x_max":1107,"o":"m 42 0 l 42 22 l 165 81 l 165 836 l 42 894 l 42 917 l 343 917 l 889 344 l 889 836 l 718 894 l 718 917 l 1107 917 l 1107 894 l 986 836 l 986 -7 l 876 -7 l 263 629 l 263 81 l 433 22 l 433 0 l 42 0 m 336 999 q 406 1145 369 1106 q 489 1185 442 1185 q 569 1166 532 1185 q 640 1128 607 1147 q 704 1110 674 1110 q 742 1123 725 1110 q 778 1185 758 1136 l 817 1185 q 747 1038 783 1078 q 664 999 711 999 q 583 1017 621 999 q 513 1055 546 1036 q 449 1074 479 1074 q 411 1060 428 1074 q 375 999 394 1047 l 336 999 z "},"Ņ":{"ha":1149,"x_min":42,"x_max":1107,"o":"m 42 0 l 42 22 l 165 81 l 165 836 l 42 894 l 42 917 l 343 917 l 889 344 l 889 836 l 718 894 l 718 917 l 1107 917 l 1107 894 l 986 836 l 986 -7 l 876 -7 l 263 629 l 263 81 l 433 22 l 433 0 l 42 0 m 525 -332 q 495 -331 511 -332 q 468 -326 479 -329 l 468 -297 q 492 -301 479 -300 q 511 -301 504 -301 q 572 -260 572 -301 q 547 -223 572 -233 q 467 -212 521 -212 l 467 -132 q 478 -111 467 -119 q 522 -103 490 -103 q 640 -133 599 -103 q 681 -217 681 -164 q 637 -302 681 -272 q 525 -332 593 -332 z "},"Ṅ":{"ha":1149,"x_min":42,"x_max":1107,"o":"m 42 0 l 42 22 l 165 81 l 165 836 l 42 894 l 42 917 l 343 917 l 889 344 l 889 836 l 718 894 l 718 917 l 1107 917 l 1107 894 l 986 836 l 986 -7 l 876 -7 l 263 629 l 263 81 l 433 22 l 433 0 l 42 0 m 576 997 q 496 1029 528 997 q 464 1110 464 1061 q 496 1190 464 1158 q 576 1222 528 1222 q 657 1190 625 1222 q 689 1110 689 1158 q 657 1029 689 1061 q 576 997 625 997 z "},"Ṇ":{"ha":1149,"x_min":42,"x_max":1107,"o":"m 42 0 l 42 22 l 165 81 l 165 836 l 42 894 l 42 917 l 343 917 l 889 344 l 889 836 l 718 894 l 718 917 l 1107 917 l 1107 894 l 986 836 l 986 -7 l 876 -7 l 263 629 l 263 81 l 433 22 l 433 0 l 42 0 z "},"Ṉ":{"ha":1149,"x_min":42,"x_max":1107,"o":"m 42 0 l 42 22 l 165 81 l 165 836 l 42 894 l 42 917 l 343 917 l 889 344 l 889 836 l 718 894 l 718 917 l 1107 917 l 1107 894 l 986 836 l 986 -7 l 876 -7 l 263 629 l 263 81 l 433 22 l 433 0 l 42 0 z "},"Ò":{"ha":1079,"x_min":49,"x_max":1031,"o":"m 539 -14 q 344 22 433 -14 q 189 120 256 57 q 85 269 122 183 q 49 458 49 356 q 85 647 49 561 q 189 797 122 733 q 344 895 256 860 q 539 931 433 931 q 734 895 644 931 q 890 797 824 860 q 994 647 957 733 q 1031 458 1031 561 q 994 269 1031 356 q 890 120 957 183 q 734 22 824 57 q 539 -14 644 -14 m 557 60 q 659 104 615 60 q 728 228 703 149 q 753 418 753 308 q 722 650 753 551 q 640 803 692 749 q 524 858 589 858 q 422 815 467 858 q 352 691 378 771 q 326 501 326 611 q 358 269 326 368 q 441 115 389 169 q 557 60 493 60 m 519 986 l 332 1096 q 283 1143 296 1118 q 271 1197 271 1168 l 449 1197 l 560 986 l 519 986 z "},"Ó":{"ha":1079,"x_min":49,"x_max":1031,"o":"m 539 -14 q 344 22 433 -14 q 189 120 256 57 q 85 269 122 183 q 49 458 49 356 q 85 647 49 561 q 189 797 122 733 q 344 895 256 860 q 539 931 433 931 q 734 895 644 931 q 890 797 824 860 q 994 647 957 733 q 1031 458 1031 561 q 994 269 1031 356 q 890 120 957 183 q 734 22 824 57 q 539 -14 644 -14 m 557 60 q 659 104 615 60 q 728 228 703 149 q 753 418 753 308 q 722 650 753 551 q 640 803 692 749 q 524 858 589 858 q 422 815 467 858 q 352 691 378 771 q 326 501 326 611 q 358 269 326 368 q 441 115 389 169 q 557 60 493 60 m 519 986 l 631 1197 l 808 1197 q 796 1142 808 1168 q 747 1096 783 1117 l 560 986 l 519 986 z "},"Ô":{"ha":1079,"x_min":49,"x_max":1031,"o":"m 539 -14 q 344 22 433 -14 q 189 120 256 57 q 85 269 122 183 q 49 458 49 356 q 85 647 49 561 q 189 797 122 733 q 344 895 256 860 q 539 931 433 931 q 734 895 644 931 q 890 797 824 860 q 994 647 957 733 q 1031 458 1031 561 q 994 269 1031 356 q 890 120 957 183 q 734 22 824 57 q 539 -14 644 -14 m 557 60 q 659 104 615 60 q 728 228 703 149 q 753 418 753 308 q 722 650 753 551 q 640 803 692 749 q 524 858 589 858 q 422 815 467 858 q 352 691 378 771 q 326 501 326 611 q 358 269 326 368 q 441 115 389 169 q 557 60 493 60 m 307 986 l 500 1197 l 581 1197 l 774 986 l 733 986 l 540 1065 l 347 986 l 307 986 z "},"Õ":{"ha":1079,"x_min":49,"x_max":1031,"o":"m 539 -14 q 344 22 433 -14 q 189 120 256 57 q 85 269 122 183 q 49 458 49 356 q 85 647 49 561 q 189 797 122 733 q 344 895 256 860 q 539 931 433 931 q 734 895 644 931 q 890 797 824 860 q 994 647 957 733 q 1031 458 1031 561 q 994 269 1031 356 q 890 120 957 183 q 734 22 824 57 q 539 -14 644 -14 m 557 60 q 659 104 615 60 q 728 228 703 149 q 753 418 753 308 q 722 650 753 551 q 640 803 692 749 q 524 858 589 858 q 422 815 467 858 q 352 691 378 771 q 326 501 326 611 q 358 269 326 368 q 441 115 389 169 q 557 60 493 60 m 300 999 q 369 1145 333 1106 q 453 1185 406 1185 q 533 1166 496 1185 q 604 1128 571 1147 q 668 1110 638 1110 q 706 1123 689 1110 q 742 1185 722 1136 l 781 1185 q 711 1038 747 1078 q 628 999 675 999 q 547 1017 585 999 q 476 1055 510 1036 q 413 1074 443 1074 q 375 1060 392 1074 q 339 999 358 1047 l 300 999 z "},"Ö":{"ha":1079,"x_min":49,"x_max":1031,"o":"m 539 -14 q 344 22 433 -14 q 189 120 256 57 q 85 269 122 183 q 49 458 49 356 q 85 647 49 561 q 189 797 122 733 q 344 895 256 860 q 539 931 433 931 q 734 895 644 931 q 890 797 824 860 q 994 647 957 733 q 1031 458 1031 561 q 994 269 1031 356 q 890 120 957 183 q 734 22 824 57 q 539 -14 644 -14 m 557 60 q 659 104 615 60 q 728 228 703 149 q 753 418 753 308 q 722 650 753 551 q 640 803 692 749 q 524 858 589 858 q 422 815 467 858 q 352 691 378 771 q 326 501 326 611 q 358 269 326 368 q 441 115 389 169 q 557 60 493 60 m 397 1001 q 333 1028 358 1001 q 308 1090 308 1054 q 333 1153 308 1126 q 397 1179 358 1179 q 461 1153 436 1179 q 486 1090 486 1126 q 461 1028 486 1054 q 397 1001 436 1001 m 685 1001 q 620 1028 644 1001 q 596 1090 596 1054 q 620 1153 596 1126 q 685 1179 644 1179 q 749 1153 725 1179 q 774 1090 774 1126 q 749 1028 774 1054 q 685 1001 725 1001 z "},"Ō":{"ha":1079,"x_min":49,"x_max":1031,"o":"m 539 -14 q 344 22 433 -14 q 189 120 256 57 q 85 269 122 183 q 49 458 49 356 q 85 647 49 561 q 189 797 122 733 q 344 895 256 860 q 539 931 433 931 q 734 895 644 931 q 890 797 824 860 q 994 647 957 733 q 1031 458 1031 561 q 994 269 1031 356 q 890 120 957 183 q 734 22 824 57 q 539 -14 644 -14 m 557 60 q 659 104 615 60 q 728 228 703 149 q 753 418 753 308 q 722 650 753 551 q 640 803 692 749 q 524 858 589 858 q 422 815 467 858 q 352 691 378 771 q 326 501 326 611 q 358 269 326 368 q 441 115 389 169 q 557 60 493 60 m 328 1044 l 328 1136 l 753 1136 l 753 1044 l 328 1044 z "},"Ŏ":{"ha":1079,"x_min":49,"x_max":1031,"o":"m 539 -14 q 344 22 433 -14 q 189 120 256 57 q 85 269 122 183 q 49 458 49 356 q 85 647 49 561 q 189 797 122 733 q 344 895 256 860 q 539 931 433 931 q 734 895 644 931 q 890 797 824 860 q 994 647 957 733 q 1031 458 1031 561 q 994 269 1031 356 q 890 120 957 183 q 734 22 824 57 q 539 -14 644 -14 m 557 60 q 659 104 615 60 q 728 228 703 149 q 753 418 753 308 q 722 650 753 551 q 640 803 692 749 q 524 858 589 858 q 422 815 467 858 q 352 691 378 771 q 326 501 326 611 q 358 269 326 368 q 441 115 389 169 q 557 60 493 60 m 540 986 q 382 1038 433 986 q 307 1197 331 1090 l 346 1197 q 425 1120 374 1136 q 540 1104 476 1104 q 655 1120 604 1104 q 735 1197 706 1136 l 774 1197 q 540 986 725 986 z "},"Ő":{"ha":1079,"x_min":49,"x_max":1031,"o":"m 539 -14 q 344 22 433 -14 q 189 120 256 57 q 85 269 122 183 q 49 458 49 356 q 85 647 49 561 q 189 797 122 733 q 344 895 256 860 q 539 931 433 931 q 734 895 644 931 q 890 797 824 860 q 994 647 957 733 q 1031 458 1031 561 q 994 269 1031 356 q 890 120 957 183 q 734 22 824 57 q 539 -14 644 -14 m 557 60 q 659 104 615 60 q 728 228 703 149 q 753 418 753 308 q 722 650 753 551 q 640 803 692 749 q 524 858 589 858 q 422 815 467 858 q 352 691 378 771 q 326 501 326 611 q 358 269 326 368 q 441 115 389 169 q 557 60 493 60 m 414 986 l 471 1197 l 601 1197 q 608 1154 608 1176 q 585 1110 608 1132 l 454 986 l 414 986 m 625 986 l 710 1197 l 840 1197 q 849 1153 847 1176 q 824 1110 851 1131 l 665 986 l 625 986 z "},"Ọ":{"ha":1079,"x_min":49,"x_max":1031,"o":"m 539 -14 q 344 22 433 -14 q 189 120 256 57 q 85 269 122 183 q 49 458 49 356 q 85 647 49 561 q 189 797 122 733 q 344 895 256 860 q 539 931 433 931 q 734 895 644 931 q 890 797 824 860 q 994 647 957 733 q 1031 458 1031 561 q 994 269 1031 356 q 890 120 957 183 q 734 22 824 57 q 539 -14 644 -14 m 557 60 q 659 104 615 60 q 728 228 703 149 q 753 418 753 308 q 722 650 753 551 q 640 803 692 749 q 524 858 589 858 q 422 815 467 858 q 352 691 378 771 q 326 501 326 611 q 358 269 326 368 q 441 115 389 169 q 557 60 493 60 z "},"Ǫ":{"ha":1079,"x_min":49,"x_max":1031,"o":"m 557 -333 q 454 -299 492 -333 q 417 -206 417 -264 q 444 -112 417 -160 q 521 -14 472 -65 q 279 53 386 -10 q 110 220 172 115 q 49 458 49 325 q 85 647 49 561 q 189 797 122 733 q 344 895 256 860 q 539 931 433 931 q 734 895 644 931 q 890 797 824 860 q 994 647 957 733 q 1031 458 1031 561 q 973 228 1031 331 q 815 62 915 125 q 586 -12 715 -1 q 555 -93 567 -53 q 543 -174 543 -133 q 617 -254 543 -254 q 651 -248 633 -254 q 681 -229 669 -242 l 686 -229 l 686 -261 q 557 -333 651 -333 m 557 60 q 659 104 615 60 q 728 228 703 149 q 753 418 753 308 q 722 650 753 551 q 640 803 692 749 q 524 858 589 858 q 422 815 467 858 q 352 691 378 771 q 326 501 326 611 q 358 269 326 368 q 441 115 389 169 q 557 60 493 60 z "},"Ȍ":{"ha":1079,"x_min":49,"x_max":1031,"o":"m 539 -14 q 344 22 433 -14 q 189 120 256 57 q 85 269 122 183 q 49 458 49 356 q 85 647 49 561 q 189 797 122 733 q 344 895 256 860 q 539 931 433 931 q 734 895 644 931 q 890 797 824 860 q 994 647 957 733 q 1031 458 1031 561 q 994 269 1031 356 q 890 120 957 183 q 734 22 824 57 q 539 -14 644 -14 m 557 60 q 659 104 615 60 q 728 228 703 149 q 753 418 753 308 q 722 650 753 551 q 640 803 692 749 q 524 858 589 858 q 422 815 467 858 q 352 691 378 771 q 326 501 326 611 q 358 269 326 368 q 441 115 389 169 q 557 60 493 60 m 414 986 l 251 1110 q 226 1153 224 1131 q 235 1197 228 1176 l 365 1197 l 454 986 l 414 986 m 625 986 l 488 1110 q 464 1154 464 1132 q 471 1197 464 1176 l 601 1197 l 665 986 l 625 986 z "},"Ȏ":{"ha":1079,"x_min":49,"x_max":1031,"o":"m 539 -14 q 344 22 433 -14 q 189 120 256 57 q 85 269 122 183 q 49 458 49 356 q 85 647 49 561 q 189 797 122 733 q 344 895 256 860 q 539 931 433 931 q 734 895 644 931 q 890 797 824 860 q 994 647 957 733 q 1031 458 1031 561 q 994 269 1031 356 q 890 120 957 183 q 734 22 824 57 q 539 -14 644 -14 m 557 60 q 659 104 615 60 q 728 228 703 149 q 753 418 753 308 q 722 650 753 551 q 640 803 692 749 q 524 858 589 858 q 422 815 467 858 q 352 691 378 771 q 326 501 326 611 q 358 269 326 368 q 441 115 389 169 q 557 60 493 60 m 307 986 q 540 1197 356 1197 q 699 1145 647 1197 q 774 986 750 1093 l 735 986 q 656 1063 707 1047 q 540 1079 604 1079 q 426 1063 476 1079 q 346 986 375 1047 l 307 986 z "},"Ȫ":{"ha":1079,"x_min":49,"x_max":1031,"o":"m 539 -14 q 344 22 433 -14 q 189 120 256 57 q 85 269 122 183 q 49 458 49 356 q 85 647 49 561 q 189 797 122 733 q 344 895 256 860 q 539 931 433 931 q 734 895 644 931 q 890 797 824 860 q 994 647 957 733 q 1031 458 1031 561 q 994 269 1031 356 q 890 120 957 183 q 734 22 824 57 q 539 -14 644 -14 m 557 60 q 659 104 615 60 q 728 228 703 149 q 753 418 753 308 q 722 650 753 551 q 640 803 692 749 q 524 858 589 858 q 422 815 467 858 q 352 691 378 771 q 326 501 326 611 q 358 269 326 368 q 441 115 389 169 q 557 60 493 60 z "},"Ȭ":{"ha":1079,"x_min":49,"x_max":1031,"o":"m 539 -14 q 344 22 433 -14 q 189 120 256 57 q 85 269 122 183 q 49 458 49 356 q 85 647 49 561 q 189 797 122 733 q 344 895 256 860 q 539 931 433 931 q 734 895 644 931 q 890 797 824 860 q 994 647 957 733 q 1031 458 1031 561 q 994 269 1031 356 q 890 120 957 183 q 734 22 824 57 q 539 -14 644 -14 m 557 60 q 659 104 615 60 q 728 228 703 149 q 753 418 753 308 q 722 650 753 551 q 640 803 692 749 q 524 858 589 858 q 422 815 467 858 q 352 691 378 771 q 326 501 326 611 q 358 269 326 368 q 441 115 389 169 q 557 60 493 60 z "},"Ȱ":{"ha":1079,"x_min":49,"x_max":1031,"o":"m 539 -14 q 344 22 433 -14 q 189 120 256 57 q 85 269 122 183 q 49 458 49 356 q 85 647 49 561 q 189 797 122 733 q 344 895 256 860 q 539 931 433 931 q 734 895 644 931 q 890 797 824 860 q 994 647 957 733 q 1031 458 1031 561 q 994 269 1031 356 q 890 120 957 183 q 734 22 824 57 q 539 -14 644 -14 m 557 60 q 659 104 615 60 q 728 228 703 149 q 753 418 753 308 q 722 650 753 551 q 640 803 692 749 q 524 858 589 858 q 422 815 467 858 q 352 691 378 771 q 326 501 326 611 q 358 269 326 368 q 441 115 389 169 q 557 60 493 60 z "},"Ố":{"ha":1079,"x_min":49,"x_max":1031,"o":"m 539 -14 q 344 22 433 -14 q 189 120 256 57 q 85 269 122 183 q 49 458 49 356 q 85 647 49 561 q 189 797 122 733 q 344 895 256 860 q 539 931 433 931 q 734 895 644 931 q 890 797 824 860 q 994 647 957 733 q 1031 458 1031 561 q 994 269 1031 356 q 890 120 957 183 q 734 22 824 57 q 539 -14 644 -14 m 557 60 q 659 104 615 60 q 728 228 703 149 q 753 418 753 308 q 722 650 753 551 q 640 803 692 749 q 524 858 589 858 q 422 815 467 858 q 352 691 378 771 q 326 501 326 611 q 358 269 326 368 q 441 115 389 169 q 557 60 493 60 m 704 1118 l 763 1317 l 925 1317 q 910 1264 925 1288 q 864 1215 896 1240 l 744 1118 l 704 1118 m 307 986 l 500 1197 l 581 1197 l 774 986 l 733 986 l 540 1065 l 347 986 l 307 986 z "},"Ộ":{"ha":1079,"x_min":49,"x_max":1031,"o":"m 539 -14 q 344 22 433 -14 q 189 120 256 57 q 85 269 122 183 q 49 458 49 356 q 85 647 49 561 q 189 797 122 733 q 344 895 256 860 q 539 931 433 931 q 734 895 644 931 q 890 797 824 860 q 994 647 957 733 q 1031 458 1031 561 q 994 269 1031 356 q 890 120 957 183 q 734 22 824 57 q 539 -14 644 -14 m 557 60 q 659 104 615 60 q 728 228 703 149 q 753 418 753 308 q 722 650 753 551 q 640 803 692 749 q 524 858 589 858 q 422 815 467 858 q 352 691 378 771 q 326 501 326 611 q 358 269 326 368 q 441 115 389 169 q 557 60 493 60 m 307 986 l 500 1197 l 581 1197 l 774 986 l 733 986 l 540 1065 l 347 986 l 307 986 z "},"Ồ":{"ha":1079,"x_min":49,"x_max":1031,"o":"m 539 -14 q 344 22 433 -14 q 189 120 256 57 q 85 269 122 183 q 49 458 49 356 q 85 647 49 561 q 189 797 122 733 q 344 895 256 860 q 539 931 433 931 q 734 895 644 931 q 890 797 824 860 q 994 647 957 733 q 1031 458 1031 561 q 994 269 1031 356 q 890 120 957 183 q 734 22 824 57 q 539 -14 644 -14 m 557 60 q 659 104 615 60 q 728 228 703 149 q 753 418 753 308 q 722 650 753 551 q 640 803 692 749 q 524 858 589 858 q 422 815 467 858 q 352 691 378 771 q 326 501 326 611 q 358 269 326 368 q 441 115 389 169 q 557 60 493 60 m 336 1118 l 217 1215 q 170 1264 185 1240 q 156 1317 156 1288 l 318 1317 l 376 1118 l 336 1118 m 307 986 l 500 1197 l 581 1197 l 774 986 l 733 986 l 540 1065 l 347 986 l 307 986 z "},"Ổ":{"ha":1079,"x_min":49,"x_max":1031,"o":"m 539 -14 q 344 22 433 -14 q 189 120 256 57 q 85 269 122 183 q 49 458 49 356 q 85 647 49 561 q 189 797 122 733 q 344 895 256 860 q 539 931 433 931 q 734 895 644 931 q 890 797 824 860 q 994 647 957 733 q 1031 458 1031 561 q 994 269 1031 356 q 890 120 957 183 q 734 22 824 57 q 539 -14 644 -14 m 557 60 q 659 104 615 60 q 728 228 703 149 q 753 418 753 308 q 722 650 753 551 q 640 803 692 749 q 524 858 589 858 q 422 815 467 858 q 352 691 378 771 q 326 501 326 611 q 358 269 326 368 q 441 115 389 169 q 557 60 493 60 z "},"Ỗ":{"ha":1079,"x_min":49,"x_max":1031,"o":"m 539 -14 q 344 22 433 -14 q 189 120 256 57 q 85 269 122 183 q 49 458 49 356 q 85 647 49 561 q 189 797 122 733 q 344 895 256 860 q 539 931 433 931 q 734 895 644 931 q 890 797 824 860 q 994 647 957 733 q 1031 458 1031 561 q 994 269 1031 356 q 890 120 957 183 q 734 22 824 57 q 539 -14 644 -14 m 557 60 q 659 104 615 60 q 728 228 703 149 q 753 418 753 308 q 722 650 753 551 q 640 803 692 749 q 524 858 589 858 q 422 815 467 858 q 352 691 378 771 q 326 501 326 611 q 358 269 326 368 q 441 115 389 169 q 557 60 493 60 z "},"Ỏ":{"ha":1079,"x_min":49,"x_max":1031,"o":"m 539 -14 q 344 22 433 -14 q 189 120 256 57 q 85 269 122 183 q 49 458 49 356 q 85 647 49 561 q 189 797 122 733 q 344 895 256 860 q 539 931 433 931 q 734 895 644 931 q 890 797 824 860 q 994 647 957 733 q 1031 458 1031 561 q 994 269 1031 356 q 890 120 957 183 q 734 22 824 57 q 539 -14 644 -14 m 557 60 q 659 104 615 60 q 728 228 703 149 q 753 418 753 308 q 722 650 753 551 q 640 803 692 749 q 524 858 589 858 q 422 815 467 858 q 352 691 378 771 q 326 501 326 611 q 358 269 326 368 q 441 115 389 169 q 557 60 493 60 m 469 990 l 469 992 q 532 1017 513 1006 q 551 1050 551 1029 q 530 1084 551 1071 q 456 1107 508 1097 l 478 1215 q 610 1173 572 1207 q 647 1103 647 1139 q 606 1017 647 1047 q 485 975 565 988 l 469 990 z "},"Ṍ":{"ha":1079,"x_min":49,"x_max":1031,"o":"m 539 -14 q 344 22 433 -14 q 189 120 256 57 q 85 269 122 183 q 49 458 49 356 q 85 647 49 561 q 189 797 122 733 q 344 895 256 860 q 539 931 433 931 q 734 895 644 931 q 890 797 824 860 q 994 647 957 733 q 1031 458 1031 561 q 994 269 1031 356 q 890 120 957 183 q 734 22 824 57 q 539 -14 644 -14 m 557 60 q 659 104 615 60 q 728 228 703 149 q 753 418 753 308 q 722 650 753 551 q 640 803 692 749 q 524 858 589 858 q 422 815 467 858 q 352 691 378 771 q 326 501 326 611 q 358 269 326 368 q 441 115 389 169 q 557 60 493 60 z "},"Ṏ":{"ha":1079,"x_min":49,"x_max":1031,"o":"m 539 -14 q 344 22 433 -14 q 189 120 256 57 q 85 269 122 183 q 49 458 49 356 q 85 647 49 561 q 189 797 122 733 q 344 895 256 860 q 539 931 433 931 q 734 895 644 931 q 890 797 824 860 q 994 647 957 733 q 1031 458 1031 561 q 994 269 1031 356 q 890 120 957 183 q 734 22 824 57 q 539 -14 644 -14 m 557 60 q 659 104 615 60 q 728 228 703 149 q 753 418 753 308 q 722 650 753 551 q 640 803 692 749 q 524 858 589 858 q 422 815 467 858 q 352 691 378 771 q 326 501 326 611 q 358 269 326 368 q 441 115 389 169 q 557 60 493 60 z "},"Ṑ":{"ha":1079,"x_min":49,"x_max":1031,"o":"m 539 -14 q 344 22 433 -14 q 189 120 256 57 q 85 269 122 183 q 49 458 49 356 q 85 647 49 561 q 189 797 122 733 q 344 895 256 860 q 539 931 433 931 q 734 895 644 931 q 890 797 824 860 q 994 647 957 733 q 1031 458 1031 561 q 994 269 1031 356 q 890 120 957 183 q 734 22 824 57 q 539 -14 644 -14 m 557 60 q 659 104 615 60 q 728 228 703 149 q 753 418 753 308 q 722 650 753 551 q 640 803 692 749 q 524 858 589 858 q 422 815 467 858 q 352 691 378 771 q 326 501 326 611 q 358 269 326 368 q 441 115 389 169 q 557 60 493 60 z "},"Ṓ":{"ha":1079,"x_min":49,"x_max":1031,"o":"m 539 -14 q 344 22 433 -14 q 189 120 256 57 q 85 269 122 183 q 49 458 49 356 q 85 647 49 561 q 189 797 122 733 q 344 895 256 860 q 539 931 433 931 q 734 895 644 931 q 890 797 824 860 q 994 647 957 733 q 1031 458 1031 561 q 994 269 1031 356 q 890 120 957 183 q 734 22 824 57 q 539 -14 644 -14 m 557 60 q 659 104 615 60 q 728 228 703 149 q 753 418 753 308 q 722 650 753 551 q 640 803 692 749 q 524 858 589 858 q 422 815 467 858 q 352 691 378 771 q 326 501 326 611 q 358 269 326 368 q 441 115 389 169 q 557 60 493 60 z "},"Ø":{"ha":1079,"x_min":49,"x_max":1031,"o":"m 49 -14 l 181 129 q 83 276 118 192 q 49 458 49 360 q 85 647 49 561 q 189 797 122 733 q 344 895 256 860 q 539 931 433 931 q 700 907 625 931 q 836 840 775 883 l 919 931 l 1031 931 l 899 788 q 996 641 961 725 q 1031 458 1031 557 q 994 269 1031 356 q 890 120 957 183 q 734 22 824 57 q 539 -14 644 -14 q 378 10 454 -14 q 243 76 303 33 l 160 -14 l 49 -14 m 326 501 q 332 400 326 449 q 347 310 338 351 l 706 699 q 627 817 674 775 q 524 858 581 858 q 422 815 467 858 q 352 691 378 771 q 326 501 326 611 m 557 60 q 659 104 615 60 q 728 229 703 149 q 753 418 753 310 q 733 608 753 521 l 375 219 q 454 102 407 144 q 557 60 501 60 z "},"Ǿ":{"ha":1079,"x_min":49,"x_max":1031,"o":"m 49 -14 l 181 129 q 83 276 118 192 q 49 458 49 360 q 85 647 49 561 q 189 797 122 733 q 344 895 256 860 q 539 931 433 931 q 700 907 625 931 q 836 840 775 883 l 919 931 l 1031 931 l 899 788 q 996 641 961 725 q 1031 458 1031 557 q 994 269 1031 356 q 890 120 957 183 q 734 22 824 57 q 539 -14 644 -14 q 378 10 454 -14 q 243 76 303 33 l 160 -14 l 49 -14 m 326 501 q 332 400 326 449 q 347 310 338 351 l 706 699 q 627 817 674 775 q 524 858 581 858 q 422 815 467 858 q 352 691 378 771 q 326 501 326 611 m 557 60 q 659 104 615 60 q 728 229 703 149 q 753 418 753 310 q 733 608 753 521 l 375 219 q 454 102 407 144 q 557 60 501 60 m 519 986 l 631 1197 l 808 1197 q 796 1142 808 1168 q 747 1096 783 1117 l 560 986 l 519 986 z "},"Ơ":{"ha":1079,"x_min":49,"x_max":1042,"o":"m 539 -14 q 344 22 433 -14 q 189 120 256 57 q 85 269 122 183 q 49 458 49 356 q 85 647 49 561 q 189 797 122 733 q 344 895 256 860 q 539 931 433 931 q 667 917 604 931 l 667 917 q 669 915 668 915 q 739 893 706 907 q 761 891 750 892 q 782 890 772 890 q 868 913 843 890 q 893 974 893 935 l 893 1038 l 901 1046 l 1004 1046 q 1034 1038 1026 1046 q 1042 1003 1042 1031 q 989 884 1042 924 q 838 844 936 844 l 831 844 q 977 682 924 782 q 1031 458 1031 582 q 994 269 1031 356 q 890 120 957 183 q 734 22 824 57 q 539 -14 644 -14 m 557 60 q 659 104 615 60 q 728 228 703 149 q 753 418 753 308 q 722 650 753 551 q 640 803 692 749 q 524 858 589 858 q 422 815 467 858 q 352 691 378 771 q 326 501 326 611 q 358 269 326 368 q 441 115 389 169 q 557 60 493 60 z "},"Ớ":{"ha":1079,"x_min":49,"x_max":1042,"o":"m 539 -14 q 344 22 433 -14 q 189 120 256 57 q 85 269 122 183 q 49 458 49 356 q 85 647 49 561 q 189 797 122 733 q 344 895 256 860 q 539 931 433 931 q 667 917 604 931 l 667 917 q 669 915 668 915 q 739 893 706 907 q 761 891 750 892 q 782 890 772 890 q 868 913 843 890 q 893 974 893 935 l 893 1038 l 901 1046 l 1004 1046 q 1034 1038 1026 1046 q 1042 1003 1042 1031 q 989 884 1042 924 q 838 844 936 844 l 831 844 q 977 682 924 782 q 1031 458 1031 582 q 994 269 1031 356 q 890 120 957 183 q 734 22 824 57 q 539 -14 644 -14 m 557 60 q 659 104 615 60 q 728 228 703 149 q 753 418 753 308 q 722 650 753 551 q 640 803 692 749 q 524 858 589 858 q 422 815 467 858 q 352 691 378 771 q 326 501 326 611 q 358 269 326 368 q 441 115 389 169 q 557 60 493 60 m 519 986 l 631 1197 l 808 1197 q 796 1142 808 1168 q 747 1096 783 1117 l 560 986 l 519 986 z "},"Ợ":{"ha":1079,"x_min":49,"x_max":1042,"o":"m 539 -14 q 344 22 433 -14 q 189 120 256 57 q 85 269 122 183 q 49 458 49 356 q 85 647 49 561 q 189 797 122 733 q 344 895 256 860 q 539 931 433 931 q 667 917 604 931 l 667 917 q 669 915 668 915 q 739 893 706 907 q 761 891 750 892 q 782 890 772 890 q 868 913 843 890 q 893 974 893 935 l 893 1038 l 901 1046 l 1004 1046 q 1034 1038 1026 1046 q 1042 1003 1042 1031 q 989 884 1042 924 q 838 844 936 844 l 831 844 q 977 682 924 782 q 1031 458 1031 582 q 994 269 1031 356 q 890 120 957 183 q 734 22 824 57 q 539 -14 644 -14 m 557 60 q 659 104 615 60 q 728 228 703 149 q 753 418 753 308 q 722 650 753 551 q 640 803 692 749 q 524 858 589 858 q 422 815 467 858 q 352 691 378 771 q 326 501 326 611 q 358 269 326 368 q 441 115 389 169 q 557 60 493 60 z "},"Ờ":{"ha":1079,"x_min":49,"x_max":1042,"o":"m 539 -14 q 344 22 433 -14 q 189 120 256 57 q 85 269 122 183 q 49 458 49 356 q 85 647 49 561 q 189 797 122 733 q 344 895 256 860 q 539 931 433 931 q 667 917 604 931 l 667 917 q 669 915 668 915 q 739 893 706 907 q 761 891 750 892 q 782 890 772 890 q 868 913 843 890 q 893 974 893 935 l 893 1038 l 901 1046 l 1004 1046 q 1034 1038 1026 1046 q 1042 1003 1042 1031 q 989 884 1042 924 q 838 844 936 844 l 831 844 q 977 682 924 782 q 1031 458 1031 582 q 994 269 1031 356 q 890 120 957 183 q 734 22 824 57 q 539 -14 644 -14 m 557 60 q 659 104 615 60 q 728 228 703 149 q 753 418 753 308 q 722 650 753 551 q 640 803 692 749 q 524 858 589 858 q 422 815 467 858 q 352 691 378 771 q 326 501 326 611 q 358 269 326 368 q 441 115 389 169 q 557 60 493 60 m 519 986 l 332 1096 q 283 1143 296 1118 q 271 1197 271 1168 l 449 1197 l 560 986 l 519 986 z "},"Ở":{"ha":1079,"x_min":49,"x_max":1042,"o":"m 539 -14 q 344 22 433 -14 q 189 120 256 57 q 85 269 122 183 q 49 458 49 356 q 85 647 49 561 q 189 797 122 733 q 344 895 256 860 q 539 931 433 931 q 667 917 604 931 l 667 917 q 669 915 668 915 q 739 893 706 907 q 761 891 750 892 q 782 890 772 890 q 868 913 843 890 q 893 974 893 935 l 893 1038 l 901 1046 l 1004 1046 q 1034 1038 1026 1046 q 1042 1003 1042 1031 q 989 884 1042 924 q 838 844 936 844 l 831 844 q 977 682 924 782 q 1031 458 1031 582 q 994 269 1031 356 q 890 120 957 183 q 734 22 824 57 q 539 -14 644 -14 m 557 60 q 659 104 615 60 q 728 228 703 149 q 753 418 753 308 q 722 650 753 551 q 640 803 692 749 q 524 858 589 858 q 422 815 467 858 q 352 691 378 771 q 326 501 326 611 q 358 269 326 368 q 441 115 389 169 q 557 60 493 60 m 469 990 l 469 992 q 532 1017 513 1006 q 551 1050 551 1029 q 530 1084 551 1071 q 456 1107 508 1097 l 478 1215 q 610 1173 572 1207 q 647 1103 647 1139 q 606 1017 647 1047 q 485 975 565 988 l 469 990 z "},"Ỡ":{"ha":1079,"x_min":49,"x_max":1042,"o":"m 539 -14 q 344 22 433 -14 q 189 120 256 57 q 85 269 122 183 q 49 458 49 356 q 85 647 49 561 q 189 797 122 733 q 344 895 256 860 q 539 931 433 931 q 667 917 604 931 l 667 917 q 669 915 668 915 q 739 893 706 907 q 761 891 750 892 q 782 890 772 890 q 868 913 843 890 q 893 974 893 935 l 893 1038 l 901 1046 l 1004 1046 q 1034 1038 1026 1046 q 1042 1003 1042 1031 q 989 884 1042 924 q 838 844 936 844 l 831 844 q 977 682 924 782 q 1031 458 1031 582 q 994 269 1031 356 q 890 120 957 183 q 734 22 824 57 q 539 -14 644 -14 m 557 60 q 659 104 615 60 q 728 228 703 149 q 753 418 753 308 q 722 650 753 551 q 640 803 692 749 q 524 858 589 858 q 422 815 467 858 q 352 691 378 771 q 326 501 326 611 q 358 269 326 368 q 441 115 389 169 q 557 60 493 60 m 300 999 q 369 1145 333 1106 q 453 1185 406 1185 q 533 1166 496 1185 q 604 1128 571 1147 q 668 1110 638 1110 q 706 1123 689 1110 q 742 1185 722 1136 l 781 1185 q 711 1038 747 1078 q 628 999 675 999 q 547 1017 585 999 q 476 1055 510 1036 q 413 1074 443 1074 q 375 1060 392 1074 q 339 999 358 1047 l 300 999 z "},"Œ":{"ha":1471,"x_min":49,"x_max":1415,"o":"m 588 0 q 296 53 417 0 q 112 203 175 106 q 49 438 49 301 q 119 693 49 586 q 315 858 190 800 q 597 917 439 917 l 1376 917 l 1376 675 l 1354 675 l 1240 840 l 956 840 l 956 511 l 1156 511 l 1239 633 l 1261 633 l 1261 315 l 1239 315 l 1156 435 l 956 435 l 956 76 l 1269 76 l 1393 304 l 1415 304 l 1415 0 l 588 0 m 643 76 l 692 76 l 692 840 l 631 840 q 400 741 479 840 q 321 474 321 642 q 401 184 321 292 q 643 76 481 76 z "},"Ŕ":{"ha":1069,"x_min":42,"x_max":1083,"o":"m 42 0 l 42 22 l 165 81 l 165 836 l 42 894 l 42 917 l 593 917 q 823 856 739 917 q 907 690 907 796 q 857 563 907 614 q 724 481 807 513 l 978 82 l 1083 22 l 1083 0 l 717 0 l 468 428 l 429 428 l 429 82 l 533 22 l 533 0 l 42 0 m 463 840 l 429 840 l 429 490 l 471 490 q 601 538 554 490 q 647 665 647 586 q 601 795 647 750 q 463 840 556 840 m 475 986 l 586 1197 l 764 1197 q 751 1142 764 1168 q 703 1096 739 1117 l 515 986 l 475 986 z "},"Ř":{"ha":1069,"x_min":42,"x_max":1083,"o":"m 42 0 l 42 22 l 165 81 l 165 836 l 42 894 l 42 917 l 593 917 q 823 856 739 917 q 907 690 907 796 q 857 563 907 614 q 724 481 807 513 l 978 82 l 1083 22 l 1083 0 l 717 0 l 468 428 l 429 428 l 429 82 l 533 22 l 533 0 l 42 0 m 463 840 l 429 840 l 429 490 l 471 490 q 601 538 554 490 q 647 665 647 586 q 601 795 647 750 q 463 840 556 840 m 456 986 l 263 1197 l 303 1197 l 496 1118 l 689 1197 l 729 1197 l 536 986 l 456 986 z "},"Ŗ":{"ha":1069,"x_min":42,"x_max":1083,"o":"m 42 0 l 42 22 l 165 81 l 165 836 l 42 894 l 42 917 l 593 917 q 823 856 739 917 q 907 690 907 796 q 857 563 907 614 q 724 481 807 513 l 978 82 l 1083 22 l 1083 0 l 717 0 l 468 428 l 429 428 l 429 82 l 533 22 l 533 0 l 42 0 m 463 840 l 429 840 l 429 490 l 471 490 q 601 538 554 490 q 647 665 647 586 q 601 795 647 750 q 463 840 556 840 m 544 -332 q 515 -331 531 -332 q 488 -326 499 -329 l 488 -297 q 511 -301 499 -300 q 531 -301 524 -301 q 592 -260 592 -301 q 566 -223 592 -233 q 486 -212 540 -212 l 486 -132 q 498 -111 486 -119 q 542 -103 510 -103 q 659 -133 618 -103 q 700 -217 700 -164 q 656 -302 700 -272 q 544 -332 613 -332 z "},"Ȑ":{"ha":1069,"x_min":42,"x_max":1083,"o":"m 42 0 l 42 22 l 165 81 l 165 836 l 42 894 l 42 917 l 593 917 q 823 856 739 917 q 907 690 907 796 q 857 563 907 614 q 724 481 807 513 l 978 82 l 1083 22 l 1083 0 l 717 0 l 468 428 l 429 428 l 429 82 l 533 22 l 533 0 l 42 0 m 463 840 l 429 840 l 429 490 l 471 490 q 601 538 554 490 q 647 665 647 586 q 601 795 647 750 q 463 840 556 840 m 369 986 l 207 1110 q 181 1153 179 1131 q 190 1197 183 1176 l 321 1197 l 410 986 l 369 986 m 581 986 l 443 1110 q 419 1154 419 1132 q 426 1197 419 1176 l 557 1197 l 621 986 l 581 986 z "},"Ȓ":{"ha":1069,"x_min":42,"x_max":1083,"o":"m 42 0 l 42 22 l 165 81 l 165 836 l 42 894 l 42 917 l 593 917 q 823 856 739 917 q 907 690 907 796 q 857 563 907 614 q 724 481 807 513 l 978 82 l 1083 22 l 1083 0 l 717 0 l 468 428 l 429 428 l 429 82 l 533 22 l 533 0 l 42 0 m 463 840 l 429 840 l 429 490 l 471 490 q 601 538 554 490 q 647 665 647 586 q 601 795 647 750 q 463 840 556 840 m 263 986 q 496 1197 311 1197 q 654 1145 603 1197 q 729 986 706 1093 l 690 986 q 611 1063 663 1047 q 496 1079 560 1079 q 381 1063 432 1079 q 301 986 331 1047 l 263 986 z "},"Ṛ":{"ha":1069,"x_min":42,"x_max":1083,"o":"m 42 0 l 42 22 l 165 81 l 165 836 l 42 894 l 42 917 l 593 917 q 823 856 739 917 q 907 690 907 796 q 857 563 907 614 q 724 481 807 513 l 978 82 l 1083 22 l 1083 0 l 717 0 l 468 428 l 429 428 l 429 82 l 533 22 l 533 0 l 42 0 m 463 840 l 429 840 l 429 490 l 471 490 q 601 538 554 490 q 647 665 647 586 q 601 795 647 750 q 463 840 556 840 z "},"Ṟ":{"ha":1069,"x_min":42,"x_max":1083,"o":"m 42 0 l 42 22 l 165 81 l 165 836 l 42 894 l 42 917 l 593 917 q 823 856 739 917 q 907 690 907 796 q 857 563 907 614 q 724 481 807 513 l 978 82 l 1083 22 l 1083 0 l 717 0 l 468 428 l 429 428 l 429 82 l 533 22 l 533 0 l 42 0 m 463 840 l 429 840 l 429 490 l 471 490 q 601 538 554 490 q 647 665 647 586 q 601 795 647 750 q 463 840 556 840 z "},"ẞ":{"ha":1664,"x_min":54,"x_max":1603,"o":"m 383 -14 q 211 6 288 -14 q 68 61 135 26 l 54 301 l 81 301 l 203 113 q 272 76 232 90 q 354 61 311 61 q 473 92 425 61 q 521 189 521 122 q 503 255 521 228 q 436 309 486 282 q 288 378 386 336 q 136 483 189 418 q 83 632 83 547 q 115 749 83 694 q 200 844 147 804 q 319 908 253 885 q 453 931 385 931 q 600 913 528 931 q 728 864 672 894 l 742 642 l 717 642 l 601 804 q 537 841 569 828 q 464 854 504 854 q 374 822 410 854 q 339 732 339 789 q 356 674 339 700 q 413 622 372 647 q 525 565 453 597 q 712 444 653 510 q 771 282 771 379 q 717 124 771 190 q 575 22 664 58 q 383 -14 486 -14 m 1215 -14 q 1043 6 1119 -14 q 900 61 967 26 l 886 301 l 913 301 l 1035 113 q 1103 76 1064 90 q 1186 61 1143 61 q 1305 92 1257 61 q 1353 189 1353 122 q 1335 255 1353 228 q 1268 309 1318 282 q 1119 378 1218 336 q 968 483 1021 418 q 915 632 915 547 q 947 749 915 694 q 1032 844 979 804 q 1151 908 1085 885 q 1285 931 1217 931 q 1432 913 1360 931 q 1560 864 1504 894 l 1574 642 l 1549 642 l 1433 804 q 1369 841 1401 828 q 1296 854 1336 854 q 1206 822 1242 854 q 1171 732 1171 789 q 1188 674 1171 700 q 1244 622 1204 647 q 1357 565 1285 597 q 1544 444 1485 510 q 1603 282 1603 379 q 1549 124 1603 190 q 1407 22 1496 58 q 1215 -14 1318 -14 z "},"Ś":{"ha":832,"x_min":54,"x_max":771,"o":"m 383 -14 q 211 6 288 -14 q 68 61 135 26 l 54 301 l 81 301 l 203 113 q 272 76 232 90 q 354 61 311 61 q 473 92 425 61 q 521 189 521 122 q 503 255 521 228 q 436 309 486 282 q 288 378 386 336 q 136 483 189 418 q 83 632 83 547 q 115 749 83 694 q 200 844 147 804 q 319 908 253 885 q 453 931 385 931 q 600 913 528 931 q 728 864 672 894 l 742 642 l 717 642 l 601 804 q 537 841 569 828 q 464 854 504 854 q 374 822 410 854 q 339 732 339 789 q 356 674 339 700 q 413 622 372 647 q 525 565 453 597 q 712 444 653 510 q 771 282 771 379 q 717 124 771 190 q 575 22 664 58 q 383 -14 486 -14 m 421 986 l 532 1197 l 710 1197 q 697 1142 710 1168 q 649 1096 685 1117 l 461 986 l 421 986 z "},"Ŝ":{"ha":832,"x_min":54,"x_max":771,"o":"m 383 -14 q 211 6 288 -14 q 68 61 135 26 l 54 301 l 81 301 l 203 113 q 272 76 232 90 q 354 61 311 61 q 473 92 425 61 q 521 189 521 122 q 503 255 521 228 q 436 309 486 282 q 288 378 386 336 q 136 483 189 418 q 83 632 83 547 q 115 749 83 694 q 200 844 147 804 q 319 908 253 885 q 453 931 385 931 q 600 913 528 931 q 728 864 672 894 l 742 642 l 717 642 l 601 804 q 537 841 569 828 q 464 854 504 854 q 374 822 410 854 q 339 732 339 789 q 356 674 339 700 q 413 622 372 647 q 525 565 453 597 q 712 444 653 510 q 771 282 771 379 q 717 124 771 190 q 575 22 664 58 q 383 -14 486 -14 m 208 986 l 401 1197 l 482 1197 l 675 986 l 635 986 l 442 1065 l 249 986 l 208 986 z "},"Š":{"ha":832,"x_min":54,"x_max":771,"o":"m 383 -14 q 211 6 288 -14 q 68 61 135 26 l 54 301 l 81 301 l 203 113 q 272 76 232 90 q 354 61 311 61 q 473 92 425 61 q 521 189 521 122 q 503 255 521 228 q 436 309 486 282 q 288 378 386 336 q 136 483 189 418 q 83 632 83 547 q 115 749 83 694 q 200 844 147 804 q 319 908 253 885 q 453 931 385 931 q 600 913 528 931 q 728 864 672 894 l 742 642 l 717 642 l 601 804 q 537 841 569 828 q 464 854 504 854 q 374 822 410 854 q 339 732 339 789 q 356 674 339 700 q 413 622 372 647 q 525 565 453 597 q 712 444 653 510 q 771 282 771 379 q 717 124 771 190 q 575 22 664 58 q 383 -14 486 -14 m 401 986 l 208 1197 l 249 1197 l 442 1118 l 635 1197 l 675 1197 l 482 986 l 401 986 z "},"Ş":{"ha":832,"x_min":54,"x_max":771,"o":"m 408 -333 q 346 -326 372 -333 q 297 -306 319 -319 l 297 -274 l 303 -274 q 339 -285 318 -282 q 376 -289 360 -289 q 433 -276 411 -289 q 454 -236 454 -264 q 428 -185 454 -207 q 319 -143 401 -162 l 378 -14 q 209 7 285 -14 q 68 61 133 28 l 54 301 l 81 301 l 203 113 q 272 76 232 90 q 354 61 311 61 q 473 92 425 61 q 521 189 521 122 q 503 255 521 228 q 436 309 486 282 q 288 378 386 336 q 136 483 189 418 q 83 632 83 547 q 115 749 83 694 q 200 844 147 804 q 319 908 253 885 q 453 931 385 931 q 600 913 528 931 q 728 864 672 894 l 742 642 l 717 642 l 601 804 q 537 841 569 828 q 464 854 504 854 q 374 822 410 854 q 339 732 339 789 q 356 674 339 700 q 413 622 372 647 q 525 565 453 597 q 712 444 653 510 q 771 282 771 379 q 725 135 771 199 q 603 35 679 72 q 435 -11 526 -3 l 418 -49 q 530 -108 499 -72 q 561 -199 561 -144 q 519 -296 561 -258 q 408 -333 476 -333 z "},"Ș":{"ha":832,"x_min":54,"x_max":771,"o":"m 383 -14 q 211 6 288 -14 q 68 61 135 26 l 54 301 l 81 301 l 203 113 q 272 76 232 90 q 354 61 311 61 q 473 92 425 61 q 521 189 521 122 q 503 255 521 228 q 436 309 486 282 q 288 378 386 336 q 136 483 189 418 q 83 632 83 547 q 115 749 83 694 q 200 844 147 804 q 319 908 253 885 q 453 931 385 931 q 600 913 528 931 q 728 864 672 894 l 742 642 l 717 642 l 601 804 q 537 841 569 828 q 464 854 504 854 q 374 822 410 854 q 339 732 339 789 q 356 674 339 700 q 413 622 372 647 q 525 565 453 597 q 712 444 653 510 q 771 282 771 379 q 717 124 771 190 q 575 22 664 58 q 383 -14 486 -14 z "},"Ṡ":{"ha":832,"x_min":54,"x_max":771,"o":"m 383 -14 q 211 6 288 -14 q 68 61 135 26 l 54 301 l 81 301 l 203 113 q 272 76 232 90 q 354 61 311 61 q 473 92 425 61 q 521 189 521 122 q 503 255 521 228 q 436 309 486 282 q 288 378 386 336 q 136 483 189 418 q 83 632 83 547 q 115 749 83 694 q 200 844 147 804 q 319 908 253 885 q 453 931 385 931 q 600 913 528 931 q 728 864 672 894 l 742 642 l 717 642 l 601 804 q 537 841 569 828 q 464 854 504 854 q 374 822 410 854 q 339 732 339 789 q 356 674 339 700 q 413 622 372 647 q 525 565 453 597 q 712 444 653 510 q 771 282 771 379 q 717 124 771 190 q 575 22 664 58 q 383 -14 486 -14 m 442 997 q 361 1029 393 997 q 329 1110 329 1061 q 361 1190 329 1158 q 442 1222 393 1222 q 522 1190 490 1222 q 554 1110 554 1158 q 522 1029 554 1061 q 442 997 490 997 z "},"Ṣ":{"ha":832,"x_min":54,"x_max":771,"o":"m 383 -14 q 211 6 288 -14 q 68 61 135 26 l 54 301 l 81 301 l 203 113 q 272 76 232 90 q 354 61 311 61 q 473 92 425 61 q 521 189 521 122 q 503 255 521 228 q 436 309 486 282 q 288 378 386 336 q 136 483 189 418 q 83 632 83 547 q 115 749 83 694 q 200 844 147 804 q 319 908 253 885 q 453 931 385 931 q 600 913 528 931 q 728 864 672 894 l 742 642 l 717 642 l 601 804 q 537 841 569 828 q 464 854 504 854 q 374 822 410 854 q 339 732 339 789 q 356 674 339 700 q 413 622 372 647 q 525 565 453 597 q 712 444 653 510 q 771 282 771 379 q 717 124 771 190 q 575 22 664 58 q 383 -14 486 -14 z "},"Ṥ":{"ha":832,"x_min":54,"x_max":771,"o":"m 383 -14 q 211 6 288 -14 q 68 61 135 26 l 54 301 l 81 301 l 203 113 q 272 76 232 90 q 354 61 311 61 q 473 92 425 61 q 521 189 521 122 q 503 255 521 228 q 436 309 486 282 q 288 378 386 336 q 136 483 189 418 q 83 632 83 547 q 115 749 83 694 q 200 844 147 804 q 319 908 253 885 q 453 931 385 931 q 600 913 528 931 q 728 864 672 894 l 742 642 l 717 642 l 601 804 q 537 841 569 828 q 464 854 504 854 q 374 822 410 854 q 339 732 339 789 q 356 674 339 700 q 413 622 372 647 q 525 565 453 597 q 712 444 653 510 q 771 282 771 379 q 717 124 771 190 q 575 22 664 58 q 383 -14 486 -14 z "},"Ṧ":{"ha":832,"x_min":54,"x_max":771,"o":"m 383 -14 q 211 6 288 -14 q 68 61 135 26 l 54 301 l 81 301 l 203 113 q 272 76 232 90 q 354 61 311 61 q 473 92 425 61 q 521 189 521 122 q 503 255 521 228 q 436 309 486 282 q 288 378 386 336 q 136 483 189 418 q 83 632 83 547 q 115 749 83 694 q 200 844 147 804 q 319 908 253 885 q 453 931 385 931 q 600 913 528 931 q 728 864 672 894 l 742 642 l 717 642 l 601 804 q 537 841 569 828 q 464 854 504 854 q 374 822 410 854 q 339 732 339 789 q 356 674 339 700 q 413 622 372 647 q 525 565 453 597 q 712 444 653 510 q 771 282 771 379 q 717 124 771 190 q 575 22 664 58 q 383 -14 486 -14 z "},"Ṩ":{"ha":832,"x_min":54,"x_max":771,"o":"m 383 -14 q 211 6 288 -14 q 68 61 135 26 l 54 301 l 81 301 l 203 113 q 272 76 232 90 q 354 61 311 61 q 473 92 425 61 q 521 189 521 122 q 503 255 521 228 q 436 309 486 282 q 288 378 386 336 q 136 483 189 418 q 83 632 83 547 q 115 749 83 694 q 200 844 147 804 q 319 908 253 885 q 453 931 385 931 q 600 913 528 931 q 728 864 672 894 l 742 642 l 717 642 l 601 804 q 537 841 569 828 q 464 854 504 854 q 374 822 410 854 q 339 732 339 789 q 356 674 339 700 q 413 622 372 647 q 525 565 453 597 q 712 444 653 510 q 771 282 771 379 q 717 124 771 190 q 575 22 664 58 q 383 -14 486 -14 m 442 997 q 361 1029 393 997 q 329 1110 329 1061 q 361 1190 329 1158 q 442 1222 393 1222 q 522 1190 490 1222 q 554 1110 554 1158 q 522 1029 554 1061 q 442 997 490 997 z "},"Ť":{"ha":997,"x_min":42,"x_max":956,"o":"m 214 0 l 214 22 l 367 81 l 367 840 l 186 840 l 64 596 l 42 596 l 42 917 l 956 917 l 956 596 l 933 596 l 811 840 l 631 840 l 631 81 l 783 22 l 783 0 l 214 0 m 458 986 l 265 1197 l 306 1197 l 499 1118 l 692 1197 l 732 1197 l 539 986 l 458 986 z "},"Ț":{"ha":997,"x_min":42,"x_max":956,"o":"m 214 0 l 214 22 l 367 81 l 367 840 l 186 840 l 64 596 l 42 596 l 42 917 l 956 917 l 956 596 l 933 596 l 811 840 l 631 840 l 631 81 l 783 22 l 783 0 l 214 0 z "},"Ŧ":{"ha":997,"x_min":42,"x_max":956,"o":"m 214 0 l 214 22 l 367 81 l 367 438 l 192 438 l 192 514 l 367 514 l 367 840 l 186 840 l 64 596 l 42 596 l 42 917 l 956 917 l 956 596 l 933 596 l 811 840 l 631 840 l 631 514 l 806 514 l 806 438 l 631 438 l 631 81 l 783 22 l 783 0 l 214 0 z "},"Ţ":{"ha":997,"x_min":42,"x_max":956,"o":"m 214 0 l 214 22 l 367 81 l 367 840 l 186 840 l 64 596 l 42 596 l 42 917 l 956 917 l 956 596 l 933 596 l 811 840 l 631 840 l 631 81 l 783 22 l 783 0 l 526 0 l 504 -49 q 616 -108 585 -72 q 647 -199 647 -144 q 605 -296 647 -258 q 494 -333 563 -333 q 432 -326 458 -333 q 383 -306 406 -319 l 383 -274 l 389 -274 q 425 -285 404 -282 q 463 -289 446 -289 q 519 -276 497 -289 q 540 -236 540 -264 q 514 -185 540 -207 q 406 -143 488 -162 l 471 0 l 214 0 z "},"Ṭ":{"ha":997,"x_min":42,"x_max":956,"o":"m 214 0 l 214 22 l 367 81 l 367 840 l 186 840 l 64 596 l 42 596 l 42 917 l 956 917 l 956 596 l 933 596 l 811 840 l 631 840 l 631 81 l 783 22 l 783 0 l 214 0 z "},"Ṯ":{"ha":997,"x_min":42,"x_max":956,"o":"m 214 0 l 214 22 l 367 81 l 367 840 l 186 840 l 64 596 l 42 596 l 42 917 l 956 917 l 956 596 l 933 596 l 811 840 l 631 840 l 631 81 l 783 22 l 783 0 l 214 0 z "},"Ù":{"ha":1189,"x_min":42,"x_max":1147,"o":"m 604 -14 q 374 26 472 -14 q 221 161 275 67 q 167 419 167 256 l 167 836 l 42 894 l 42 917 l 556 917 l 556 894 l 431 836 l 431 403 q 466 224 431 289 q 560 133 501 160 q 692 106 619 106 q 806 130 753 106 q 892 209 860 154 q 925 354 925 264 l 925 839 l 800 894 l 800 917 l 1147 917 l 1147 894 l 1022 838 l 1022 419 q 971 161 1022 256 q 825 26 919 67 q 604 -14 731 -14 m 650 986 l 463 1096 q 414 1143 426 1118 q 401 1197 401 1168 l 579 1197 l 690 986 l 650 986 z "},"Ú":{"ha":1189,"x_min":42,"x_max":1147,"o":"m 604 -14 q 374 26 472 -14 q 221 161 275 67 q 167 419 167 256 l 167 836 l 42 894 l 42 917 l 556 917 l 556 894 l 431 836 l 431 403 q 466 224 431 289 q 560 133 501 160 q 692 106 619 106 q 806 130 753 106 q 892 209 860 154 q 925 354 925 264 l 925 839 l 800 894 l 800 917 l 1147 917 l 1147 894 l 1022 838 l 1022 419 q 971 161 1022 256 q 825 26 919 67 q 604 -14 731 -14 m 650 986 l 761 1197 l 939 1197 q 926 1142 939 1168 q 878 1096 914 1117 l 690 986 l 650 986 z "},"Û":{"ha":1189,"x_min":42,"x_max":1147,"o":"m 604 -14 q 374 26 472 -14 q 221 161 275 67 q 167 419 167 256 l 167 836 l 42 894 l 42 917 l 556 917 l 556 894 l 431 836 l 431 403 q 466 224 431 289 q 560 133 501 160 q 692 106 619 106 q 806 130 753 106 q 892 209 860 154 q 925 354 925 264 l 925 839 l 800 894 l 800 917 l 1147 917 l 1147 894 l 1022 838 l 1022 419 q 971 161 1022 256 q 825 26 919 67 q 604 -14 731 -14 m 438 986 l 631 1197 l 711 1197 l 904 986 l 864 986 l 671 1065 l 478 986 l 438 986 z "},"Ũ":{"ha":1189,"x_min":42,"x_max":1147,"o":"m 604 -14 q 374 26 472 -14 q 221 161 275 67 q 167 419 167 256 l 167 836 l 42 894 l 42 917 l 556 917 l 556 894 l 431 836 l 431 403 q 466 224 431 289 q 560 133 501 160 q 692 106 619 106 q 806 130 753 106 q 892 209 860 154 q 925 354 925 264 l 925 839 l 800 894 l 800 917 l 1147 917 l 1147 894 l 1022 838 l 1022 419 q 971 161 1022 256 q 825 26 919 67 q 604 -14 731 -14 m 431 999 q 500 1145 464 1106 q 583 1185 536 1185 q 664 1166 626 1185 q 735 1128 701 1147 q 799 1110 768 1110 q 836 1123 819 1110 q 872 1185 853 1136 l 911 1185 q 842 1038 878 1078 q 758 999 806 999 q 678 1017 715 999 q 607 1055 640 1036 q 543 1074 574 1074 q 506 1060 522 1074 q 469 999 489 1047 l 431 999 z "},"Ü":{"ha":1189,"x_min":42,"x_max":1147,"o":"m 604 -14 q 374 26 472 -14 q 221 161 275 67 q 167 419 167 256 l 167 836 l 42 894 l 42 917 l 556 917 l 556 894 l 431 836 l 431 403 q 466 224 431 289 q 560 133 501 160 q 692 106 619 106 q 806 130 753 106 q 892 209 860 154 q 925 354 925 264 l 925 839 l 800 894 l 800 917 l 1147 917 l 1147 894 l 1022 838 l 1022 419 q 971 161 1022 256 q 825 26 919 67 q 604 -14 731 -14 m 528 1001 q 464 1028 489 1001 q 439 1090 439 1054 q 464 1153 439 1126 q 528 1179 489 1179 q 592 1153 567 1179 q 617 1090 617 1126 q 592 1028 617 1054 q 528 1001 567 1001 m 815 1001 q 751 1028 775 1001 q 726 1090 726 1054 q 751 1153 726 1126 q 815 1179 775 1179 q 880 1153 856 1179 q 904 1090 904 1126 q 880 1028 904 1054 q 815 1001 856 1001 z "},"Ū":{"ha":1189,"x_min":42,"x_max":1147,"o":"m 604 -14 q 374 26 472 -14 q 221 161 275 67 q 167 419 167 256 l 167 836 l 42 894 l 42 917 l 556 917 l 556 894 l 431 836 l 431 403 q 466 224 431 289 q 560 133 501 160 q 692 106 619 106 q 806 130 753 106 q 892 209 860 154 q 925 354 925 264 l 925 839 l 800 894 l 800 917 l 1147 917 l 1147 894 l 1022 838 l 1022 419 q 971 161 1022 256 q 825 26 919 67 q 604 -14 731 -14 m 458 1044 l 458 1136 l 883 1136 l 883 1044 l 458 1044 z "},"Ŭ":{"ha":1189,"x_min":42,"x_max":1147,"o":"m 604 -14 q 374 26 472 -14 q 221 161 275 67 q 167 419 167 256 l 167 836 l 42 894 l 42 917 l 556 917 l 556 894 l 431 836 l 431 403 q 466 224 431 289 q 560 133 501 160 q 692 106 619 106 q 806 130 753 106 q 892 209 860 154 q 925 354 925 264 l 925 839 l 800 894 l 800 917 l 1147 917 l 1147 894 l 1022 838 l 1022 419 q 971 161 1022 256 q 825 26 919 67 q 604 -14 731 -14 m 671 986 q 513 1038 564 986 q 438 1197 461 1090 l 476 1197 q 556 1120 504 1136 q 671 1104 607 1104 q 785 1120 735 1104 q 865 1197 836 1136 l 904 1197 q 671 986 856 986 z "},"Ů":{"ha":1189,"x_min":42,"x_max":1147,"o":"m 604 -14 q 374 26 472 -14 q 221 161 275 67 q 167 419 167 256 l 167 836 l 42 894 l 42 917 l 556 917 l 556 894 l 431 836 l 431 403 q 466 224 431 289 q 560 133 501 160 q 692 106 619 106 q 806 130 753 106 q 892 209 860 154 q 925 354 925 264 l 925 839 l 800 894 l 800 917 l 1147 917 l 1147 894 l 1022 838 l 1022 419 q 971 161 1022 256 q 825 26 919 67 q 604 -14 731 -14 m 671 986 q 580 1019 615 986 q 544 1106 544 1053 q 580 1191 544 1157 q 671 1225 615 1225 q 762 1191 726 1225 q 797 1106 797 1157 q 762 1020 797 1054 q 671 986 726 986 m 676 1021 q 715 1097 715 1021 q 665 1190 715 1190 q 636 1172 646 1190 q 626 1114 626 1154 q 676 1021 626 1021 z "},"Ű":{"ha":1189,"x_min":42,"x_max":1147,"o":"m 604 -14 q 374 26 472 -14 q 221 161 275 67 q 167 419 167 256 l 167 836 l 42 894 l 42 917 l 556 917 l 556 894 l 431 836 l 431 403 q 466 224 431 289 q 560 133 501 160 q 692 106 619 106 q 806 130 753 106 q 892 209 860 154 q 925 354 925 264 l 925 839 l 800 894 l 800 917 l 1147 917 l 1147 894 l 1022 838 l 1022 419 q 971 161 1022 256 q 825 26 919 67 q 604 -14 731 -14 m 544 986 l 601 1197 l 732 1197 q 739 1154 739 1176 q 715 1110 739 1132 l 585 986 l 544 986 m 756 986 l 840 1197 l 971 1197 q 980 1153 978 1176 q 954 1110 982 1131 l 796 986 l 756 986 z "},"Ų":{"ha":1189,"x_min":42,"x_max":1147,"o":"m 635 -333 q 532 -299 569 -333 q 494 -206 494 -264 q 522 -112 494 -160 q 599 -14 550 -65 q 371 28 468 -12 q 220 163 274 68 q 167 419 167 257 l 167 836 l 42 894 l 42 917 l 556 917 l 556 894 l 431 836 l 431 403 q 466 224 431 289 q 560 133 501 160 q 692 106 619 106 q 806 130 753 106 q 892 209 860 154 q 925 354 925 264 l 925 839 l 800 894 l 800 917 l 1147 917 l 1147 894 l 1022 838 l 1022 419 q 978 177 1022 269 q 855 41 935 85 q 665 -11 775 -3 q 633 -93 644 -53 q 621 -174 621 -133 q 694 -254 621 -254 q 729 -248 711 -254 q 758 -229 747 -242 l 764 -229 l 764 -261 q 635 -333 729 -333 z "},"Ụ":{"ha":1189,"x_min":42,"x_max":1147,"o":"m 604 -14 q 374 26 472 -14 q 221 161 275 67 q 167 419 167 256 l 167 836 l 42 894 l 42 917 l 556 917 l 556 894 l 431 836 l 431 403 q 466 224 431 289 q 560 133 501 160 q 692 106 619 106 q 806 130 753 106 q 892 209 860 154 q 925 354 925 264 l 925 839 l 800 894 l 800 917 l 1147 917 l 1147 894 l 1022 838 l 1022 419 q 971 161 1022 256 q 825 26 919 67 q 604 -14 731 -14 z "},"Ȕ":{"ha":1189,"x_min":42,"x_max":1147,"o":"m 604 -14 q 374 26 472 -14 q 221 161 275 67 q 167 419 167 256 l 167 836 l 42 894 l 42 917 l 556 917 l 556 894 l 431 836 l 431 403 q 466 224 431 289 q 560 133 501 160 q 692 106 619 106 q 806 130 753 106 q 892 209 860 154 q 925 354 925 264 l 925 839 l 800 894 l 800 917 l 1147 917 l 1147 894 l 1022 838 l 1022 419 q 971 161 1022 256 q 825 26 919 67 q 604 -14 731 -14 m 544 986 l 382 1110 q 356 1153 354 1131 q 365 1197 358 1176 l 496 1197 l 585 986 l 544 986 m 756 986 l 618 1110 q 594 1154 594 1132 q 601 1197 594 1176 l 732 1197 l 796 986 l 756 986 z "},"Ȗ":{"ha":1189,"x_min":42,"x_max":1147,"o":"m 604 -14 q 374 26 472 -14 q 221 161 275 67 q 167 419 167 256 l 167 836 l 42 894 l 42 917 l 556 917 l 556 894 l 431 836 l 431 403 q 466 224 431 289 q 560 133 501 160 q 692 106 619 106 q 806 130 753 106 q 892 209 860 154 q 925 354 925 264 l 925 839 l 800 894 l 800 917 l 1147 917 l 1147 894 l 1022 838 l 1022 419 q 971 161 1022 256 q 825 26 919 67 q 604 -14 731 -14 m 438 986 q 671 1197 486 1197 q 829 1145 778 1197 q 904 986 881 1093 l 865 986 q 786 1063 838 1047 q 671 1079 735 1079 q 556 1063 607 1079 q 476 986 506 1047 l 438 986 z "},"Ủ":{"ha":1189,"x_min":42,"x_max":1147,"o":"m 604 -14 q 374 26 472 -14 q 221 161 275 67 q 167 419 167 256 l 167 836 l 42 894 l 42 917 l 556 917 l 556 894 l 431 836 l 431 403 q 466 224 431 289 q 560 133 501 160 q 692 106 619 106 q 806 130 753 106 q 892 209 860 154 q 925 354 925 264 l 925 839 l 800 894 l 800 917 l 1147 917 l 1147 894 l 1022 838 l 1022 419 q 971 161 1022 256 q 825 26 919 67 q 604 -14 731 -14 m 600 990 l 600 992 q 663 1017 643 1006 q 682 1050 682 1029 q 660 1084 682 1071 q 586 1107 639 1097 l 608 1215 q 740 1173 703 1207 q 778 1103 778 1139 q 737 1017 778 1047 q 615 975 696 988 l 600 990 z "},"Ṹ":{"ha":1189,"x_min":42,"x_max":1147,"o":"m 604 -14 q 374 26 472 -14 q 221 161 275 67 q 167 419 167 256 l 167 836 l 42 894 l 42 917 l 556 917 l 556 894 l 431 836 l 431 403 q 466 224 431 289 q 560 133 501 160 q 692 106 619 106 q 806 130 753 106 q 892 209 860 154 q 925 354 925 264 l 925 839 l 800 894 l 800 917 l 1147 917 l 1147 894 l 1022 838 l 1022 419 q 971 161 1022 256 q 825 26 919 67 q 604 -14 731 -14 z "},"Ṻ":{"ha":1189,"x_min":42,"x_max":1147,"o":"m 604 -14 q 374 26 472 -14 q 221 161 275 67 q 167 419 167 256 l 167 836 l 42 894 l 42 917 l 556 917 l 556 894 l 431 836 l 431 403 q 466 224 431 289 q 560 133 501 160 q 692 106 619 106 q 806 130 753 106 q 892 209 860 154 q 925 354 925 264 l 925 839 l 800 894 l 800 917 l 1147 917 l 1147 894 l 1022 838 l 1022 419 q 971 161 1022 256 q 825 26 919 67 q 604 -14 731 -14 z "},"Ư":{"ha":1189,"x_min":42,"x_max":1390,"o":"m 604 -14 q 374 26 472 -14 q 221 161 275 67 q 167 419 167 256 l 167 836 l 42 894 l 42 917 l 556 917 l 556 894 l 431 836 l 431 403 q 466 224 431 289 q 560 133 501 160 q 692 106 619 106 q 806 130 753 106 q 892 209 860 154 q 925 354 925 264 l 925 839 l 800 894 l 800 917 l 1131 917 q 1217 928 1192 917 q 1242 974 1242 939 l 1242 1038 l 1250 1046 l 1353 1046 q 1383 1038 1375 1046 q 1390 1003 1390 1031 q 1337 903 1390 933 q 1186 872 1283 872 l 1099 872 l 1022 838 l 1022 419 q 971 161 1022 256 q 825 26 919 67 q 604 -14 731 -14 z "},"Ứ":{"ha":1189,"x_min":42,"x_max":1390,"o":"m 604 -14 q 374 26 472 -14 q 221 161 275 67 q 167 419 167 256 l 167 836 l 42 894 l 42 917 l 556 917 l 556 894 l 431 836 l 431 403 q 466 224 431 289 q 560 133 501 160 q 692 106 619 106 q 806 130 753 106 q 892 209 860 154 q 925 354 925 264 l 925 839 l 800 894 l 800 917 l 1131 917 q 1217 928 1192 917 q 1242 974 1242 939 l 1242 1038 l 1250 1046 l 1353 1046 q 1383 1038 1375 1046 q 1390 1003 1390 1031 q 1337 903 1390 933 q 1186 872 1283 872 l 1099 872 l 1022 838 l 1022 419 q 971 161 1022 256 q 825 26 919 67 q 604 -14 731 -14 m 650 986 l 761 1197 l 939 1197 q 926 1142 939 1168 q 878 1096 914 1117 l 690 986 l 650 986 z "},"Ự":{"ha":1189,"x_min":42,"x_max":1390,"o":"m 604 -14 q 374 26 472 -14 q 221 161 275 67 q 167 419 167 256 l 167 836 l 42 894 l 42 917 l 556 917 l 556 894 l 431 836 l 431 403 q 466 224 431 289 q 560 133 501 160 q 692 106 619 106 q 806 130 753 106 q 892 209 860 154 q 925 354 925 264 l 925 839 l 800 894 l 800 917 l 1131 917 q 1217 928 1192 917 q 1242 974 1242 939 l 1242 1038 l 1250 1046 l 1353 1046 q 1383 1038 1375 1046 q 1390 1003 1390 1031 q 1337 903 1390 933 q 1186 872 1283 872 l 1099 872 l 1022 838 l 1022 419 q 971 161 1022 256 q 825 26 919 67 q 604 -14 731 -14 z "},"Ừ":{"ha":1189,"x_min":42,"x_max":1390,"o":"m 604 -14 q 374 26 472 -14 q 221 161 275 67 q 167 419 167 256 l 167 836 l 42 894 l 42 917 l 556 917 l 556 894 l 431 836 l 431 403 q 466 224 431 289 q 560 133 501 160 q 692 106 619 106 q 806 130 753 106 q 892 209 860 154 q 925 354 925 264 l 925 839 l 800 894 l 800 917 l 1131 917 q 1217 928 1192 917 q 1242 974 1242 939 l 1242 1038 l 1250 1046 l 1353 1046 q 1383 1038 1375 1046 q 1390 1003 1390 1031 q 1337 903 1390 933 q 1186 872 1283 872 l 1099 872 l 1022 838 l 1022 419 q 971 161 1022 256 q 825 26 919 67 q 604 -14 731 -14 m 650 986 l 463 1096 q 414 1143 426 1118 q 401 1197 401 1168 l 579 1197 l 690 986 l 650 986 z "},"Ử":{"ha":1189,"x_min":42,"x_max":1390,"o":"m 604 -14 q 374 26 472 -14 q 221 161 275 67 q 167 419 167 256 l 167 836 l 42 894 l 42 917 l 556 917 l 556 894 l 431 836 l 431 403 q 466 224 431 289 q 560 133 501 160 q 692 106 619 106 q 806 130 753 106 q 892 209 860 154 q 925 354 925 264 l 925 839 l 800 894 l 800 917 l 1131 917 q 1217 928 1192 917 q 1242 974 1242 939 l 1242 1038 l 1250 1046 l 1353 1046 q 1383 1038 1375 1046 q 1390 1003 1390 1031 q 1337 903 1390 933 q 1186 872 1283 872 l 1099 872 l 1022 838 l 1022 419 q 971 161 1022 256 q 825 26 919 67 q 604 -14 731 -14 m 600 990 l 600 992 q 663 1017 643 1006 q 682 1050 682 1029 q 660 1084 682 1071 q 586 1107 639 1097 l 608 1215 q 740 1173 703 1207 q 778 1103 778 1139 q 737 1017 778 1047 q 615 975 696 988 l 600 990 z "},"Ữ":{"ha":1189,"x_min":42,"x_max":1390,"o":"m 604 -14 q 374 26 472 -14 q 221 161 275 67 q 167 419 167 256 l 167 836 l 42 894 l 42 917 l 556 917 l 556 894 l 431 836 l 431 403 q 466 224 431 289 q 560 133 501 160 q 692 106 619 106 q 806 130 753 106 q 892 209 860 154 q 925 354 925 264 l 925 839 l 800 894 l 800 917 l 1131 917 q 1217 928 1192 917 q 1242 974 1242 939 l 1242 1038 l 1250 1046 l 1353 1046 q 1383 1038 1375 1046 q 1390 1003 1390 1031 q 1337 903 1390 933 q 1186 872 1283 872 l 1099 872 l 1022 838 l 1022 419 q 971 161 1022 256 q 825 26 919 67 q 604 -14 731 -14 m 431 999 q 500 1145 464 1106 q 583 1185 536 1185 q 664 1166 626 1185 q 735 1128 701 1147 q 799 1110 768 1110 q 836 1123 819 1110 q 872 1185 853 1136 l 911 1185 q 842 1038 878 1078 q 758 999 806 999 q 678 1017 715 999 q 607 1055 640 1036 q 543 1074 574 1074 q 506 1060 522 1074 q 469 999 489 1047 l 431 999 z "},"Ẁ":{"ha":1501,"x_min":14,"x_max":1488,"o":"m 396 -7 l 122 833 l 14 894 l 14 917 l 506 917 l 506 894 l 389 840 l 540 350 l 550 350 l 790 924 l 892 924 l 1126 350 l 1136 350 l 1289 840 l 1171 894 l 1171 917 l 1488 917 l 1488 894 l 1394 847 l 1114 -7 l 1013 -7 l 767 569 l 757 569 l 497 -7 l 396 -7 m 821 986 l 633 1096 q 585 1143 597 1118 q 572 1197 572 1168 l 750 1197 l 861 986 l 821 986 z "},"Ẃ":{"ha":1501,"x_min":14,"x_max":1488,"o":"m 396 -7 l 122 833 l 14 894 l 14 917 l 506 917 l 506 894 l 389 840 l 540 350 l 550 350 l 790 924 l 892 924 l 1126 350 l 1136 350 l 1289 840 l 1171 894 l 1171 917 l 1488 917 l 1488 894 l 1394 847 l 1114 -7 l 1013 -7 l 767 569 l 757 569 l 497 -7 l 396 -7 m 821 986 l 932 1197 l 1110 1197 q 1097 1142 1110 1168 q 1049 1096 1085 1117 l 861 986 l 821 986 z "},"Ŵ":{"ha":1501,"x_min":14,"x_max":1488,"o":"m 396 -7 l 122 833 l 14 894 l 14 917 l 506 917 l 506 894 l 389 840 l 540 350 l 550 350 l 790 924 l 892 924 l 1126 350 l 1136 350 l 1289 840 l 1171 894 l 1171 917 l 1488 917 l 1488 894 l 1394 847 l 1114 -7 l 1013 -7 l 767 569 l 757 569 l 497 -7 l 396 -7 m 608 986 l 801 1197 l 882 1197 l 1075 986 l 1035 986 l 842 1065 l 649 986 l 608 986 z "},"Ẅ":{"ha":1501,"x_min":14,"x_max":1488,"o":"m 396 -7 l 122 833 l 14 894 l 14 917 l 506 917 l 506 894 l 389 840 l 540 350 l 550 350 l 790 924 l 892 924 l 1126 350 l 1136 350 l 1289 840 l 1171 894 l 1171 917 l 1488 917 l 1488 894 l 1394 847 l 1114 -7 l 1013 -7 l 767 569 l 757 569 l 497 -7 l 396 -7 m 699 1001 q 635 1028 660 1001 q 610 1090 610 1054 q 635 1153 610 1126 q 699 1179 660 1179 q 763 1153 738 1179 q 788 1090 788 1126 q 763 1028 788 1054 q 699 1001 738 1001 m 986 1001 q 922 1028 946 1001 q 897 1090 897 1054 q 922 1153 897 1126 q 986 1179 946 1179 q 1051 1153 1026 1179 q 1075 1090 1075 1126 q 1051 1028 1075 1054 q 986 1001 1026 1001 z "},"Ỳ":{"ha":1081,"x_min":14,"x_max":1067,"o":"m 290 0 l 290 22 l 414 81 l 414 428 l 114 836 l 14 894 l 14 917 l 504 917 l 504 894 l 397 840 l 397 835 l 635 515 l 847 832 l 847 838 l 736 894 l 736 917 l 1067 917 l 1067 894 l 971 849 l 678 428 l 678 81 l 801 22 l 801 0 l 290 0 m 593 986 l 406 1096 q 357 1143 369 1118 q 344 1197 344 1168 l 522 1197 l 633 986 l 593 986 z "},"Ý":{"ha":1081,"x_min":14,"x_max":1067,"o":"m 290 0 l 290 22 l 414 81 l 414 428 l 114 836 l 14 894 l 14 917 l 504 917 l 504 894 l 397 840 l 397 835 l 635 515 l 847 832 l 847 838 l 736 894 l 736 917 l 1067 917 l 1067 894 l 971 849 l 678 428 l 678 81 l 801 22 l 801 0 l 290 0 m 593 986 l 704 1197 l 882 1197 q 869 1142 882 1168 q 821 1096 857 1117 l 633 986 l 593 986 z "},"Ŷ":{"ha":1081,"x_min":14,"x_max":1067,"o":"m 290 0 l 290 22 l 414 81 l 414 428 l 114 836 l 14 894 l 14 917 l 504 917 l 504 894 l 397 840 l 397 835 l 635 515 l 847 832 l 847 838 l 736 894 l 736 917 l 1067 917 l 1067 894 l 971 849 l 678 428 l 678 81 l 801 22 l 801 0 l 290 0 m 381 986 l 574 1197 l 654 1197 l 847 986 l 807 986 l 614 1065 l 421 986 l 381 986 z "},"Ÿ":{"ha":1081,"x_min":14,"x_max":1067,"o":"m 290 0 l 290 22 l 414 81 l 414 428 l 114 836 l 14 894 l 14 917 l 504 917 l 504 894 l 397 840 l 397 835 l 635 515 l 847 832 l 847 838 l 736 894 l 736 917 l 1067 917 l 1067 894 l 971 849 l 678 428 l 678 81 l 801 22 l 801 0 l 290 0 m 471 1001 q 407 1028 432 1001 q 382 1090 382 1054 q 407 1153 382 1126 q 471 1179 432 1179 q 535 1153 510 1179 q 560 1090 560 1126 q 535 1028 560 1054 q 471 1001 510 1001 m 758 1001 q 694 1028 718 1001 q 669 1090 669 1054 q 694 1153 669 1126 q 758 1179 718 1179 q 823 1153 799 1179 q 847 1090 847 1126 q 823 1028 847 1054 q 758 1001 799 1001 z "},"Ỹ":{"ha":1081,"x_min":14,"x_max":1067,"o":"m 290 0 l 290 22 l 414 81 l 414 428 l 114 836 l 14 894 l 14 917 l 504 917 l 504 894 l 397 840 l 397 835 l 635 515 l 847 832 l 847 838 l 736 894 l 736 917 l 1067 917 l 1067 894 l 971 849 l 678 428 l 678 81 l 801 22 l 801 0 l 290 0 m 374 999 q 443 1145 407 1106 q 526 1185 479 1185 q 607 1166 569 1185 q 678 1128 644 1147 q 742 1110 711 1110 q 779 1123 763 1110 q 815 1185 796 1136 l 854 1185 q 785 1038 821 1078 q 701 999 749 999 q 621 1017 658 999 q 550 1055 583 1036 q 486 1074 517 1074 q 449 1060 465 1074 q 413 999 432 1047 l 374 999 z "},"Ȳ":{"ha":1081,"x_min":14,"x_max":1067,"o":"m 290 0 l 290 22 l 414 81 l 414 428 l 114 836 l 14 894 l 14 917 l 504 917 l 504 894 l 397 840 l 397 835 l 635 515 l 847 832 l 847 838 l 736 894 l 736 917 l 1067 917 l 1067 894 l 971 849 l 678 428 l 678 81 l 801 22 l 801 0 l 290 0 m 401 1044 l 401 1136 l 826 1136 l 826 1044 l 401 1044 z "},"Ỵ":{"ha":1081,"x_min":14,"x_max":1067,"o":"m 290 0 l 290 22 l 414 81 l 414 428 l 114 836 l 14 894 l 14 917 l 504 917 l 504 894 l 397 840 l 397 835 l 635 515 l 847 832 l 847 838 l 736 894 l 736 917 l 1067 917 l 1067 894 l 971 849 l 678 428 l 678 81 l 801 22 l 801 0 l 290 0 z "},"Ỷ":{"ha":1081,"x_min":14,"x_max":1067,"o":"m 290 0 l 290 22 l 414 81 l 414 428 l 114 836 l 14 894 l 14 917 l 504 917 l 504 894 l 397 840 l 397 835 l 635 515 l 847 832 l 847 838 l 736 894 l 736 917 l 1067 917 l 1067 894 l 971 849 l 678 428 l 678 81 l 801 22 l 801 0 l 290 0 m 543 990 l 543 992 q 606 1017 586 1006 q 625 1050 625 1029 q 603 1084 625 1071 q 529 1107 582 1097 l 551 1215 q 683 1173 646 1207 q 721 1103 721 1139 q 680 1017 721 1047 q 558 975 639 988 l 543 990 z "},"Ẏ":{"ha":1081,"x_min":14,"x_max":1067,"o":"m 290 0 l 290 22 l 414 81 l 414 428 l 114 836 l 14 894 l 14 917 l 504 917 l 504 894 l 397 840 l 397 835 l 635 515 l 847 832 l 847 838 l 736 894 l 736 917 l 1067 917 l 1067 894 l 971 849 l 678 428 l 678 81 l 801 22 l 801 0 l 290 0 m 614 997 q 533 1029 565 997 q 501 1110 501 1061 q 533 1190 501 1158 q 614 1222 565 1222 q 694 1190 663 1222 q 726 1110 726 1158 q 694 1029 726 1061 q 614 997 663 997 z "},"Ź":{"ha":1022,"x_min":111,"x_max":911,"o":"m 111 0 l 111 51 l 586 840 l 264 840 l 150 613 l 128 613 l 128 917 l 896 917 l 896 865 l 421 76 l 765 76 l 889 318 l 911 318 l 911 0 l 111 0 m 492 986 l 603 1197 l 781 1197 q 768 1142 781 1168 q 719 1096 756 1117 l 532 986 l 492 986 z "},"Ž":{"ha":1022,"x_min":111,"x_max":911,"o":"m 111 0 l 111 51 l 586 840 l 264 840 l 150 613 l 128 613 l 128 917 l 896 917 l 896 865 l 421 76 l 765 76 l 889 318 l 911 318 l 911 0 l 111 0 m 472 986 l 279 1197 l 319 1197 l 513 1118 l 706 1197 l 746 1197 l 553 986 l 472 986 z "},"Ż":{"ha":1022,"x_min":111,"x_max":911,"o":"m 111 0 l 111 51 l 586 840 l 264 840 l 150 613 l 128 613 l 128 917 l 896 917 l 896 865 l 421 76 l 765 76 l 889 318 l 911 318 l 911 0 l 111 0 m 513 997 q 432 1029 464 997 q 400 1110 400 1061 q 432 1190 400 1158 q 513 1222 464 1222 q 593 1190 561 1222 q 625 1110 625 1158 q 593 1029 625 1061 q 513 997 561 997 z "},"Ẓ":{"ha":1022,"x_min":111,"x_max":911,"o":"m 111 0 l 111 51 l 586 840 l 264 840 l 150 613 l 128 613 l 128 917 l 896 917 l 896 865 l 421 76 l 765 76 l 889 318 l 911 318 l 911 0 l 111 0 z "},"Ə":{"ha":943,"x_min":49,"x_max":894,"o":"m 410 -12 q 145 98 239 -12 q 50 406 51 208 l 57 415 l 629 415 l 629 425 q 563 649 629 569 q 347 728 497 728 q 205 706 286 728 q 54 636 124 685 l 49 636 l 49 710 q 144 822 83 772 q 288 901 206 872 q 465 931 369 931 q 694 877 597 931 q 842 727 790 824 q 894 500 894 631 q 858 294 894 388 q 755 131 821 200 q 601 25 689 63 q 410 -12 513 -12 m 463 76 q 578 146 539 76 q 626 342 618 215 l 297 342 q 324 183 301 240 q 381 101 346 125 q 463 76 415 76 z "},"Ŋ":{"ha":1149,"x_min":42,"x_max":1107,"o":"m 42 0 l 42 22 l 165 81 l 165 836 l 42 894 l 42 917 l 343 917 l 889 344 l 889 836 l 718 894 l 718 917 l 1107 917 l 1107 894 l 986 836 l 986 19 q 960 -170 986 -103 q 890 -274 935 -237 q 802 -319 853 -304 q 696 -335 751 -335 q 631 -326 642 -335 q 621 -294 621 -317 l 621 -182 l 629 -174 l 726 -174 q 851 -142 814 -174 q 889 -19 888 -111 l 263 629 l 263 81 l 433 22 l 433 0 l 42 0 z "},"Ð":{"ha":1139,"x_min":42,"x_max":1097,"o":"m 42 0 l 42 22 l 165 81 l 165 438 l 42 438 l 42 514 l 165 514 l 165 836 l 42 894 l 42 917 l 558 917 q 851 863 731 917 q 1034 714 971 808 q 1097 500 1097 619 q 1057 300 1097 392 q 942 142 1017 208 q 768 38 868 75 q 549 0 668 0 l 42 0 m 618 438 l 429 438 l 429 76 l 506 76 q 743 180 661 76 q 825 457 825 283 q 741 737 825 633 q 485 840 657 840 l 429 840 l 429 514 l 618 514 l 618 438 z "},"Þ":{"ha":990,"x_min":42,"x_max":963,"o":"m 42 0 l 42 22 l 165 81 l 165 836 l 42 894 l 42 917 l 553 917 l 553 894 l 429 836 l 429 731 l 600 731 q 790 705 708 731 q 917 625 872 679 q 963 485 963 571 q 910 347 963 406 q 769 257 858 289 q 567 225 681 225 l 429 225 l 429 81 l 553 22 l 553 0 l 42 0 m 454 654 l 429 654 l 429 288 l 464 288 q 636 340 574 288 q 699 471 699 393 q 635 611 699 568 q 454 654 572 654 z "},"Ǆ":{"ha":2161,"x_min":42,"x_max":2050,"o":"m 42 0 l 42 22 l 165 81 l 165 836 l 42 894 l 42 917 l 558 917 q 851 863 731 917 q 1034 714 971 808 q 1097 500 1097 619 q 1057 300 1097 392 q 942 142 1017 208 q 768 38 868 75 q 549 0 668 0 l 42 0 m 485 840 l 429 840 l 429 76 l 506 76 q 743 180 661 76 q 825 457 825 283 q 741 737 825 633 q 485 840 657 840 m 1250 0 l 1250 51 l 1725 840 l 1403 840 l 1289 613 l 1267 613 l 1267 917 l 2035 917 l 2035 865 l 1560 76 l 1904 76 l 2028 318 l 2050 318 l 2050 0 l 1250 0 m 1611 986 l 1418 1197 l 1458 1197 l 1651 1118 l 1844 1197 l 1885 1197 l 1692 986 l 1611 986 z "},"Ǉ":{"ha":1540,"x_min":42,"x_max":1499,"o":"m 42 0 l 42 22 l 165 81 l 165 836 l 42 894 l 42 917 l 567 917 l 567 894 l 429 836 l 429 76 l 714 76 l 839 360 l 861 360 l 861 0 l 42 0 m 994 -240 q 951 -200 951 -240 q 958 -147 951 -181 q 972 -78 964 -114 l 986 -78 q 1015 -85 1004 -83 q 1039 -87 1025 -87 q 1077 -77 1061 -87 q 1102 -33 1093 -67 q 1111 68 1111 0 l 1111 836 l 988 894 l 988 917 l 1499 917 l 1499 894 l 1375 836 l 1375 346 q 1354 192 1375 264 q 1301 62 1333 121 q 1236 -42 1269 3 q 1179 -115 1203 -86 q 1090 -202 1138 -164 q 994 -240 1042 -240 z "},"Ǌ":{"ha":1758,"x_min":42,"x_max":1717,"o":"m 42 0 l 42 22 l 165 81 l 165 836 l 42 894 l 42 917 l 343 917 l 889 344 l 889 836 l 718 894 l 718 917 l 1107 917 l 1107 894 l 986 836 l 986 -7 l 876 -7 l 263 629 l 263 81 l 433 22 l 433 0 l 42 0 m 1213 -240 q 1169 -200 1169 -240 q 1176 -147 1169 -181 q 1190 -78 1182 -114 l 1204 -78 q 1233 -85 1222 -83 q 1257 -87 1243 -87 q 1295 -77 1279 -87 q 1320 -33 1311 -67 q 1329 68 1329 0 l 1329 836 l 1206 894 l 1206 917 l 1717 917 l 1717 894 l 1593 836 l 1593 346 q 1572 192 1593 264 q 1519 62 1551 121 q 1454 -42 1488 3 q 1397 -115 1421 -86 q 1308 -202 1356 -164 q 1213 -240 1260 -240 z "},"Ђ":{"ha":1169,"x_min":28,"x_max":1114,"o":"m 186 0 l 186 22 l 339 81 l 339 840 l 172 840 l 50 638 l 28 638 l 28 917 l 942 917 l 942 665 l 919 665 l 797 840 l 603 840 l 603 474 q 703 538 639 507 q 863 569 768 569 q 1010 533 956 569 q 1090 433 1065 496 q 1114 294 1114 371 q 1094 157 1114 221 q 1047 40 1075 93 q 988 -53 1018 -12 q 936 -118 958 -93 q 840 -204 893 -168 q 733 -240 786 -240 q 690 -200 690 -240 q 697 -147 690 -181 q 711 -78 703 -114 l 725 -78 q 753 -85 743 -83 q 778 -87 764 -87 q 816 -77 800 -87 q 841 -33 832 -67 q 850 68 850 0 l 850 258 q 822 380 850 335 q 717 425 793 425 q 649 416 678 425 q 603 393 621 407 l 603 81 l 724 22 l 724 0 l 186 0 z "},"Є":{"ha":974,"x_min":49,"x_max":897,"o":"m 553 -14 q 349 21 442 -14 q 190 118 257 56 q 85 263 122 181 q 49 443 49 346 q 93 639 49 550 q 213 793 138 728 q 382 894 288 858 q 576 931 476 931 q 701 922 651 931 q 788 899 750 914 q 867 864 826 883 l 888 594 l 863 594 l 699 839 q 650 856 675 850 q 589 861 625 861 q 467 819 522 861 q 374 698 411 776 q 328 511 338 619 l 560 511 l 643 633 l 665 633 l 665 315 l 643 315 l 560 435 l 325 435 q 360 237 326 321 q 451 108 393 153 q 583 63 508 63 q 651 69 618 63 q 718 94 685 76 l 872 304 l 897 304 l 874 61 q 733 6 821 25 q 553 -14 644 -14 z "},"Ѕ":{"ha":832,"x_min":54,"x_max":771,"o":"m 383 -14 q 211 6 288 -14 q 68 61 135 26 l 54 301 l 81 301 l 203 113 q 272 76 232 90 q 354 61 311 61 q 473 92 425 61 q 521 189 521 122 q 503 255 521 228 q 436 309 486 282 q 288 378 386 336 q 136 483 189 418 q 83 632 83 547 q 115 749 83 694 q 200 844 147 804 q 319 908 253 885 q 453 931 385 931 q 600 913 528 931 q 728 864 672 894 l 742 642 l 717 642 l 601 804 q 537 841 569 828 q 464 854 504 854 q 374 822 410 854 q 339 732 339 789 q 356 674 339 700 q 413 622 372 647 q 525 565 453 597 q 712 444 653 510 q 771 282 771 379 q 717 124 771 190 q 575 22 664 58 q 383 -14 486 -14 z "},"І":{"ha":594,"x_min":42,"x_max":553,"o":"m 42 0 l 42 22 l 165 81 l 165 836 l 42 894 l 42 917 l 553 917 l 553 894 l 429 836 l 429 81 l 553 22 l 553 0 l 42 0 z "},"Ї":{"ha":594,"x_min":42,"x_max":553,"o":"m 42 0 l 42 22 l 165 81 l 165 836 l 42 894 l 42 917 l 553 917 l 553 894 l 429 836 l 429 81 l 553 22 l 553 0 l 42 0 m 154 1001 q 90 1028 115 1001 q 65 1090 65 1054 q 90 1153 65 1126 q 154 1179 115 1179 q 218 1153 193 1179 q 243 1090 243 1126 q 218 1028 243 1054 q 154 1001 193 1001 m 442 1001 q 377 1028 401 1001 q 353 1090 353 1054 q 377 1153 353 1126 q 442 1179 401 1179 q 506 1153 482 1179 q 531 1090 531 1126 q 506 1028 531 1054 q 442 1001 482 1001 z "},"Ј":{"ha":638,"x_min":49,"x_max":596,"o":"m 92 -240 q 49 -200 49 -240 q 55 -147 49 -181 q 69 -78 61 -114 l 83 -78 q 112 -85 101 -83 q 136 -87 122 -87 q 174 -77 158 -87 q 199 -33 190 -67 q 208 68 208 0 l 208 836 l 85 894 l 85 917 l 596 917 l 596 894 l 472 836 l 472 346 q 451 192 472 264 q 399 62 431 121 q 333 -42 367 3 q 276 -115 300 -86 q 187 -202 235 -164 q 92 -240 139 -240 z "},"Љ":{"ha":1403,"x_min":7,"x_max":1375,"o":"m 340 726 q 331 415 340 533 q 307 233 321 297 q 279 140 293 169 q 206 39 246 72 q 126 -4 165 6 q 54 -14 86 -14 q 15 -6 22 -14 q 7 26 7 3 l 7 153 l 15 161 l 28 161 q 117 188 78 161 q 185 279 157 215 q 228 451 213 343 q 243 722 243 560 l 243 836 l 121 894 l 121 917 l 988 917 l 988 894 l 836 836 l 836 551 l 960 551 q 1173 520 1079 551 q 1321 429 1267 489 q 1375 283 1375 369 q 1321 131 1375 194 q 1173 34 1267 68 q 960 0 1079 0 l 449 0 l 449 22 l 572 81 l 572 840 l 340 840 l 340 726 m 893 475 l 836 475 l 836 76 l 903 76 q 1054 134 999 76 q 1110 279 1110 192 q 1053 426 1110 378 q 893 475 997 475 z "},"Њ":{"ha":1588,"x_min":42,"x_max":1560,"o":"m 42 0 l 42 22 l 165 81 l 165 836 l 42 894 l 42 917 l 536 917 l 536 894 l 429 836 l 429 524 l 757 524 l 757 836 l 633 894 l 633 917 l 1172 917 l 1172 894 l 1021 836 l 1021 524 l 1144 524 q 1358 494 1264 524 q 1506 408 1451 465 q 1560 265 1560 350 q 1506 118 1560 176 q 1358 30 1451 60 q 1144 0 1264 0 l 633 0 l 633 22 l 757 81 l 757 447 l 429 447 l 429 81 l 536 22 l 536 0 l 42 0 m 1078 447 l 1021 447 l 1021 76 l 1088 76 q 1239 125 1183 76 q 1294 261 1294 174 q 1238 403 1294 358 q 1078 447 1182 447 z "},"Ћ":{"ha":1249,"x_min":28,"x_max":1235,"o":"m 186 0 l 186 22 l 339 81 l 339 840 l 172 840 l 50 638 l 28 638 l 28 917 l 942 917 l 942 651 l 919 651 l 797 840 l 603 840 l 603 474 q 703 538 639 507 q 863 569 768 569 q 1010 535 956 569 q 1090 441 1065 500 q 1114 310 1114 382 l 1114 81 l 1235 22 l 1235 0 l 850 0 l 850 258 q 822 378 850 331 q 717 425 793 425 q 649 416 678 425 q 603 393 621 407 l 603 81 l 724 22 l 724 0 l 186 0 z "},"Џ":{"ha":1156,"x_min":42,"x_max":1114,"o":"m 486 0 l 42 0 l 42 22 l 163 81 l 163 836 l 42 894 l 42 917 l 529 917 l 529 894 l 426 836 l 426 76 l 726 76 l 726 836 l 626 894 l 626 917 l 1114 917 l 1114 894 l 990 836 l 990 81 l 1114 22 l 1114 0 l 669 0 l 589 -244 l 567 -244 l 486 0 z "},"А":{"ha":1097,"x_min":14,"x_max":1083,"o":"m 14 0 l 14 22 l 96 71 l 464 924 l 624 924 l 988 71 l 1083 22 l 1083 0 l 583 0 l 583 22 l 703 74 l 614 288 l 290 288 l 201 74 l 315 22 l 315 0 l 14 0 m 322 364 l 582 364 l 453 674 l 322 364 z "},"Б":{"ha":996,"x_min":42,"x_max":968,"o":"m 553 0 l 42 0 l 42 22 l 165 81 l 165 836 l 42 894 l 42 917 l 863 917 l 863 675 l 840 675 l 726 840 l 429 840 l 429 524 l 553 524 q 766 497 672 524 q 914 416 860 471 q 968 276 968 361 q 914 127 968 189 q 766 33 860 65 q 553 0 672 0 m 486 461 l 429 461 l 429 76 l 496 76 q 647 131 592 76 q 703 272 703 185 q 647 415 703 369 q 486 461 590 461 z "},"В":{"ha":1024,"x_min":42,"x_max":996,"o":"m 42 0 l 42 22 l 165 81 l 165 836 l 42 894 l 42 917 l 546 917 q 733 894 650 917 q 863 826 815 871 q 911 711 911 781 q 853 581 911 640 q 690 497 796 521 q 914 418 832 478 q 996 267 996 358 q 942 130 996 190 q 794 35 888 69 q 581 0 700 0 l 42 0 m 454 840 l 429 840 l 429 504 l 461 504 q 598 549 549 504 q 647 667 647 593 q 599 796 647 751 q 454 840 551 840 m 500 442 l 429 442 l 429 76 l 510 76 q 661 129 606 76 q 717 263 717 182 q 660 397 717 353 q 500 442 604 442 z "},"Г":{"ha":878,"x_min":42,"x_max":836,"o":"m 42 0 l 42 22 l 165 81 l 165 836 l 42 894 l 42 917 l 836 917 l 836 675 l 814 675 l 700 840 l 429 840 l 429 81 l 582 22 l 582 0 l 42 0 z "},"Ѓ":{"ha":878,"x_min":42,"x_max":836,"o":"m 42 0 l 42 22 l 165 81 l 165 836 l 42 894 l 42 917 l 836 917 l 836 675 l 814 675 l 700 840 l 429 840 l 429 81 l 582 22 l 582 0 l 42 0 z "},"Ғ":{"ha":878,"x_min":42,"x_max":836,"o":"m 42 0 l 42 22 l 165 81 l 165 438 l 42 438 l 42 514 l 165 514 l 165 836 l 42 894 l 42 917 l 836 917 l 836 675 l 814 675 l 700 840 l 429 840 l 429 514 l 656 514 l 656 438 l 429 438 l 429 81 l 582 22 l 582 0 l 42 0 z "},"Д":{"ha":1032,"x_min":14,"x_max":990,"o":"m 119 894 l 119 917 l 969 917 l 969 894 l 849 836 l 849 76 l 990 76 l 990 -244 l 968 -244 l 818 0 l 186 0 l 36 -244 l 14 -244 l 14 76 l 135 76 q 205 315 182 196 q 235 559 228 435 q 242 819 242 683 l 242 836 l 119 894 m 585 76 l 585 840 l 339 840 l 339 824 q 332 555 339 679 q 304 314 325 431 q 243 76 283 197 l 585 76 z "},"Е":{"ha":972,"x_min":42,"x_max":889,"o":"m 42 0 l 42 22 l 165 81 l 165 836 l 42 894 l 42 917 l 850 917 l 850 675 l 828 675 l 714 840 l 429 840 l 429 511 l 629 511 l 713 633 l 735 633 l 735 315 l 713 315 l 629 435 l 429 435 l 429 76 l 743 76 l 867 304 l 889 304 l 889 0 l 42 0 z "},"Ё":{"ha":972,"x_min":42,"x_max":889,"o":"m 42 0 l 42 22 l 165 81 l 165 836 l 42 894 l 42 917 l 850 917 l 850 675 l 828 675 l 714 840 l 429 840 l 429 511 l 629 511 l 713 633 l 735 633 l 735 315 l 713 315 l 629 435 l 429 435 l 429 76 l 743 76 l 867 304 l 889 304 l 889 0 l 42 0 m 365 1001 q 301 1028 326 1001 q 276 1090 276 1054 q 301 1153 276 1126 q 365 1179 326 1179 q 429 1153 404 1179 q 454 1090 454 1126 q 429 1028 454 1054 q 365 1001 404 1001 m 653 1001 q 588 1028 613 1001 q 564 1090 564 1054 q 588 1153 564 1126 q 653 1179 613 1179 q 717 1153 693 1179 q 742 1090 742 1126 q 717 1028 742 1054 q 653 1001 693 1001 z "},"Ж":{"ha":1600,"x_min":6,"x_max":1594,"o":"m 558 0 l 558 22 l 668 81 l 668 836 l 558 894 l 558 917 l 1042 917 l 1042 894 l 932 836 l 932 81 l 1042 22 l 1042 0 l 558 0 m 932 458 l 1285 842 l 1176 894 l 1176 917 l 1526 917 l 1526 894 l 1411 843 l 1160 582 l 1492 65 l 1594 22 l 1594 0 l 1222 0 l 932 458 m 668 458 l 378 0 l 6 0 l 6 22 l 128 72 l 443 565 l 172 847 l 67 894 l 67 917 l 424 917 l 424 894 l 315 842 l 668 458 z "},"З":{"ha":900,"x_min":76,"x_max":858,"o":"m 433 931 q 616 908 533 931 q 748 838 699 885 q 797 721 797 792 q 738 583 797 646 q 571 496 679 521 q 781 417 704 476 q 858 272 858 358 q 801 122 858 186 q 643 22 743 58 q 417 -14 543 -14 q 240 6 326 -14 q 100 61 153 25 l 76 304 l 101 304 l 278 81 q 331 66 304 69 q 386 63 358 63 q 526 113 474 63 q 579 260 579 163 q 353 435 579 435 l 264 435 l 264 511 l 346 511 q 485 558 436 511 q 533 689 533 604 q 495 816 533 771 q 381 861 457 861 q 334 856 353 861 q 297 839 315 850 l 132 594 l 107 594 l 128 864 q 211 901 169 886 q 306 923 253 915 q 433 931 358 931 m 222 114 q 251 94 238 103 l 222 114 z "},"И":{"ha":1197,"x_min":42,"x_max":1156,"o":"m 42 0 l 42 22 l 165 81 l 165 836 l 42 894 l 42 917 l 536 917 l 536 894 l 429 836 l 429 278 l 771 772 l 771 836 l 661 894 l 661 917 l 1156 917 l 1156 894 l 1035 836 l 1035 81 l 1156 22 l 1156 0 l 661 0 l 661 22 l 771 81 l 771 647 l 429 153 l 429 81 l 536 22 l 536 0 l 42 0 z "},"Й":{"ha":1197,"x_min":42,"x_max":1156,"o":"m 42 0 l 42 22 l 165 81 l 165 836 l 42 894 l 42 917 l 536 917 l 536 894 l 429 836 l 429 278 l 771 772 l 771 836 l 661 894 l 661 917 l 1156 917 l 1156 894 l 1035 836 l 1035 81 l 1156 22 l 1156 0 l 661 0 l 661 22 l 771 81 l 771 647 l 429 153 l 429 81 l 536 22 l 536 0 l 42 0 m 594 989 q 403 1048 469 989 q 338 1197 338 1107 l 485 1197 q 511 1083 485 1126 q 594 1039 538 1039 q 678 1083 651 1039 q 704 1197 704 1126 l 851 1197 q 785 1048 851 1107 q 594 989 719 989 z "},"Ӣ":{"ha":1197,"x_min":42,"x_max":1156,"o":"m 42 0 l 42 22 l 165 81 l 165 836 l 42 894 l 42 917 l 536 917 l 536 894 l 429 836 l 429 278 l 771 772 l 771 836 l 661 894 l 661 917 l 1156 917 l 1156 894 l 1035 836 l 1035 81 l 1156 22 l 1156 0 l 661 0 l 661 22 l 771 81 l 771 647 l 429 153 l 429 81 l 536 22 l 536 0 l 42 0 z "},"К":{"ha":1125,"x_min":42,"x_max":1119,"o":"m 42 0 l 42 22 l 165 81 l 165 836 l 42 894 l 42 917 l 553 917 l 553 894 l 429 836 l 429 81 l 553 22 l 553 0 l 42 0 m 429 458 l 808 842 l 701 894 l 701 917 l 1051 917 l 1051 894 l 956 851 l 663 574 l 1014 65 l 1119 22 l 1119 0 l 740 0 l 429 458 z "},"Ќ":{"ha":1125,"x_min":42,"x_max":1119,"o":"m 42 0 l 42 22 l 165 81 l 165 836 l 42 894 l 42 917 l 553 917 l 553 894 l 429 836 l 429 81 l 553 22 l 553 0 l 42 0 m 429 458 l 808 842 l 701 894 l 701 917 l 1051 917 l 1051 894 l 956 851 l 663 574 l 1014 65 l 1119 22 l 1119 0 l 740 0 l 429 458 z "},"Л":{"ha":1013,"x_min":7,"x_max":971,"o":"m 465 0 l 465 22 l 586 81 l 586 840 l 340 840 l 340 726 q 331 415 340 533 q 307 233 321 297 q 279 140 293 169 q 206 39 246 72 q 126 -4 165 6 q 54 -14 86 -14 q 15 -6 22 -14 q 7 26 7 3 l 7 153 l 15 161 l 28 161 q 117 188 78 161 q 185 279 157 215 q 228 451 213 343 q 243 722 243 560 l 243 836 l 121 894 l 121 917 l 971 917 l 971 894 l 850 836 l 850 81 l 971 22 l 971 0 l 465 0 z "},"М":{"ha":1415,"x_min":42,"x_max":1374,"o":"m 42 0 l 42 22 l 165 81 l 194 838 l 71 894 l 71 917 l 471 917 l 725 329 l 972 917 l 1363 917 l 1363 894 l 1239 856 l 1263 81 l 1374 22 l 1374 0 l 888 0 l 888 22 l 1004 79 l 992 719 l 685 -7 l 596 -7 l 282 724 l 264 79 l 390 22 l 390 0 l 42 0 z "},"Н":{"ha":1183,"x_min":42,"x_max":1142,"o":"m 42 0 l 42 22 l 165 81 l 165 836 l 42 894 l 42 917 l 536 917 l 536 894 l 429 836 l 429 510 l 757 510 l 757 836 l 647 894 l 647 917 l 1142 917 l 1142 894 l 1021 836 l 1021 81 l 1142 22 l 1142 0 l 647 0 l 647 22 l 757 81 l 757 433 l 429 433 l 429 81 l 536 22 l 536 0 l 42 0 z "},"О":{"ha":1079,"x_min":49,"x_max":1031,"o":"m 539 -14 q 344 22 433 -14 q 189 120 256 57 q 85 269 122 183 q 49 458 49 356 q 85 647 49 561 q 189 797 122 733 q 344 895 256 860 q 539 931 433 931 q 734 895 644 931 q 890 797 824 860 q 994 647 957 733 q 1031 458 1031 561 q 994 269 1031 356 q 890 120 957 183 q 734 22 824 57 q 539 -14 644 -14 m 557 60 q 659 104 615 60 q 728 228 703 149 q 753 418 753 308 q 722 650 753 551 q 640 803 692 749 q 524 858 589 858 q 422 815 467 858 q 352 691 378 771 q 326 501 326 611 q 358 269 326 368 q 441 115 389 169 q 557 60 493 60 z "},"П":{"ha":1156,"x_min":42,"x_max":1114,"o":"m 42 0 l 42 22 l 165 81 l 165 836 l 42 894 l 42 917 l 1114 917 l 1114 894 l 993 836 l 993 81 l 1114 22 l 1114 0 l 629 0 l 629 22 l 729 81 l 729 840 l 429 840 l 429 81 l 529 22 l 529 0 l 42 0 z "},"Р":{"ha":990,"x_min":42,"x_max":963,"o":"m 42 0 l 42 22 l 165 81 l 165 836 l 42 894 l 42 917 l 600 917 q 790 891 708 917 q 917 811 872 865 q 963 671 963 757 q 910 533 963 592 q 769 443 858 475 q 567 411 681 411 l 429 411 l 429 81 l 582 22 l 582 0 l 42 0 m 429 840 l 429 474 l 464 474 q 636 526 574 474 q 699 657 699 579 q 635 797 699 754 q 454 840 572 840 l 429 840 z "},"С":{"ha":974,"x_min":49,"x_max":897,"o":"m 553 -14 q 349 21 442 -14 q 190 118 257 56 q 85 263 122 181 q 49 443 49 346 q 93 639 49 550 q 213 793 138 728 q 382 894 288 858 q 576 931 476 931 q 701 922 651 931 q 788 899 750 914 q 867 864 826 883 l 888 594 l 863 594 l 699 839 q 650 856 675 850 q 589 861 625 861 q 454 810 514 861 q 360 664 394 758 q 325 439 325 569 q 358 239 325 324 q 450 108 392 154 q 583 63 508 63 q 651 69 618 63 q 718 94 685 76 l 872 304 l 897 304 l 874 61 q 733 6 821 25 q 553 -14 644 -14 z "},"Т":{"ha":997,"x_min":42,"x_max":956,"o":"m 214 0 l 214 22 l 367 81 l 367 840 l 186 840 l 64 596 l 42 596 l 42 917 l 956 917 l 956 596 l 933 596 l 811 840 l 631 840 l 631 81 l 783 22 l 783 0 l 214 0 z "},"У":{"ha":1047,"x_min":13,"x_max":1068,"o":"m 525 108 q 447 30 483 56 q 376 -5 411 4 q 304 -14 342 -14 q 265 -6 272 -14 q 257 26 257 3 l 257 153 l 265 161 l 301 161 q 404 174 364 161 q 483 222 444 186 l 122 831 l 13 894 l 13 917 l 501 917 l 501 894 l 399 843 l 631 451 l 643 451 l 875 842 l 767 894 l 767 917 l 1068 917 l 1068 894 l 981 846 l 663 314 q 635 269 653 297 q 596 210 617 242 q 556 150 575 178 q 525 108 538 122 z "},"Ў":{"ha":1047,"x_min":13,"x_max":1068,"o":"m 525 108 q 447 30 483 56 q 376 -5 411 4 q 304 -14 342 -14 q 265 -6 272 -14 q 257 26 257 3 l 257 153 l 265 161 l 301 161 q 404 174 364 161 q 483 222 444 186 l 122 831 l 13 894 l 13 917 l 501 917 l 501 894 l 399 843 l 631 451 l 643 451 l 875 842 l 767 894 l 767 917 l 1068 917 l 1068 894 l 981 846 l 663 314 q 635 269 653 297 q 596 210 617 242 q 556 150 575 178 q 525 108 538 122 m 619 989 q 428 1048 494 989 q 363 1197 363 1107 l 510 1197 q 536 1083 510 1126 q 619 1039 563 1039 q 703 1083 676 1039 q 729 1197 729 1126 l 876 1197 q 810 1048 876 1107 q 619 989 744 989 z "},"Ӯ":{"ha":1047,"x_min":13,"x_max":1068,"o":"m 525 108 q 447 30 483 56 q 376 -5 411 4 q 304 -14 342 -14 q 265 -6 272 -14 q 257 26 257 3 l 257 153 l 265 161 l 301 161 q 404 174 364 161 q 483 222 444 186 l 122 831 l 13 894 l 13 917 l 501 917 l 501 894 l 399 843 l 631 451 l 643 451 l 875 842 l 767 894 l 767 917 l 1068 917 l 1068 894 l 981 846 l 663 314 q 635 269 653 297 q 596 210 617 242 q 556 150 575 178 q 525 108 538 122 z "},"Ф":{"ha":1292,"x_min":28,"x_max":1264,"o":"m 393 -28 l 393 -6 l 517 53 l 517 111 q 253 159 363 114 q 86 278 144 204 q 28 444 28 353 q 86 625 28 544 q 253 754 144 706 q 517 806 363 803 l 517 864 l 393 922 l 393 944 l 904 944 l 904 922 l 781 864 l 781 806 q 1041 756 933 801 q 1206 637 1149 711 q 1264 472 1264 563 q 1206 292 1264 372 q 1041 163 1149 211 q 781 111 933 114 l 781 53 l 904 -6 l 904 -28 l 393 -28 m 517 733 q 408 703 456 733 q 333 617 361 672 q 306 488 306 561 q 333 340 306 404 q 409 236 361 276 q 517 188 457 196 l 517 733 m 990 432 q 931 637 990 556 q 781 731 871 718 l 781 185 q 933 253 875 185 q 990 432 990 321 z "},"Х":{"ha":1119,"x_min":28,"x_max":1092,"o":"m 28 0 l 28 22 l 143 79 l 426 417 l 138 839 l 42 894 l 42 917 l 572 917 l 572 894 l 464 838 l 464 831 l 632 590 l 825 831 l 825 836 l 714 894 l 714 917 l 1063 917 l 1063 894 l 965 846 l 683 518 l 990 81 l 1092 22 l 1092 0 l 554 0 l 554 22 l 654 76 l 654 82 l 479 339 l 268 85 l 264 79 l 375 22 l 375 0 l 28 0 z "},"Ц":{"ha":1174,"x_min":42,"x_max":1132,"o":"m 960 0 l 42 0 l 42 22 l 163 81 l 163 836 l 42 894 l 42 917 l 526 917 l 526 894 l 426 836 l 426 76 l 726 76 l 726 836 l 626 894 l 626 917 l 1114 917 l 1114 894 l 990 836 l 990 76 l 1132 76 l 1132 -244 l 1110 -244 l 960 0 z "},"Ч":{"ha":1128,"x_min":14,"x_max":1086,"o":"m 564 0 l 564 22 l 701 81 l 701 421 q 587 381 654 397 q 444 364 519 364 q 278 391 347 364 q 174 484 210 418 q 138 667 138 550 l 138 836 l 14 894 l 14 917 l 508 917 l 508 894 l 401 836 l 401 658 q 440 509 401 550 q 563 468 478 468 q 632 474 596 468 q 701 497 668 481 l 701 836 l 592 894 l 592 917 l 1086 917 l 1086 894 l 965 836 l 965 81 l 1086 22 l 1086 0 l 564 0 z "},"Ш":{"ha":1564,"x_min":42,"x_max":1522,"o":"m 513 917 l 513 894 l 426 836 l 426 76 l 649 76 l 649 836 l 563 894 l 563 917 l 999 917 l 999 894 l 913 836 l 913 76 l 1135 76 l 1135 836 l 1057 894 l 1057 917 l 1522 917 l 1522 894 l 1399 836 l 1399 81 l 1522 22 l 1522 0 l 42 0 l 42 22 l 163 81 l 163 836 l 42 894 l 42 917 l 513 917 z "},"Щ":{"ha":1582,"x_min":42,"x_max":1540,"o":"m 513 917 l 513 894 l 426 836 l 426 76 l 649 76 l 649 836 l 563 894 l 563 917 l 999 917 l 999 894 l 913 836 l 913 76 l 1135 76 l 1135 836 l 1057 894 l 1057 917 l 1522 917 l 1522 894 l 1399 836 l 1399 76 l 1540 76 l 1540 -244 l 1518 -244 l 1368 0 l 42 0 l 42 22 l 163 81 l 163 836 l 42 894 l 42 917 l 513 917 z "},"Ъ":{"ha":1135,"x_min":42,"x_max":1107,"o":"m 692 0 l 181 0 l 181 22 l 304 81 l 304 840 l 186 840 l 64 596 l 42 596 l 42 917 l 719 917 l 719 894 l 568 836 l 568 551 l 692 551 q 905 520 811 551 q 1053 429 999 489 q 1107 283 1107 369 q 1053 131 1107 194 q 905 34 999 68 q 692 0 811 0 m 625 475 l 568 475 l 568 76 l 635 76 q 786 134 731 76 q 842 279 842 192 q 785 426 842 378 q 625 475 729 475 z "},"Ы":{"ha":1590,"x_min":42,"x_max":1549,"o":"m 553 0 l 42 0 l 42 22 l 165 81 l 165 836 l 42 894 l 42 917 l 581 917 l 581 894 l 429 836 l 429 551 l 553 551 q 766 520 672 551 q 914 429 860 489 q 968 283 968 369 q 914 131 968 194 q 766 34 860 68 q 553 0 672 0 m 486 475 l 429 475 l 429 76 l 496 76 q 647 134 592 76 q 703 279 703 192 q 647 426 703 378 q 486 475 590 475 m 1038 0 l 1038 22 l 1161 81 l 1161 836 l 1038 894 l 1038 917 l 1549 917 l 1549 894 l 1425 836 l 1425 81 l 1549 22 l 1549 0 l 1038 0 z "},"Ь":{"ha":996,"x_min":42,"x_max":968,"o":"m 553 0 l 42 0 l 42 22 l 165 81 l 165 836 l 42 894 l 42 917 l 581 917 l 581 894 l 429 836 l 429 551 l 553 551 q 766 520 672 551 q 914 429 860 489 q 968 283 968 369 q 914 131 968 194 q 766 34 860 68 q 553 0 672 0 m 486 475 l 429 475 l 429 76 l 496 76 q 647 134 592 76 q 703 279 703 192 q 647 426 703 378 q 486 475 590 475 z "},"Э":{"ha":974,"x_min":76,"x_max":925,"o":"m 397 60 q 586 157 525 60 q 647 418 647 254 q 647 438 647 428 l 432 438 l 349 315 l 326 315 l 326 633 l 349 633 l 432 514 l 643 514 q 561 765 626 672 q 397 858 496 858 q 339 854 364 858 q 289 838 314 850 l 125 594 l 100 594 l 121 864 q 251 912 181 893 q 433 931 321 931 q 628 895 539 931 q 785 797 718 860 q 888 647 851 733 q 925 458 925 561 q 888 269 925 356 q 785 120 851 183 q 628 22 718 57 q 433 -14 539 -14 q 309 -5 372 -14 q 191 21 246 4 q 100 61 136 38 l 76 304 l 101 304 l 256 94 q 326 68 290 76 q 397 60 363 60 z "},"Ю":{"ha":1538,"x_min":42,"x_max":1489,"o":"m 42 0 l 42 22 l 165 81 l 165 836 l 42 894 l 42 917 l 536 917 l 536 894 l 429 836 l 429 510 l 538 510 q 613 727 549 632 q 781 876 678 822 q 1011 931 883 931 q 1201 895 1114 931 q 1352 797 1288 860 q 1453 647 1417 733 q 1489 458 1489 561 q 1453 269 1489 356 q 1352 120 1417 183 q 1201 22 1288 57 q 1011 -14 1114 -14 q 774 44 879 -14 q 605 203 668 101 q 535 433 542 304 l 429 433 l 429 81 l 536 22 l 536 0 l 42 0 m 1029 60 q 1161 157 1111 60 q 1211 418 1211 254 q 1183 650 1211 551 q 1105 803 1154 749 q 996 858 1056 858 q 903 815 944 858 q 837 691 861 771 q 813 501 813 611 q 842 269 813 368 q 920 115 871 169 q 1029 60 969 60 z "},"Я":{"ha":1104,"x_min":21,"x_max":1063,"o":"m 381 0 l 21 0 l 21 22 l 126 82 l 371 442 q 202 524 253 468 q 151 660 151 581 q 254 848 151 779 q 535 917 357 917 l 1063 917 l 1063 894 l 939 836 l 939 81 l 1063 22 l 1063 0 l 571 0 l 571 22 l 675 82 l 675 410 l 635 410 l 381 0 m 622 472 l 675 472 l 675 840 l 624 840 q 468 794 525 840 q 411 660 411 749 q 464 524 411 576 q 622 472 517 472 z "},"Ґ":{"ha":836,"x_min":42,"x_max":836,"o":"m 42 0 l 42 22 l 165 81 l 165 836 l 42 894 l 42 917 l 664 917 l 814 1161 l 836 1161 l 836 840 l 429 840 l 429 81 l 582 22 l 582 0 l 42 0 z "},"Қ":{"ha":1125,"x_min":42,"x_max":1119,"o":"m 42 0 l 42 22 l 165 81 l 165 836 l 42 894 l 42 917 l 553 917 l 553 894 l 429 836 l 429 81 l 553 22 l 553 0 l 42 0 m 429 458 l 808 842 l 701 894 l 701 917 l 1051 917 l 1051 894 l 956 851 l 663 574 l 1007 76 l 1119 76 l 1119 -244 l 1097 -244 l 947 0 l 740 0 l 429 458 z "},"Җ":{"ha":1600,"x_min":6,"x_max":1594,"o":"m 558 0 l 558 22 l 668 81 l 668 836 l 558 894 l 558 917 l 1042 917 l 1042 894 l 932 836 l 932 81 l 1042 22 l 1042 0 l 558 0 m 932 458 l 1285 842 l 1176 894 l 1176 917 l 1526 917 l 1526 894 l 1411 843 l 1160 582 l 1483 76 l 1594 76 l 1594 -244 l 1572 -244 l 1422 0 l 1222 0 l 932 458 m 668 458 l 378 0 l 6 0 l 6 22 l 128 72 l 443 565 l 172 847 l 67 894 l 67 917 l 424 917 l 424 894 l 315 842 l 668 458 z "},"Ҳ":{"ha":1119,"x_min":28,"x_max":1092,"o":"m 28 0 l 28 22 l 143 79 l 426 417 l 138 839 l 42 894 l 42 917 l 572 917 l 572 894 l 464 838 l 464 831 l 632 590 l 825 831 l 825 836 l 714 894 l 714 917 l 1063 917 l 1063 894 l 965 846 l 683 518 l 993 76 l 1092 76 l 1092 -244 l 1069 -244 l 919 0 l 554 0 l 554 22 l 654 76 l 654 82 l 479 339 l 268 85 l 264 79 l 375 22 l 375 0 l 28 0 z "},"Ң":{"ha":1204,"x_min":42,"x_max":1163,"o":"m 42 0 l 42 22 l 165 81 l 165 836 l 42 894 l 42 917 l 536 917 l 536 894 l 429 836 l 429 510 l 757 510 l 757 836 l 647 894 l 647 917 l 1142 917 l 1142 894 l 1021 836 l 1021 76 l 1163 76 l 1163 -244 l 1140 -244 l 990 0 l 647 0 l 647 22 l 757 81 l 757 433 l 429 433 l 429 81 l 536 22 l 536 0 l 42 0 z "},"Ҷ":{"ha":1149,"x_min":14,"x_max":1107,"o":"m 138 667 l 138 836 l 14 894 l 14 917 l 508 917 l 508 894 l 401 836 l 401 658 q 440 509 401 550 q 563 468 478 468 q 632 474 596 468 q 701 497 668 481 l 701 836 l 592 894 l 592 917 l 1086 917 l 1086 894 l 965 836 l 965 76 l 1107 76 l 1107 -244 l 1085 -244 l 935 0 l 564 0 l 564 22 l 701 81 l 701 421 q 587 381 654 397 q 444 364 519 364 q 278 391 347 364 q 174 484 210 418 q 138 667 138 550 z "},"Ү":{"ha":1081,"x_min":14,"x_max":1067,"o":"m 290 0 l 290 22 l 414 81 l 414 428 l 114 836 l 14 894 l 14 917 l 504 917 l 504 894 l 397 840 l 397 835 l 635 515 l 847 832 l 847 838 l 736 894 l 736 917 l 1067 917 l 1067 894 l 971 849 l 678 428 l 678 81 l 801 22 l 801 0 l 290 0 z "},"Ұ":{"ha":1081,"x_min":14,"x_max":1067,"o":"m 290 0 l 290 22 l 414 81 l 414 351 l 219 351 l 219 428 l 414 428 l 414 428 l 114 836 l 14 894 l 14 917 l 504 917 l 504 894 l 397 840 l 397 835 l 635 515 l 847 832 l 847 838 l 736 894 l 736 917 l 1067 917 l 1067 894 l 971 849 l 678 428 l 678 428 l 872 428 l 872 351 l 678 351 l 678 81 l 801 22 l 801 0 l 290 0 z "},"Һ":{"ha":1128,"x_min":42,"x_max":1114,"o":"m 564 917 l 564 894 l 426 836 l 426 496 q 541 536 474 519 q 683 553 608 553 q 849 526 781 553 q 954 433 918 499 q 990 250 990 367 l 990 81 l 1114 22 l 1114 0 l 619 0 l 619 22 l 726 81 l 726 258 q 688 408 726 367 q 565 449 650 449 q 496 442 532 449 q 426 419 460 436 l 426 81 l 536 22 l 536 0 l 42 0 l 42 22 l 163 81 l 163 836 l 42 894 l 42 917 l 564 917 z "},"Ӏ":{"ha":594,"x_min":42,"x_max":553,"o":"m 42 0 l 42 22 l 165 81 l 165 836 l 42 894 l 42 917 l 553 917 l 553 894 l 429 836 l 429 81 l 553 22 l 553 0 l 42 0 z "},"Ә":{"ha":943,"x_min":49,"x_max":894,"o":"m 410 -12 q 145 98 239 -12 q 50 406 51 208 l 57 415 l 629 415 l 629 425 q 563 649 629 569 q 347 728 497 728 q 205 706 286 728 q 54 636 124 685 l 49 636 l 49 710 q 144 822 83 772 q 288 901 206 872 q 465 931 369 931 q 694 877 597 931 q 842 727 790 824 q 894 500 894 631 q 858 294 894 388 q 755 131 821 200 q 601 25 689 63 q 410 -12 513 -12 m 463 76 q 578 146 539 76 q 626 342 618 215 l 297 342 q 324 183 301 240 q 381 101 346 125 q 463 76 415 76 z "},"Ө":{"ha":1079,"x_min":49,"x_max":1031,"o":"m 539 -14 q 344 22 433 -14 q 189 120 256 57 q 85 269 122 183 q 49 458 49 356 q 85 647 49 561 q 189 797 122 733 q 344 895 256 860 q 539 931 433 931 q 734 895 644 931 q 890 797 824 860 q 994 647 957 733 q 1031 458 1031 561 q 994 269 1031 356 q 890 120 957 183 q 734 22 824 57 q 539 -14 644 -14 m 524 858 q 422 815 467 858 q 352 692 378 771 q 326 510 326 614 l 749 510 q 671 765 733 671 q 524 858 608 858 m 557 60 q 659 104 615 60 q 728 228 703 149 q 753 418 753 308 q 753 420 753 418 q 753 433 753 422 l 329 433 q 369 235 336 319 q 450 106 401 151 q 557 60 499 60 z "},"Ѣ":{"ha":1100,"x_min":28,"x_max":1072,"o":"m 671 0 l 160 0 l 160 22 l 283 81 l 283 690 l 172 690 l 50 515 l 28 515 l 28 767 l 283 767 l 283 836 l 160 894 l 160 917 l 699 917 l 699 894 l 547 836 l 547 767 l 844 767 l 844 515 l 822 515 l 700 690 l 547 690 l 547 468 l 671 468 q 877 442 786 468 q 1020 365 968 415 q 1072 242 1072 314 q 1020 112 1072 165 q 877 29 968 58 q 671 0 786 0 m 604 392 l 547 392 l 547 76 l 614 76 q 755 123 703 76 q 807 238 807 169 q 755 353 807 314 q 604 392 703 392 z "},"Ѳ":{"ha":1079,"x_min":49,"x_max":1031,"o":"m 539 -14 q 344 22 433 -14 q 189 120 256 57 q 85 269 122 183 q 49 458 49 356 q 85 647 49 561 q 189 797 122 733 q 344 895 256 860 q 539 931 433 931 q 734 895 644 931 q 890 797 824 860 q 994 647 957 733 q 1031 458 1031 561 q 994 269 1031 356 q 890 120 957 183 q 734 22 824 57 q 539 -14 644 -14 m 326 501 q 326 500 326 501 q 326 490 326 499 q 458 547 403 536 q 553 547 513 557 q 626 520 594 536 q 688 497 658 504 q 749 504 717 489 q 672 763 735 667 q 524 858 610 858 q 422 815 467 858 q 352 691 378 771 q 326 501 326 611 m 557 60 q 659 104 615 60 q 728 228 703 149 q 753 418 753 308 q 753 420 753 418 q 753 436 753 422 q 631 376 682 388 q 543 376 581 365 q 474 404 506 388 q 408 428 442 421 q 331 418 374 436 q 372 228 339 308 q 452 103 404 147 q 557 60 500 60 z "},"Ѵ":{"ha":1060,"x_min":13,"x_max":1067,"o":"m 740 603 q 767 673 750 628 q 809 767 785 718 q 861 850 833 817 q 939 913 899 894 q 1019 931 979 931 q 1058 922 1050 931 q 1067 890 1067 914 l 1067 764 l 1058 756 l 1022 756 q 956 751 982 756 q 909 727 929 746 q 869 669 889 708 q 822 563 850 631 l 596 -7 l 494 -7 l 114 836 l 13 894 l 13 917 l 501 917 l 501 894 l 394 842 l 624 333 l 635 333 l 740 603 z "},"ȷ":{"ha":474,"x_min":28,"x_max":369,"o":"m 369 54 q 354 -67 369 -15 q 301 -159 339 -118 q 198 -238 264 -200 q 32 -319 132 -276 l 32 -292 q 91 -238 72 -261 q 115 -188 110 -215 q 119 -119 119 -161 l 119 494 l 28 554 l 28 576 l 347 653 l 369 653 l 369 54 z "},"ĸ":{"ha":878,"x_min":28,"x_max":892,"o":"m 28 0 l 28 22 l 124 67 l 124 494 l 32 554 l 32 576 l 351 653 l 374 653 l 374 369 l 572 558 l 572 567 l 504 617 l 504 639 l 817 639 l 817 617 l 728 568 l 564 436 l 803 69 l 892 22 l 892 0 l 564 0 l 528 72 l 374 326 l 374 67 l 457 22 l 457 0 l 28 0 z "},"ẗ":{"ha":565,"x_min":7,"x_max":553,"o":"m 319 -14 q 158 22 219 -14 q 97 124 97 58 l 97 578 l 7 578 l 7 604 l 142 639 l 307 792 l 347 792 l 347 639 l 544 639 l 544 578 l 347 578 l 347 167 q 377 114 347 131 q 447 97 407 97 q 491 100 472 97 q 531 107 510 103 l 535 104 l 535 74 q 445 13 507 39 q 319 -14 383 -14 m 176 907 q 113 933 138 907 q 88 996 88 960 q 113 1058 88 1032 q 176 1085 138 1085 q 240 1058 215 1085 q 265 996 265 1032 q 240 933 265 960 q 176 907 215 907 m 464 907 q 399 933 424 907 q 375 996 375 960 q 399 1058 375 1032 q 464 1085 424 1085 q 528 1058 504 1085 q 553 996 553 1032 q 528 933 553 960 q 464 907 504 907 z "},"a":{"ha":957,"x_min":14,"x_max":943,"o":"m 14 0 l 14 22 l 86 64 l 396 785 l 551 785 l 854 78 l 943 22 l 943 0 l 499 0 l 499 22 l 599 65 l 525 243 l 250 243 l 176 67 l 272 22 l 272 0 l 14 0 m 281 315 l 494 315 l 388 569 l 281 315 z "},"b":{"ha":914,"x_min":42,"x_max":886,"o":"m 42 0 l 42 22 l 147 68 l 147 710 l 42 756 l 42 778 l 504 778 q 662 758 592 778 q 773 701 732 739 q 814 604 814 663 q 765 494 814 544 q 626 424 715 444 q 817 357 749 408 q 886 226 886 306 q 840 110 886 161 q 715 30 794 60 q 533 0 635 0 l 42 0 m 557 567 q 404 706 557 700 l 404 433 q 516 470 475 435 q 557 567 557 506 m 432 371 l 404 371 l 404 72 l 439 72 q 568 114 521 72 q 615 224 615 156 q 568 335 615 300 q 432 371 521 371 z "},"c":{"ha":881,"x_min":51,"x_max":804,"o":"m 507 -14 q 271 36 374 -14 q 110 174 168 86 q 51 375 51 261 q 91 549 51 471 q 198 681 131 626 q 351 764 265 735 q 526 793 436 793 q 635 785 592 793 q 711 765 678 778 q 779 736 744 753 l 796 507 l 772 507 l 633 703 q 594 717 614 713 q 543 721 574 721 q 429 678 481 721 q 348 557 378 636 q 318 371 318 478 q 380 143 318 228 q 538 58 442 58 q 590 63 565 58 q 642 79 615 67 l 781 257 l 804 257 l 785 50 q 663 3 738 19 q 507 -14 588 -14 z "},"d":{"ha":1014,"x_min":42,"x_max":972,"o":"m 42 0 l 42 22 l 147 68 l 147 710 l 42 756 l 42 778 l 514 778 q 762 731 660 778 q 918 605 864 685 q 972 425 972 525 q 912 206 972 303 q 747 55 851 110 q 506 0 642 0 l 42 0 m 418 706 l 404 706 l 404 72 l 436 72 q 638 156 568 72 q 707 389 707 239 q 635 622 707 539 q 418 706 564 706 z "},"e":{"ha":851,"x_min":42,"x_max":796,"o":"m 42 0 l 42 22 l 147 68 l 147 710 l 42 756 l 42 778 l 763 778 l 763 561 l 740 561 l 635 706 l 404 706 l 404 433 l 564 433 l 643 538 l 664 538 l 664 268 l 643 268 l 564 371 l 404 371 l 404 72 l 660 72 l 774 269 l 796 269 l 796 0 l 42 0 z "},"f":{"ha":806,"x_min":42,"x_max":750,"o":"m 42 0 l 42 22 l 147 68 l 147 710 l 42 756 l 42 778 l 750 778 l 750 561 l 732 561 l 636 706 l 404 706 l 404 433 l 554 433 l 633 538 l 653 538 l 653 268 l 633 268 l 554 371 l 404 371 l 404 68 l 535 22 l 535 0 l 42 0 z "},"g":{"ha":928,"x_min":51,"x_max":904,"o":"m 483 -14 q 268 34 367 -14 q 110 170 169 82 q 51 378 51 258 q 90 550 51 474 q 195 681 128 626 q 350 765 263 736 q 536 793 438 793 q 690 776 628 793 q 803 736 751 760 l 819 521 l 794 521 l 678 692 q 622 715 649 708 q 558 721 596 721 q 378 625 438 721 q 318 374 318 529 q 340 213 318 283 q 410 101 363 142 q 536 60 458 60 q 554 61 544 60 l 554 281 l 449 339 l 449 360 l 904 360 l 904 339 l 811 281 l 811 85 q 728 33 781 56 q 612 -1 675 11 q 483 -14 549 -14 z "},"h":{"ha":1051,"x_min":42,"x_max":1010,"o":"m 42 0 l 42 22 l 147 68 l 147 710 l 42 756 l 42 778 l 496 778 l 496 756 l 404 710 l 404 436 l 650 436 l 650 710 l 557 756 l 557 778 l 1010 778 l 1010 756 l 907 710 l 907 68 l 1010 22 l 1010 0 l 557 0 l 557 22 l 650 68 l 650 364 l 404 364 l 404 68 l 496 22 l 496 0 l 42 0 z "},"i":{"ha":536,"x_min":42,"x_max":494,"o":"m 42 0 l 42 22 l 135 68 l 135 710 l 42 756 l 42 778 l 494 778 l 494 756 l 392 710 l 392 68 l 494 22 l 494 0 l 42 0 z "},"ı":{"ha":536,"x_min":42,"x_max":494,"o":"m 42 0 l 42 22 l 135 68 l 135 710 l 42 756 l 42 778 l 494 778 l 494 756 l 392 710 l 392 68 l 494 22 l 494 0 l 42 0 z "},"j":{"ha":583,"x_min":24,"x_max":542,"o":"m 85 -204 q 42 -196 61 -204 q 24 -158 24 -187 q 28 -127 24 -156 q 39 -58 33 -99 l 51 -58 q 76 -66 64 -62 q 100 -69 88 -69 q 148 -57 131 -69 q 173 -7 165 -44 q 181 106 181 31 l 181 710 l 75 756 l 75 778 l 542 778 l 542 756 l 438 710 l 438 294 q 418 166 438 226 q 371 56 399 106 q 315 -32 343 6 q 269 -90 286 -69 q 183 -169 233 -135 q 85 -204 133 -204 z "},"k":{"ha":1033,"x_min":44,"x_max":1028,"o":"m 44 0 l 44 22 l 150 68 l 150 710 l 44 756 l 44 778 l 513 778 l 513 756 l 407 710 l 407 68 l 513 22 l 513 0 l 44 0 m 672 0 l 407 390 l 725 714 l 636 756 l 636 778 l 932 778 l 932 756 l 849 719 l 626 506 l 938 57 l 1028 22 l 1028 0 l 672 0 z "},"l":{"ha":828,"x_min":42,"x_max":772,"o":"m 42 0 l 42 22 l 147 68 l 147 710 l 42 756 l 42 778 l 521 778 l 521 756 l 404 710 l 404 72 l 632 72 l 750 317 l 772 317 l 772 0 l 42 0 z "},"m":{"ha":1254,"x_min":42,"x_max":1213,"o":"m 42 0 l 42 22 l 147 69 l 171 711 l 67 756 l 67 778 l 446 778 l 643 322 l 833 778 l 1203 778 l 1203 756 l 1099 724 l 1118 69 l 1213 22 l 1213 0 l 761 0 l 761 22 l 860 68 l 849 610 l 589 -6 l 513 -6 l 246 611 l 232 68 l 339 22 l 339 0 l 42 0 z "},"n":{"ha":1022,"x_min":42,"x_max":981,"o":"m 42 0 l 42 24 l 147 69 l 147 710 l 42 756 l 42 778 l 331 778 l 788 300 l 788 710 l 642 756 l 642 778 l 981 778 l 981 756 l 878 710 l 878 -6 l 751 -6 l 238 526 l 238 69 l 383 24 l 383 0 l 42 0 z "},"o":{"ha":964,"x_min":49,"x_max":915,"o":"m 482 -14 q 258 39 356 -14 q 104 183 160 92 q 49 390 49 275 q 104 597 49 506 q 258 742 160 689 q 482 794 356 794 q 706 742 608 794 q 860 597 804 689 q 915 390 915 506 q 860 183 915 275 q 706 39 804 92 q 482 -14 608 -14 m 499 60 q 578 99 544 60 q 629 204 611 138 q 647 356 647 271 q 624 544 647 461 q 561 674 601 626 q 469 722 521 722 q 390 683 425 722 q 337 578 356 644 q 318 426 318 511 q 342 239 318 322 q 406 108 365 156 q 499 60 447 60 z "},"p":{"ha":872,"x_min":42,"x_max":844,"o":"m 42 0 l 42 22 l 147 68 l 147 710 l 42 756 l 42 778 l 536 778 q 760 728 675 778 q 844 571 844 679 q 800 453 844 503 q 679 374 756 403 q 507 346 603 346 l 404 346 l 404 68 l 535 22 l 535 0 l 42 0 m 404 706 l 404 408 l 419 408 q 546 449 506 408 q 586 558 586 490 q 544 671 586 636 q 411 706 501 706 l 404 706 z "},"q":{"ha":964,"x_min":49,"x_max":1097,"o":"m 921 -221 q 692 -175 813 -221 q 411 -10 571 -129 q 222 60 304 6 q 94 200 140 115 q 49 390 49 285 q 104 597 49 506 q 258 742 160 689 q 482 794 356 794 q 706 742 608 794 q 860 597 804 689 q 915 390 915 506 q 849 167 915 264 q 671 22 782 69 l 672 22 q 869 -121 790 -83 q 1003 -158 947 -158 q 1059 -153 1036 -158 q 1097 -144 1082 -149 l 1097 -183 q 1025 -209 1067 -197 q 921 -221 983 -221 m 499 60 q 578 99 544 60 q 629 204 611 138 q 647 356 647 271 q 624 544 647 461 q 561 674 601 626 q 469 722 521 722 q 390 683 425 722 q 337 578 356 644 q 318 426 318 511 q 342 239 318 322 q 406 108 365 156 q 499 60 447 60 z "},"r":{"ha":947,"x_min":42,"x_max":961,"o":"m 42 0 l 42 22 l 147 68 l 147 710 l 42 756 l 42 778 l 543 778 q 739 729 667 778 q 811 594 811 681 q 775 490 811 533 q 660 418 739 446 l 871 69 l 961 22 l 961 0 l 615 0 l 431 354 l 404 354 l 404 69 l 493 22 l 493 0 l 42 0 m 424 717 l 404 717 l 404 417 l 425 417 q 528 460 499 417 q 557 571 557 503 q 526 679 557 642 q 424 717 496 717 z "},"s":{"ha":725,"x_min":54,"x_max":664,"o":"m 333 -14 q 188 4 253 -14 q 67 50 122 22 l 54 254 l 76 254 l 196 88 q 319 58 253 58 q 417 81 381 58 q 454 146 454 103 q 438 199 454 178 q 377 242 421 219 q 253 301 333 264 q 124 398 168 340 q 79 535 79 456 q 122 665 79 606 q 237 758 165 724 q 393 793 308 793 q 521 778 461 793 q 626 736 581 764 l 639 543 l 617 543 l 488 707 q 403 721 453 721 q 326 697 357 721 q 296 629 296 672 q 310 583 296 603 q 360 542 325 563 q 454 492 394 521 q 613 382 561 439 q 664 238 664 325 q 620 103 664 160 q 501 17 576 47 q 333 -14 426 -14 m 156 117 q 169 104 163 110 l 156 117 z "},"t":{"ha":893,"x_min":42,"x_max":851,"o":"m 188 0 l 188 22 l 318 68 l 318 706 l 174 706 l 64 494 l 42 494 l 42 778 l 851 778 l 851 494 l 831 494 l 719 706 l 575 706 l 575 68 l 706 22 l 706 0 l 188 0 z "},"u":{"ha":1057,"x_min":42,"x_max":1015,"o":"m 536 -14 q 337 19 425 -14 q 199 133 249 53 q 149 350 149 213 l 149 708 l 42 756 l 42 778 l 513 778 l 513 756 l 406 708 l 406 340 q 433 189 406 244 q 510 110 461 133 q 618 88 558 88 q 717 108 672 88 q 790 176 763 129 q 817 299 817 222 l 817 711 l 710 756 l 710 778 l 1015 778 l 1015 756 l 908 710 l 908 326 q 815 69 908 153 q 536 -14 722 -14 z "},"v":{"ha":958,"x_min":14,"x_max":944,"o":"m 424 -7 l 101 703 l 14 754 l 14 778 l 463 778 l 463 754 l 372 713 l 569 278 l 582 278 l 779 710 l 685 754 l 685 778 l 944 778 l 944 754 l 874 715 l 543 -7 l 424 -7 z "},"w":{"ha":1356,"x_min":14,"x_max":1342,"o":"m 339 -7 l 108 700 l 14 756 l 14 778 l 469 778 l 469 756 l 371 711 l 497 301 l 504 301 l 704 778 l 835 778 l 1035 301 l 1042 301 l 1169 713 l 1069 756 l 1069 778 l 1342 778 l 1342 756 l 1261 713 l 1024 -7 l 893 -7 l 682 489 l 672 489 l 469 -7 l 339 -7 z "},"x":{"ha":1018,"x_min":14,"x_max":1004,"o":"m 14 0 l 14 22 l 118 71 l 382 361 l 125 706 l 36 756 l 36 778 l 521 778 l 521 756 l 429 711 l 429 704 l 586 500 l 774 704 l 774 710 l 679 756 l 679 778 l 972 778 l 972 756 l 883 714 l 631 440 l 913 72 l 1004 22 l 1004 0 l 514 0 l 514 22 l 599 65 l 599 69 l 428 299 l 221 72 l 218 67 l 313 22 l 313 0 l 14 0 z "},"y":{"ha":956,"x_min":14,"x_max":942,"o":"m 249 0 l 249 22 l 354 68 l 354 363 l 104 703 l 14 756 l 14 778 l 464 778 l 464 756 l 374 713 l 374 708 l 575 438 l 756 706 l 756 711 l 661 756 l 661 778 l 942 778 l 942 756 l 857 715 l 611 364 l 611 68 l 717 22 l 717 0 l 249 0 z "},"z":{"ha":939,"x_min":111,"x_max":828,"o":"m 111 0 l 111 43 l 511 706 l 254 706 l 147 508 l 125 508 l 125 778 l 814 778 l 814 735 l 414 72 l 690 72 l 806 282 l 828 282 l 828 0 l 111 0 z "},"à":{"ha":957,"x_min":14,"x_max":943,"o":"m 14 0 l 14 22 l 86 64 l 396 785 l 551 785 l 854 78 l 943 22 l 943 0 l 499 0 l 499 22 l 599 65 l 525 243 l 250 243 l 176 67 l 272 22 l 272 0 l 14 0 m 281 315 l 494 315 l 388 569 l 281 315 m 453 882 l 265 1026 q 217 1076 231 1053 q 204 1128 204 1099 l 382 1128 l 493 882 l 453 882 z "},"á":{"ha":957,"x_min":14,"x_max":943,"o":"m 14 0 l 14 22 l 86 64 l 396 785 l 551 785 l 854 78 l 943 22 l 943 0 l 499 0 l 499 22 l 599 65 l 525 243 l 250 243 l 176 67 l 272 22 l 272 0 l 14 0 m 281 315 l 494 315 l 388 569 l 281 315 m 453 882 l 564 1128 l 742 1128 q 728 1076 742 1099 q 681 1026 714 1053 l 493 882 l 453 882 z "},"â":{"ha":957,"x_min":14,"x_max":943,"o":"m 14 0 l 14 22 l 86 64 l 396 785 l 551 785 l 854 78 l 943 22 l 943 0 l 499 0 l 499 22 l 599 65 l 525 243 l 250 243 l 176 67 l 272 22 l 272 0 l 14 0 m 281 315 l 494 315 l 388 569 l 281 315 m 240 882 l 433 1128 l 514 1128 l 707 882 l 667 882 l 474 989 l 281 882 l 240 882 z "},"ã":{"ha":957,"x_min":14,"x_max":943,"o":"m 14 0 l 14 22 l 86 64 l 396 785 l 551 785 l 854 78 l 943 22 l 943 0 l 499 0 l 499 22 l 599 65 l 525 243 l 250 243 l 176 67 l 272 22 l 272 0 l 14 0 m 281 315 l 494 315 l 388 569 l 281 315 m 233 904 q 286 1034 263 992 q 335 1090 310 1076 q 392 1104 360 1104 q 469 1083 432 1104 q 538 1042 506 1063 q 594 1021 569 1021 q 635 1035 618 1021 q 675 1104 653 1049 l 714 1104 q 661 974 685 1017 q 613 917 638 931 q 556 904 588 904 q 478 925 515 904 q 410 967 442 946 q 353 988 378 988 q 312 974 329 988 q 272 904 294 960 l 233 904 z "},"ä":{"ha":957,"x_min":14,"x_max":943,"o":"m 14 0 l 14 22 l 86 64 l 396 785 l 551 785 l 854 78 l 943 22 l 943 0 l 499 0 l 499 22 l 599 65 l 525 243 l 250 243 l 176 67 l 272 22 l 272 0 l 14 0 m 281 315 l 494 315 l 388 569 l 281 315 m 329 914 q 265 940 290 914 q 240 1003 240 967 q 265 1065 240 1039 q 329 1092 290 1092 q 393 1065 368 1092 q 418 1003 418 1039 q 393 940 418 967 q 329 914 368 914 m 617 914 q 552 940 576 914 q 528 1003 528 967 q 552 1065 528 1039 q 617 1092 576 1092 q 681 1065 657 1092 q 706 1003 706 1039 q 681 940 706 967 q 617 914 657 914 z "},"ā":{"ha":957,"x_min":14,"x_max":943,"o":"m 14 0 l 14 22 l 86 64 l 396 785 l 551 785 l 854 78 l 943 22 l 943 0 l 499 0 l 499 22 l 599 65 l 525 243 l 250 243 l 176 67 l 272 22 l 272 0 l 14 0 m 281 315 l 494 315 l 388 569 l 281 315 m 261 957 l 261 1049 l 686 1049 l 686 957 l 261 957 z "},"ă":{"ha":957,"x_min":14,"x_max":943,"o":"m 14 0 l 14 22 l 86 64 l 396 785 l 551 785 l 854 78 l 943 22 l 943 0 l 499 0 l 499 22 l 599 65 l 525 243 l 250 243 l 176 67 l 272 22 l 272 0 l 14 0 m 281 315 l 494 315 l 388 569 l 281 315 m 474 896 q 317 953 367 896 q 240 1128 267 1010 l 279 1128 q 361 1034 313 1054 q 474 1014 410 1014 q 585 1033 538 1014 q 668 1128 633 1053 l 707 1128 q 623 953 679 1010 q 474 896 567 896 z "},"å":{"ha":957,"x_min":14,"x_max":943,"o":"m 14 0 l 14 22 l 86 64 l 396 785 l 551 785 l 854 78 l 943 22 l 943 0 l 499 0 l 499 22 l 599 65 l 525 243 l 250 243 l 176 67 l 272 22 l 272 0 l 14 0 m 281 315 l 494 315 l 388 569 l 281 315 m 474 1124 q 565 1090 529 1124 q 600 1004 600 1056 q 565 919 600 953 q 474 885 529 885 q 383 918 418 885 q 347 1004 347 951 q 383 1090 347 1056 q 474 1124 418 1124 m 468 1089 q 439 1071 449 1089 q 429 1013 429 1053 q 479 919 429 919 q 518 996 518 919 q 468 1089 518 1089 z "},"ǻ":{"ha":957,"x_min":14,"x_max":943,"o":"m 14 0 l 14 22 l 86 64 l 396 785 l 551 785 l 854 78 l 943 22 l 943 0 l 499 0 l 499 22 l 599 65 l 525 243 l 250 243 l 176 67 l 272 22 l 272 0 l 14 0 m 281 315 l 494 315 l 388 569 l 281 315 m 474 1124 q 565 1090 529 1124 q 600 1004 600 1056 q 565 919 600 953 q 474 885 529 885 q 383 918 418 885 q 347 1004 347 951 q 383 1090 347 1056 q 474 1124 418 1124 m 468 1089 q 439 1071 449 1089 q 429 1013 429 1053 q 479 919 429 919 q 518 996 518 919 q 468 1089 518 1089 m 453 1192 l 564 1438 l 742 1438 q 728 1385 742 1408 q 681 1336 714 1363 l 493 1192 l 453 1192 z "},"ạ":{"ha":957,"x_min":14,"x_max":943,"o":"m 14 0 l 14 22 l 86 64 l 396 785 l 551 785 l 854 78 l 943 22 l 943 0 l 499 0 l 499 22 l 599 65 l 525 243 l 250 243 l 176 67 l 272 22 l 272 0 l 14 0 m 281 315 l 494 315 l 388 569 l 281 315 m 396 -324 q 315 -292 347 -324 q 283 -211 283 -260 q 315 -131 283 -162 q 396 -99 347 -99 q 476 -131 444 -99 q 508 -211 508 -162 q 476 -292 508 -260 q 396 -324 444 -324 z "},"ą":{"ha":957,"x_min":14,"x_max":943,"o":"m 14 0 l 14 22 l 86 64 l 396 785 l 551 785 l 854 78 l 943 22 l 943 0 l 786 0 q 749 -87 763 -44 q 736 -174 736 -131 q 810 -254 736 -254 q 844 -248 826 -254 q 874 -229 863 -242 l 879 -229 l 879 -261 q 750 -333 844 -333 q 648 -299 686 -333 q 610 -206 610 -264 q 641 -106 610 -157 q 728 0 672 -56 l 499 0 l 499 22 l 599 65 l 525 243 l 250 243 l 176 67 l 272 22 l 272 0 l 14 0 m 281 315 l 494 315 l 388 569 l 281 315 z "},"ȁ":{"ha":957,"x_min":14,"x_max":943,"o":"m 14 0 l 14 22 l 86 64 l 396 785 l 551 785 l 854 78 l 943 22 l 943 0 l 499 0 l 499 22 l 599 65 l 525 243 l 250 243 l 176 67 l 272 22 l 272 0 l 14 0 m 281 315 l 494 315 l 388 569 l 281 315 m 347 882 l 183 1040 q 160 1085 160 1064 q 167 1128 160 1107 l 297 1128 l 388 882 l 347 882 m 558 882 l 421 1040 q 399 1086 400 1065 q 404 1128 397 1107 l 535 1128 l 599 882 l 558 882 z "},"ȃ":{"ha":957,"x_min":14,"x_max":943,"o":"m 14 0 l 14 22 l 86 64 l 396 785 l 551 785 l 854 78 l 943 22 l 943 0 l 499 0 l 499 22 l 599 65 l 525 243 l 250 243 l 176 67 l 272 22 l 272 0 l 14 0 m 281 315 l 494 315 l 388 569 l 281 315 m 240 896 q 324 1071 268 1014 q 474 1128 381 1128 q 631 1071 581 1128 q 707 896 681 1014 l 668 896 q 586 990 635 969 q 474 1010 538 1010 q 362 990 410 1010 q 279 896 314 971 l 240 896 z "},"ắ":{"ha":957,"x_min":14,"x_max":943,"o":"m 14 0 l 14 22 l 86 64 l 396 785 l 551 785 l 854 78 l 943 22 l 943 0 l 499 0 l 499 22 l 599 65 l 525 243 l 250 243 l 176 67 l 272 22 l 272 0 l 14 0 m 281 315 l 494 315 l 388 569 l 281 315 z "},"ặ":{"ha":957,"x_min":14,"x_max":943,"o":"m 14 0 l 14 22 l 86 64 l 396 785 l 551 785 l 854 78 l 943 22 l 943 0 l 499 0 l 499 22 l 599 65 l 525 243 l 250 243 l 176 67 l 272 22 l 272 0 l 14 0 m 281 315 l 494 315 l 388 569 l 281 315 m 474 896 q 317 953 367 896 q 240 1128 267 1010 l 279 1128 q 361 1034 313 1054 q 474 1014 410 1014 q 585 1033 538 1014 q 668 1128 633 1053 l 707 1128 q 623 953 679 1010 q 474 896 567 896 m 396 -324 q 315 -292 347 -324 q 283 -211 283 -260 q 315 -131 283 -162 q 396 -99 347 -99 q 476 -131 444 -99 q 508 -211 508 -162 q 476 -292 508 -260 q 396 -324 444 -324 z "},"ằ":{"ha":957,"x_min":14,"x_max":943,"o":"m 14 0 l 14 22 l 86 64 l 396 785 l 551 785 l 854 78 l 943 22 l 943 0 l 499 0 l 499 22 l 599 65 l 525 243 l 250 243 l 176 67 l 272 22 l 272 0 l 14 0 m 281 315 l 494 315 l 388 569 l 281 315 z "},"ẳ":{"ha":957,"x_min":14,"x_max":943,"o":"m 14 0 l 14 22 l 86 64 l 396 785 l 551 785 l 854 78 l 943 22 l 943 0 l 499 0 l 499 22 l 599 65 l 525 243 l 250 243 l 176 67 l 272 22 l 272 0 l 14 0 m 281 315 l 494 315 l 388 569 l 281 315 z "},"ẵ":{"ha":957,"x_min":14,"x_max":943,"o":"m 14 0 l 14 22 l 86 64 l 396 785 l 551 785 l 854 78 l 943 22 l 943 0 l 499 0 l 499 22 l 599 65 l 525 243 l 250 243 l 176 67 l 272 22 l 272 0 l 14 0 m 281 315 l 494 315 l 388 569 l 281 315 z "},"ấ":{"ha":957,"x_min":14,"x_max":943,"o":"m 14 0 l 14 22 l 86 64 l 396 785 l 551 785 l 854 78 l 943 22 l 943 0 l 499 0 l 499 22 l 599 65 l 525 243 l 250 243 l 176 67 l 272 22 l 272 0 l 14 0 m 281 315 l 494 315 l 388 569 l 281 315 m 638 1031 l 696 1229 l 858 1229 q 844 1176 858 1200 q 797 1128 829 1153 l 678 1031 l 638 1031 m 240 882 l 433 1128 l 514 1128 l 707 882 l 667 882 l 474 989 l 281 882 l 240 882 z "},"ậ":{"ha":957,"x_min":14,"x_max":943,"o":"m 14 0 l 14 22 l 86 64 l 396 785 l 551 785 l 854 78 l 943 22 l 943 0 l 499 0 l 499 22 l 599 65 l 525 243 l 250 243 l 176 67 l 272 22 l 272 0 l 14 0 m 281 315 l 494 315 l 388 569 l 281 315 m 240 882 l 433 1128 l 514 1128 l 707 882 l 667 882 l 474 989 l 281 882 l 240 882 m 396 -324 q 315 -292 347 -324 q 283 -211 283 -260 q 315 -131 283 -162 q 396 -99 347 -99 q 476 -131 444 -99 q 508 -211 508 -162 q 476 -292 508 -260 q 396 -324 444 -324 z "},"ầ":{"ha":957,"x_min":14,"x_max":943,"o":"m 14 0 l 14 22 l 86 64 l 396 785 l 551 785 l 854 78 l 943 22 l 943 0 l 499 0 l 499 22 l 599 65 l 525 243 l 250 243 l 176 67 l 272 22 l 272 0 l 14 0 m 281 315 l 494 315 l 388 569 l 281 315 m 269 1031 l 150 1128 q 103 1176 118 1153 q 89 1229 89 1200 l 251 1229 l 310 1031 l 269 1031 m 240 882 l 433 1128 l 514 1128 l 707 882 l 667 882 l 474 989 l 281 882 l 240 882 z "},"ẩ":{"ha":957,"x_min":14,"x_max":943,"o":"m 14 0 l 14 22 l 86 64 l 396 785 l 551 785 l 854 78 l 943 22 l 943 0 l 499 0 l 499 22 l 599 65 l 525 243 l 250 243 l 176 67 l 272 22 l 272 0 l 14 0 m 281 315 l 494 315 l 388 569 l 281 315 z "},"ẫ":{"ha":957,"x_min":14,"x_max":943,"o":"m 14 0 l 14 22 l 86 64 l 396 785 l 551 785 l 854 78 l 943 22 l 943 0 l 499 0 l 499 22 l 599 65 l 525 243 l 250 243 l 176 67 l 272 22 l 272 0 l 14 0 m 281 315 l 494 315 l 388 569 l 281 315 z "},"ả":{"ha":957,"x_min":14,"x_max":943,"o":"m 14 0 l 14 22 l 86 64 l 396 785 l 551 785 l 854 78 l 943 22 l 943 0 l 499 0 l 499 22 l 599 65 l 525 243 l 250 243 l 176 67 l 272 22 l 272 0 l 14 0 m 281 315 l 494 315 l 388 569 l 281 315 m 389 903 l 389 904 q 451 930 432 918 q 471 963 471 942 q 449 997 471 983 q 375 1019 428 1010 l 397 1128 q 529 1085 492 1119 q 567 1015 567 1051 q 526 930 567 960 q 404 888 485 900 l 389 903 z "},"æ":{"ha":1297,"x_min":14,"x_max":1242,"o":"m 14 0 l 14 22 l 92 63 l 576 778 l 1208 778 l 1208 561 l 1186 561 l 1081 706 l 850 706 l 850 433 l 1010 433 l 1089 538 l 1110 538 l 1110 268 l 1089 268 l 1010 371 l 850 371 l 850 72 l 1106 72 l 1219 269 l 1242 269 l 1242 0 l 488 0 l 488 22 l 593 68 l 593 243 l 308 243 l 186 64 l 275 22 l 275 0 l 14 0 m 357 315 l 593 315 l 593 661 l 357 315 z "},"ǽ":{"ha":1297,"x_min":14,"x_max":1242,"o":"m 14 0 l 14 22 l 92 63 l 576 778 l 1208 778 l 1208 561 l 1186 561 l 1081 706 l 850 706 l 850 433 l 1010 433 l 1089 538 l 1110 538 l 1110 268 l 1089 268 l 1010 371 l 850 371 l 850 72 l 1106 72 l 1219 269 l 1242 269 l 1242 0 l 488 0 l 488 22 l 593 68 l 593 243 l 308 243 l 186 64 l 275 22 l 275 0 l 14 0 m 357 315 l 593 315 l 593 661 l 357 315 m 701 882 l 813 1128 l 990 1128 q 976 1076 990 1099 q 929 1026 963 1053 l 742 882 l 701 882 z "},"ć":{"ha":881,"x_min":51,"x_max":804,"o":"m 507 -14 q 271 36 374 -14 q 110 174 168 86 q 51 375 51 261 q 91 549 51 471 q 198 681 131 626 q 351 764 265 735 q 526 793 436 793 q 635 785 592 793 q 711 765 678 778 q 779 736 744 753 l 796 507 l 772 507 l 633 703 q 594 717 614 713 q 543 721 574 721 q 429 678 481 721 q 348 557 378 636 q 318 371 318 478 q 380 143 318 228 q 538 58 442 58 q 590 63 565 58 q 642 79 615 67 l 781 257 l 804 257 l 785 50 q 663 3 738 19 q 507 -14 588 -14 m 471 882 l 582 1128 l 760 1128 q 746 1076 760 1099 q 699 1026 732 1053 l 511 882 l 471 882 z "},"ĉ":{"ha":881,"x_min":51,"x_max":804,"o":"m 507 -14 q 271 36 374 -14 q 110 174 168 86 q 51 375 51 261 q 91 549 51 471 q 198 681 131 626 q 351 764 265 735 q 526 793 436 793 q 635 785 592 793 q 711 765 678 778 q 779 736 744 753 l 796 507 l 772 507 l 633 703 q 594 717 614 713 q 543 721 574 721 q 429 678 481 721 q 348 557 378 636 q 318 371 318 478 q 380 143 318 228 q 538 58 442 58 q 590 63 565 58 q 642 79 615 67 l 781 257 l 804 257 l 785 50 q 663 3 738 19 q 507 -14 588 -14 m 258 882 l 451 1128 l 532 1128 l 725 882 l 685 882 l 492 989 l 299 882 l 258 882 z "},"č":{"ha":881,"x_min":51,"x_max":804,"o":"m 507 -14 q 271 36 374 -14 q 110 174 168 86 q 51 375 51 261 q 91 549 51 471 q 198 681 131 626 q 351 764 265 735 q 526 793 436 793 q 635 785 592 793 q 711 765 678 778 q 779 736 744 753 l 796 507 l 772 507 l 633 703 q 594 717 614 713 q 543 721 574 721 q 429 678 481 721 q 348 557 378 636 q 318 371 318 478 q 380 143 318 228 q 538 58 442 58 q 590 63 565 58 q 642 79 615 67 l 781 257 l 804 257 l 785 50 q 663 3 738 19 q 507 -14 588 -14 m 451 882 l 258 1128 l 299 1128 l 492 1021 l 685 1128 l 725 1128 l 532 882 l 451 882 z "},"ċ":{"ha":881,"x_min":51,"x_max":804,"o":"m 507 -14 q 271 36 374 -14 q 110 174 168 86 q 51 375 51 261 q 91 549 51 471 q 198 681 131 626 q 351 764 265 735 q 526 793 436 793 q 635 785 592 793 q 711 765 678 778 q 779 736 744 753 l 796 507 l 772 507 l 633 703 q 594 717 614 713 q 543 721 574 721 q 429 678 481 721 q 348 557 378 636 q 318 371 318 478 q 380 143 318 228 q 538 58 442 58 q 590 63 565 58 q 642 79 615 67 l 781 257 l 804 257 l 785 50 q 663 3 738 19 q 507 -14 588 -14 m 490 892 q 410 924 442 892 q 378 1004 378 956 q 410 1085 378 1053 q 490 1117 442 1117 q 571 1085 539 1117 q 603 1004 603 1053 q 571 924 603 956 q 490 892 539 892 z "},"ç":{"ha":881,"x_min":51,"x_max":804,"o":"m 507 -14 l 506 -14 l 490 -49 q 602 -108 571 -72 q 633 -199 633 -144 q 591 -296 633 -258 q 481 -333 549 -333 q 418 -326 444 -333 q 369 -306 392 -319 l 369 -274 l 375 -274 q 411 -285 390 -282 q 449 -289 432 -289 q 505 -276 483 -289 q 526 -236 526 -264 q 500 -185 526 -207 q 392 -143 474 -162 l 451 -11 q 243 51 333 -1 q 102 186 153 103 q 51 375 51 269 q 91 549 51 471 q 198 681 131 626 q 351 764 265 735 q 526 793 436 793 q 635 785 592 793 q 711 765 678 778 q 779 736 744 753 l 796 507 l 772 507 l 633 703 q 594 717 614 713 q 543 721 574 721 q 429 678 481 721 q 348 557 378 636 q 318 371 318 478 q 380 143 318 228 q 538 58 442 58 q 590 63 565 58 q 642 79 615 67 l 781 257 l 804 257 l 785 50 q 663 3 738 19 q 507 -14 588 -14 z "},"ḉ":{"ha":881,"x_min":51,"x_max":804,"o":"m 471 882 l 582 1128 l 760 1128 q 746 1076 760 1099 q 699 1026 732 1053 l 511 882 l 471 882 m 493 -333 q 431 -326 458 -333 q 382 -306 404 -319 l 382 -274 l 388 -274 q 424 -285 403 -282 q 461 -289 444 -289 q 518 -276 497 -289 q 539 -236 539 -264 q 513 -185 539 -207 q 404 -143 486 -162 l 464 -12 q 249 47 342 -4 q 103 183 156 99 q 51 375 51 268 q 91 549 51 471 q 198 681 131 626 q 351 764 265 735 q 526 793 436 793 q 635 785 592 793 q 711 765 678 778 q 779 736 744 753 l 796 507 l 772 507 l 633 703 q 594 717 614 713 q 543 721 574 721 q 429 678 481 721 q 348 557 378 636 q 318 371 318 478 q 380 143 318 228 q 538 58 442 58 q 590 63 565 58 q 642 79 615 67 l 781 257 l 804 257 l 785 50 q 667 4 739 21 q 518 -14 596 -12 l 503 -49 q 615 -108 583 -72 q 646 -199 646 -144 q 603 -296 646 -258 q 493 -333 561 -333 z "},"ď":{"ha":1014,"x_min":42,"x_max":972,"o":"m 42 0 l 42 22 l 147 68 l 147 710 l 42 756 l 42 778 l 514 778 q 762 731 660 778 q 918 605 864 685 q 972 425 972 525 q 912 206 972 303 q 747 55 851 110 q 506 0 642 0 l 42 0 m 418 706 l 404 706 l 404 72 l 436 72 q 638 156 568 72 q 707 389 707 239 q 635 622 707 539 q 418 706 564 706 m 444 882 l 251 1128 l 292 1128 l 485 1021 l 678 1128 l 718 1128 l 525 882 l 444 882 z "},"đ":{"ha":1014,"x_min":42,"x_max":972,"o":"m 42 0 l 42 22 l 147 68 l 147 367 l 42 367 l 42 439 l 147 439 l 147 710 l 42 756 l 42 778 l 514 778 q 762 731 660 778 q 918 605 864 685 q 972 425 972 525 q 912 206 972 303 q 747 55 851 110 q 506 0 642 0 l 42 0 m 546 367 l 404 367 l 404 72 l 436 72 q 638 156 568 72 q 707 389 707 239 q 635 622 707 539 q 418 706 564 706 l 404 706 l 404 439 l 546 439 l 546 367 z "},"ḍ":{"ha":1014,"x_min":42,"x_max":972,"o":"m 42 0 l 42 22 l 147 68 l 147 710 l 42 756 l 42 778 l 514 778 q 762 731 660 778 q 918 605 864 685 q 972 425 972 525 q 912 206 972 303 q 747 55 851 110 q 506 0 642 0 l 42 0 m 418 706 l 404 706 l 404 72 l 436 72 q 638 156 568 72 q 707 389 707 239 q 635 622 707 539 q 418 706 564 706 m 508 -324 q 428 -292 460 -324 q 396 -211 396 -260 q 428 -131 396 -162 q 508 -99 460 -99 q 589 -131 557 -99 q 621 -211 621 -162 q 589 -292 621 -260 q 508 -324 557 -324 z "},"ḏ":{"ha":1014,"x_min":42,"x_max":972,"o":"m 42 0 l 42 22 l 147 68 l 147 710 l 42 756 l 42 778 l 514 778 q 762 731 660 778 q 918 605 864 685 q 972 425 972 525 q 912 206 972 303 q 747 55 851 110 q 506 0 642 0 l 42 0 m 418 706 l 404 706 l 404 72 l 436 72 q 638 156 568 72 q 707 389 707 239 q 635 622 707 539 q 418 706 564 706 m 296 -253 l 296 -161 l 721 -161 l 721 -253 l 296 -253 z "},"è":{"ha":851,"x_min":42,"x_max":796,"o":"m 42 0 l 42 22 l 147 68 l 147 710 l 42 756 l 42 778 l 763 778 l 763 561 l 740 561 l 635 706 l 404 706 l 404 433 l 564 433 l 643 538 l 664 538 l 664 268 l 643 268 l 564 371 l 404 371 l 404 72 l 660 72 l 774 269 l 796 269 l 796 0 l 42 0 m 435 882 l 247 1026 q 199 1076 213 1053 q 186 1128 186 1099 l 364 1128 l 475 882 l 435 882 z "},"é":{"ha":851,"x_min":42,"x_max":796,"o":"m 42 0 l 42 22 l 147 68 l 147 710 l 42 756 l 42 778 l 763 778 l 763 561 l 740 561 l 635 706 l 404 706 l 404 433 l 564 433 l 643 538 l 664 538 l 664 268 l 643 268 l 564 371 l 404 371 l 404 72 l 660 72 l 774 269 l 796 269 l 796 0 l 42 0 m 435 882 l 546 1128 l 724 1128 q 710 1076 724 1099 q 663 1026 696 1053 l 475 882 l 435 882 z "},"ê":{"ha":851,"x_min":42,"x_max":796,"o":"m 42 0 l 42 22 l 147 68 l 147 710 l 42 756 l 42 778 l 763 778 l 763 561 l 740 561 l 635 706 l 404 706 l 404 433 l 564 433 l 643 538 l 664 538 l 664 268 l 643 268 l 564 371 l 404 371 l 404 72 l 660 72 l 774 269 l 796 269 l 796 0 l 42 0 m 222 882 l 415 1128 l 496 1128 l 689 882 l 649 882 l 456 989 l 263 882 l 222 882 z "},"ě":{"ha":851,"x_min":42,"x_max":796,"o":"m 42 0 l 42 22 l 147 68 l 147 710 l 42 756 l 42 778 l 763 778 l 763 561 l 740 561 l 635 706 l 404 706 l 404 433 l 564 433 l 643 538 l 664 538 l 664 268 l 643 268 l 564 371 l 404 371 l 404 72 l 660 72 l 774 269 l 796 269 l 796 0 l 42 0 m 415 882 l 222 1128 l 263 1128 l 456 1021 l 649 1128 l 689 1128 l 496 882 l 415 882 z "},"ẽ":{"ha":851,"x_min":42,"x_max":796,"o":"m 42 0 l 42 22 l 147 68 l 147 710 l 42 756 l 42 778 l 763 778 l 763 561 l 740 561 l 635 706 l 404 706 l 404 433 l 564 433 l 643 538 l 664 538 l 664 268 l 643 268 l 564 371 l 404 371 l 404 72 l 660 72 l 774 269 l 796 269 l 796 0 l 42 0 m 215 904 q 268 1034 244 992 q 317 1090 292 1076 q 374 1104 342 1104 q 451 1083 414 1104 q 519 1042 488 1063 q 576 1021 551 1021 q 617 1035 600 1021 q 657 1104 635 1049 l 696 1104 q 643 974 667 1017 q 594 917 619 931 q 538 904 569 904 q 460 925 497 904 q 392 967 424 946 q 335 988 360 988 q 294 974 311 988 q 254 904 276 960 l 215 904 z "},"ë":{"ha":851,"x_min":42,"x_max":796,"o":"m 42 0 l 42 22 l 147 68 l 147 710 l 42 756 l 42 778 l 763 778 l 763 561 l 740 561 l 635 706 l 404 706 l 404 433 l 564 433 l 643 538 l 664 538 l 664 268 l 643 268 l 564 371 l 404 371 l 404 72 l 660 72 l 774 269 l 796 269 l 796 0 l 42 0 m 311 914 q 247 940 272 914 q 222 1003 222 967 q 247 1065 222 1039 q 311 1092 272 1092 q 375 1065 350 1092 q 400 1003 400 1039 q 375 940 400 967 q 311 914 350 914 m 599 914 q 534 940 558 914 q 510 1003 510 967 q 534 1065 510 1039 q 599 1092 558 1092 q 663 1065 639 1092 q 688 1003 688 1039 q 663 940 688 967 q 599 914 639 914 z "},"ē":{"ha":851,"x_min":42,"x_max":796,"o":"m 42 0 l 42 22 l 147 68 l 147 710 l 42 756 l 42 778 l 763 778 l 763 561 l 740 561 l 635 706 l 404 706 l 404 433 l 564 433 l 643 538 l 664 538 l 664 268 l 643 268 l 564 371 l 404 371 l 404 72 l 660 72 l 774 269 l 796 269 l 796 0 l 42 0 m 243 957 l 243 1049 l 668 1049 l 668 957 l 243 957 z "},"ĕ":{"ha":851,"x_min":42,"x_max":796,"o":"m 42 0 l 42 22 l 147 68 l 147 710 l 42 756 l 42 778 l 763 778 l 763 561 l 740 561 l 635 706 l 404 706 l 404 433 l 564 433 l 643 538 l 664 538 l 664 268 l 643 268 l 564 371 l 404 371 l 404 72 l 660 72 l 774 269 l 796 269 l 796 0 l 42 0 m 456 896 q 299 953 349 896 q 222 1128 249 1010 l 261 1128 q 343 1034 294 1054 q 456 1014 392 1014 q 567 1033 519 1014 q 650 1128 615 1053 l 689 1128 q 605 953 661 1010 q 456 896 549 896 z "},"ė":{"ha":851,"x_min":42,"x_max":796,"o":"m 42 0 l 42 22 l 147 68 l 147 710 l 42 756 l 42 778 l 763 778 l 763 561 l 740 561 l 635 706 l 404 706 l 404 433 l 564 433 l 643 538 l 664 538 l 664 268 l 643 268 l 564 371 l 404 371 l 404 72 l 660 72 l 774 269 l 796 269 l 796 0 l 42 0 m 454 892 q 374 924 406 892 q 342 1004 342 956 q 374 1085 342 1053 q 454 1117 406 1117 q 535 1085 503 1117 q 567 1004 567 1053 q 535 924 567 956 q 454 892 503 892 z "},"ę":{"ha":851,"x_min":42,"x_max":796,"o":"m 42 0 l 42 22 l 147 68 l 147 710 l 42 756 l 42 778 l 763 778 l 763 561 l 740 561 l 635 706 l 404 706 l 404 433 l 564 433 l 643 538 l 664 538 l 664 268 l 643 268 l 564 371 l 404 371 l 404 72 l 660 72 l 774 269 l 796 269 l 796 0 l 703 0 q 666 -87 679 -44 q 653 -174 653 -131 q 726 -254 653 -254 q 761 -248 743 -254 q 790 -229 779 -242 l 796 -229 l 796 -261 q 667 -333 761 -333 q 565 -299 603 -333 q 526 -206 526 -264 q 558 -106 526 -157 q 644 0 589 -56 l 42 0 z "},"ẹ":{"ha":851,"x_min":42,"x_max":796,"o":"m 42 0 l 42 22 l 147 68 l 147 710 l 42 756 l 42 778 l 763 778 l 763 561 l 740 561 l 635 706 l 404 706 l 404 433 l 564 433 l 643 538 l 664 538 l 664 268 l 643 268 l 564 371 l 404 371 l 404 72 l 660 72 l 774 269 l 796 269 l 796 0 l 42 0 m 456 -324 q 375 -292 407 -324 q 343 -211 343 -260 q 375 -131 343 -162 q 456 -99 407 -99 q 536 -131 504 -99 q 568 -211 568 -162 q 536 -292 568 -260 q 456 -324 504 -324 z "},"ȅ":{"ha":851,"x_min":42,"x_max":796,"o":"m 42 0 l 42 22 l 147 68 l 147 710 l 42 756 l 42 778 l 763 778 l 763 561 l 740 561 l 635 706 l 404 706 l 404 433 l 564 433 l 643 538 l 664 538 l 664 268 l 643 268 l 564 371 l 404 371 l 404 72 l 660 72 l 774 269 l 796 269 l 796 0 l 42 0 m 329 882 l 165 1040 q 142 1085 142 1064 q 149 1128 142 1107 l 279 1128 l 369 882 l 329 882 m 540 882 l 403 1040 q 381 1086 382 1065 q 386 1128 379 1107 l 517 1128 l 581 882 l 540 882 z "},"ȇ":{"ha":851,"x_min":42,"x_max":796,"o":"m 42 0 l 42 22 l 147 68 l 147 710 l 42 756 l 42 778 l 763 778 l 763 561 l 740 561 l 635 706 l 404 706 l 404 433 l 564 433 l 643 538 l 664 538 l 664 268 l 643 268 l 564 371 l 404 371 l 404 72 l 660 72 l 774 269 l 796 269 l 796 0 l 42 0 m 222 896 q 306 1071 250 1014 q 456 1128 363 1128 q 613 1071 563 1128 q 689 896 663 1014 l 650 896 q 568 990 617 969 q 456 1010 519 1010 q 344 990 392 1010 q 261 896 296 971 l 222 896 z "},"ế":{"ha":851,"x_min":42,"x_max":840,"o":"m 42 0 l 42 22 l 147 68 l 147 710 l 42 756 l 42 778 l 763 778 l 763 561 l 740 561 l 635 706 l 404 706 l 404 433 l 564 433 l 643 538 l 664 538 l 664 268 l 643 268 l 564 371 l 404 371 l 404 72 l 660 72 l 774 269 l 796 269 l 796 0 l 42 0 m 619 1031 l 678 1229 l 840 1229 q 826 1176 840 1200 q 779 1128 811 1153 l 660 1031 l 619 1031 m 222 882 l 415 1128 l 496 1128 l 689 882 l 649 882 l 456 989 l 263 882 l 222 882 z "},"ệ":{"ha":851,"x_min":42,"x_max":796,"o":"m 42 0 l 42 22 l 147 68 l 147 710 l 42 756 l 42 778 l 763 778 l 763 561 l 740 561 l 635 706 l 404 706 l 404 433 l 564 433 l 643 538 l 664 538 l 664 268 l 643 268 l 564 371 l 404 371 l 404 72 l 660 72 l 774 269 l 796 269 l 796 0 l 42 0 m 222 882 l 415 1128 l 496 1128 l 689 882 l 649 882 l 456 989 l 263 882 l 222 882 m 456 -324 q 375 -292 407 -324 q 343 -211 343 -260 q 375 -131 343 -162 q 456 -99 407 -99 q 536 -131 504 -99 q 568 -211 568 -162 q 536 -292 568 -260 q 456 -324 504 -324 z "},"ề":{"ha":851,"x_min":42,"x_max":796,"o":"m 42 0 l 42 22 l 147 68 l 147 710 l 42 756 l 42 778 l 763 778 l 763 561 l 740 561 l 635 706 l 404 706 l 404 433 l 564 433 l 643 538 l 664 538 l 664 268 l 643 268 l 564 371 l 404 371 l 404 72 l 660 72 l 774 269 l 796 269 l 796 0 l 42 0 m 251 1031 l 132 1128 q 85 1176 100 1153 q 71 1229 71 1200 l 233 1229 l 292 1031 l 251 1031 m 222 882 l 415 1128 l 496 1128 l 689 882 l 649 882 l 456 989 l 263 882 l 222 882 z "},"ể":{"ha":851,"x_min":42,"x_max":796,"o":"m 42 0 l 42 22 l 147 68 l 147 710 l 42 756 l 42 778 l 763 778 l 763 561 l 740 561 l 635 706 l 404 706 l 404 433 l 564 433 l 643 538 l 664 538 l 664 268 l 643 268 l 564 371 l 404 371 l 404 72 l 660 72 l 774 269 l 796 269 l 796 0 l 42 0 z "},"ễ":{"ha":851,"x_min":42,"x_max":796,"o":"m 42 0 l 42 22 l 147 68 l 147 710 l 42 756 l 42 778 l 763 778 l 763 561 l 740 561 l 635 706 l 404 706 l 404 433 l 564 433 l 643 538 l 664 538 l 664 268 l 643 268 l 564 371 l 404 371 l 404 72 l 660 72 l 774 269 l 796 269 l 796 0 l 42 0 z "},"ẻ":{"ha":851,"x_min":42,"x_max":796,"o":"m 42 0 l 42 22 l 147 68 l 147 710 l 42 756 l 42 778 l 763 778 l 763 561 l 740 561 l 635 706 l 404 706 l 404 433 l 564 433 l 643 538 l 664 538 l 664 268 l 643 268 l 564 371 l 404 371 l 404 72 l 660 72 l 774 269 l 796 269 l 796 0 l 42 0 m 371 903 l 371 904 q 433 930 414 918 q 453 963 453 942 q 431 997 453 983 q 357 1019 410 1010 l 379 1128 q 511 1085 474 1119 q 549 1015 549 1051 q 508 930 549 960 q 386 888 467 900 l 371 903 z "},"ḕ":{"ha":851,"x_min":42,"x_max":796,"o":"m 42 0 l 42 22 l 147 68 l 147 710 l 42 756 l 42 778 l 763 778 l 763 561 l 740 561 l 635 706 l 404 706 l 404 433 l 564 433 l 643 538 l 664 538 l 664 268 l 643 268 l 564 371 l 404 371 l 404 72 l 660 72 l 774 269 l 796 269 l 796 0 l 42 0 z "},"ḗ":{"ha":851,"x_min":42,"x_max":796,"o":"m 42 0 l 42 22 l 147 68 l 147 710 l 42 756 l 42 778 l 763 778 l 763 561 l 740 561 l 635 706 l 404 706 l 404 433 l 564 433 l 643 538 l 664 538 l 664 268 l 643 268 l 564 371 l 404 371 l 404 72 l 660 72 l 774 269 l 796 269 l 796 0 l 42 0 z "},"ḝ":{"ha":851,"x_min":42,"x_max":796,"o":"m 456 896 q 299 953 349 896 q 222 1128 249 1010 l 261 1128 q 343 1034 294 1054 q 456 1014 392 1014 q 567 1033 519 1014 q 650 1128 615 1053 l 689 1128 q 605 953 661 1010 q 456 896 549 896 m 42 0 l 42 22 l 147 68 l 147 710 l 42 756 l 42 778 l 763 778 l 763 561 l 740 561 l 635 706 l 404 706 l 404 433 l 564 433 l 643 538 l 664 538 l 664 268 l 643 268 l 564 371 l 404 371 l 404 72 l 660 72 l 774 269 l 796 269 l 796 0 l 483 0 l 461 -49 q 573 -108 542 -72 q 604 -199 604 -144 q 562 -296 604 -258 q 451 -333 519 -333 q 390 -326 417 -333 q 340 -306 363 -319 l 340 -274 l 346 -274 q 382 -285 361 -282 q 419 -289 403 -289 q 476 -276 456 -289 q 497 -236 497 -264 q 471 -185 497 -207 q 363 -143 444 -162 l 428 0 l 42 0 z "},"ĝ":{"ha":928,"x_min":51,"x_max":904,"o":"m 483 -14 q 268 34 367 -14 q 110 170 169 82 q 51 378 51 258 q 90 550 51 474 q 195 681 128 626 q 350 765 263 736 q 536 793 438 793 q 690 776 628 793 q 803 736 751 760 l 819 521 l 794 521 l 678 692 q 622 715 649 708 q 558 721 596 721 q 378 625 438 721 q 318 374 318 529 q 340 213 318 283 q 410 101 363 142 q 536 60 458 60 q 554 61 544 60 l 554 281 l 449 339 l 449 360 l 904 360 l 904 339 l 811 281 l 811 85 q 728 33 781 56 q 612 -1 675 11 q 483 -14 549 -14 m 274 882 l 467 1128 l 547 1128 l 740 882 l 700 882 l 507 989 l 314 882 l 274 882 z "},"ğ":{"ha":928,"x_min":51,"x_max":904,"o":"m 483 -14 q 268 34 367 -14 q 110 170 169 82 q 51 378 51 258 q 90 550 51 474 q 195 681 128 626 q 350 765 263 736 q 536 793 438 793 q 690 776 628 793 q 803 736 751 760 l 819 521 l 794 521 l 678 692 q 622 715 649 708 q 558 721 596 721 q 378 625 438 721 q 318 374 318 529 q 340 213 318 283 q 410 101 363 142 q 536 60 458 60 q 554 61 544 60 l 554 281 l 449 339 l 449 360 l 904 360 l 904 339 l 811 281 l 811 85 q 728 33 781 56 q 612 -1 675 11 q 483 -14 549 -14 m 507 896 q 350 953 400 896 q 274 1128 300 1010 l 313 1128 q 394 1034 346 1054 q 507 1014 443 1014 q 619 1033 571 1014 q 701 1128 667 1053 l 740 1128 q 656 953 713 1010 q 507 896 600 896 z "},"ġ":{"ha":928,"x_min":51,"x_max":904,"o":"m 483 -14 q 268 34 367 -14 q 110 170 169 82 q 51 378 51 258 q 90 550 51 474 q 195 681 128 626 q 350 765 263 736 q 536 793 438 793 q 690 776 628 793 q 803 736 751 760 l 819 521 l 794 521 l 678 692 q 622 715 649 708 q 558 721 596 721 q 378 625 438 721 q 318 374 318 529 q 340 213 318 283 q 410 101 363 142 q 536 60 458 60 q 554 61 544 60 l 554 281 l 449 339 l 449 360 l 904 360 l 904 339 l 811 281 l 811 85 q 728 33 781 56 q 612 -1 675 11 q 483 -14 549 -14 m 506 892 q 425 924 457 892 q 393 1004 393 956 q 425 1085 393 1053 q 506 1117 457 1117 q 586 1085 554 1117 q 618 1004 618 1053 q 586 924 618 956 q 506 892 554 892 z "},"ģ":{"ha":928,"x_min":51,"x_max":904,"o":"m 483 -14 q 268 34 367 -14 q 110 170 169 82 q 51 378 51 258 q 90 550 51 474 q 195 681 128 626 q 350 765 263 736 q 536 793 438 793 q 690 776 628 793 q 803 736 751 760 l 819 521 l 794 521 l 678 692 q 622 715 649 708 q 558 721 596 721 q 378 625 438 721 q 318 374 318 529 q 340 213 318 283 q 410 101 363 142 q 536 60 458 60 q 554 61 544 60 l 554 281 l 449 339 l 449 360 l 904 360 l 904 339 l 811 281 l 811 85 q 728 33 781 56 q 612 -1 675 11 q 483 -14 549 -14 m 551 890 q 434 921 475 890 q 393 1004 393 951 q 437 1090 393 1060 q 549 1119 481 1119 q 578 1118 563 1119 q 606 1114 594 1117 l 606 1085 q 582 1088 594 1088 q 563 1089 569 1089 q 501 1047 501 1089 q 527 1010 501 1021 q 607 1000 553 1000 l 607 919 q 595 899 607 907 q 551 890 583 890 z "},"ǧ":{"ha":928,"x_min":51,"x_max":904,"o":"m 483 -14 q 268 34 367 -14 q 110 170 169 82 q 51 378 51 258 q 90 550 51 474 q 195 681 128 626 q 350 765 263 736 q 536 793 438 793 q 690 776 628 793 q 803 736 751 760 l 819 521 l 794 521 l 678 692 q 622 715 649 708 q 558 721 596 721 q 378 625 438 721 q 318 374 318 529 q 340 213 318 283 q 410 101 363 142 q 536 60 458 60 q 554 61 544 60 l 554 281 l 449 339 l 449 360 l 904 360 l 904 339 l 811 281 l 811 85 q 728 33 781 56 q 612 -1 675 11 q 483 -14 549 -14 m 467 882 l 274 1128 l 314 1128 l 507 1021 l 700 1128 l 740 1128 l 547 882 l 467 882 z "},"ḡ":{"ha":928,"x_min":51,"x_max":904,"o":"m 483 -14 q 268 34 367 -14 q 110 170 169 82 q 51 378 51 258 q 90 550 51 474 q 195 681 128 626 q 350 765 263 736 q 536 793 438 793 q 690 776 628 793 q 803 736 751 760 l 819 521 l 794 521 l 678 692 q 622 715 649 708 q 558 721 596 721 q 378 625 438 721 q 318 374 318 529 q 340 213 318 283 q 410 101 363 142 q 536 60 458 60 q 554 61 544 60 l 554 281 l 449 339 l 449 360 l 904 360 l 904 339 l 811 281 l 811 85 q 728 33 781 56 q 612 -1 675 11 q 483 -14 549 -14 m 294 957 l 294 1049 l 719 1049 l 719 957 l 294 957 z "},"ĥ":{"ha":1051,"x_min":42,"x_max":1010,"o":"m 42 0 l 42 22 l 147 68 l 147 710 l 42 756 l 42 778 l 496 778 l 496 756 l 404 710 l 404 436 l 650 436 l 650 710 l 557 756 l 557 778 l 1010 778 l 1010 756 l 907 710 l 907 68 l 1010 22 l 1010 0 l 557 0 l 557 22 l 650 68 l 650 364 l 404 364 l 404 68 l 496 22 l 496 0 l 42 0 m 293 882 l 486 1128 l 567 1128 l 760 882 l 719 882 l 526 989 l 333 882 l 293 882 z "},"ħ":{"ha":1051,"x_min":42,"x_max":1010,"o":"m 42 0 l 42 22 l 147 68 l 147 556 l 42 556 l 42 628 l 147 628 l 147 710 l 42 756 l 42 778 l 496 778 l 496 756 l 404 710 l 404 628 l 650 628 l 650 710 l 557 756 l 557 778 l 1010 778 l 1010 756 l 907 710 l 907 628 l 1010 628 l 1010 556 l 907 556 l 907 68 l 1010 22 l 1010 0 l 557 0 l 557 22 l 650 68 l 650 364 l 404 364 l 404 68 l 496 22 l 496 0 l 42 0 m 404 436 l 650 436 l 650 556 l 404 556 l 404 436 z "},"ḥ":{"ha":1051,"x_min":42,"x_max":1010,"o":"m 42 0 l 42 22 l 147 68 l 147 710 l 42 756 l 42 778 l 496 778 l 496 756 l 404 710 l 404 436 l 650 436 l 650 710 l 557 756 l 557 778 l 1010 778 l 1010 756 l 907 710 l 907 68 l 1010 22 l 1010 0 l 557 0 l 557 22 l 650 68 l 650 364 l 404 364 l 404 68 l 496 22 l 496 0 l 42 0 m 526 -324 q 446 -292 478 -324 q 414 -211 414 -260 q 446 -131 414 -162 q 526 -99 478 -99 q 607 -131 575 -99 q 639 -211 639 -162 q 607 -292 639 -260 q 526 -324 575 -324 z "},"ḫ":{"ha":1051,"x_min":42,"x_max":1010,"o":"m 42 0 l 42 22 l 147 68 l 147 710 l 42 756 l 42 778 l 496 778 l 496 756 l 404 710 l 404 436 l 650 436 l 650 710 l 557 756 l 557 778 l 1010 778 l 1010 756 l 907 710 l 907 68 l 1010 22 l 1010 0 l 557 0 l 557 22 l 650 68 l 650 364 l 404 364 l 404 68 l 496 22 l 496 0 l 42 0 m 526 -333 q 369 -276 419 -333 q 293 -101 319 -219 l 332 -101 q 414 -195 365 -175 q 526 -215 463 -215 q 638 -196 590 -215 q 721 -101 686 -176 l 760 -101 q 676 -276 732 -219 q 526 -333 619 -333 z "},"ì":{"ha":536,"x_min":-7,"x_max":494,"o":"m 42 0 l 42 22 l 135 68 l 135 710 l 42 756 l 42 778 l 494 778 l 494 756 l 392 710 l 392 68 l 494 22 l 494 0 l 42 0 m 242 882 l 54 1026 q 6 1076 19 1053 q -7 1128 -7 1099 l 171 1128 l 282 882 l 242 882 z "},"í":{"ha":536,"x_min":42,"x_max":531,"o":"m 42 0 l 42 22 l 135 68 l 135 710 l 42 756 l 42 778 l 494 778 l 494 756 l 392 710 l 392 68 l 494 22 l 494 0 l 42 0 m 242 882 l 353 1128 l 531 1128 q 517 1076 531 1099 q 469 1026 503 1053 l 282 882 l 242 882 z "},"î":{"ha":536,"x_min":29,"x_max":496,"o":"m 42 0 l 42 22 l 135 68 l 135 710 l 42 756 l 42 778 l 494 778 l 494 756 l 392 710 l 392 68 l 494 22 l 494 0 l 42 0 m 29 882 l 222 1128 l 303 1128 l 496 882 l 456 882 l 263 989 l 69 882 l 29 882 z "},"ĩ":{"ha":536,"x_min":22,"x_max":503,"o":"m 42 0 l 42 22 l 135 68 l 135 710 l 42 756 l 42 778 l 494 778 l 494 756 l 392 710 l 392 68 l 494 22 l 494 0 l 42 0 m 22 904 q 75 1034 51 992 q 124 1090 99 1076 q 181 1104 149 1104 q 258 1083 221 1104 q 326 1042 294 1063 q 383 1021 358 1021 q 424 1035 407 1021 q 464 1104 442 1049 l 503 1104 q 450 974 474 1017 q 401 917 426 931 q 344 904 376 904 q 267 925 304 904 q 199 967 231 946 q 142 988 167 988 q 101 974 118 988 q 61 904 83 960 l 22 904 z "},"ï":{"ha":536,"x_min":29,"x_max":494,"o":"m 42 0 l 42 22 l 135 68 l 135 710 l 42 756 l 42 778 l 494 778 l 494 756 l 392 710 l 392 68 l 494 22 l 494 0 l 42 0 m 118 914 q 54 940 79 914 q 29 1003 29 967 q 54 1065 29 1039 q 118 1092 79 1092 q 182 1065 157 1092 q 207 1003 207 1039 q 182 940 207 967 q 118 914 157 914 m 406 914 q 341 940 365 914 q 317 1003 317 967 q 341 1065 317 1039 q 406 1092 365 1092 q 470 1065 446 1092 q 494 1003 494 1039 q 470 940 494 967 q 406 914 446 914 z "},"ī":{"ha":536,"x_min":42,"x_max":494,"o":"m 42 0 l 42 22 l 135 68 l 135 710 l 42 756 l 42 778 l 494 778 l 494 756 l 392 710 l 392 68 l 494 22 l 494 0 l 42 0 m 50 957 l 50 1049 l 475 1049 l 475 957 l 50 957 z "},"ĭ":{"ha":536,"x_min":29,"x_max":496,"o":"m 42 0 l 42 22 l 135 68 l 135 710 l 42 756 l 42 778 l 494 778 l 494 756 l 392 710 l 392 68 l 494 22 l 494 0 l 42 0 m 263 896 q 106 953 156 896 q 29 1128 56 1010 l 68 1128 q 150 1034 101 1054 q 263 1014 199 1014 q 374 1033 326 1014 q 457 1128 422 1053 l 496 1128 q 412 953 468 1010 q 263 896 356 896 z "},"į":{"ha":536,"x_min":42,"x_max":494,"o":"m 42 0 l 42 22 l 135 68 l 135 710 l 42 756 l 42 778 l 494 778 l 494 756 l 392 710 l 392 68 l 494 22 l 494 0 l 314 0 q 277 -87 290 -44 q 264 -174 264 -131 q 338 -254 264 -254 q 372 -248 354 -254 q 401 -229 390 -242 l 407 -229 l 407 -261 q 278 -333 372 -333 q 176 -299 214 -333 q 138 -206 138 -264 q 169 -106 138 -157 q 256 0 200 -56 l 42 0 z "},"ị":{"ha":536,"x_min":42,"x_max":494,"o":"m 42 0 l 42 22 l 135 68 l 135 710 l 42 756 l 42 778 l 494 778 l 494 756 l 392 710 l 392 68 l 494 22 l 494 0 l 42 0 m 263 -324 q 182 -292 214 -324 q 150 -211 150 -260 q 182 -131 150 -162 q 263 -99 214 -99 q 343 -131 311 -99 q 375 -211 375 -162 q 343 -292 375 -260 q 263 -324 311 -324 z "},"ȉ":{"ha":536,"x_min":-51,"x_max":494,"o":"m 42 0 l 42 22 l 135 68 l 135 710 l 42 756 l 42 778 l 494 778 l 494 756 l 392 710 l 392 68 l 494 22 l 494 0 l 42 0 m 136 882 l -28 1040 q -51 1085 -51 1064 q -44 1128 -51 1107 l 86 1128 l 176 882 l 136 882 m 347 882 l 210 1040 q 188 1086 189 1065 q 193 1128 186 1107 l 324 1128 l 388 882 l 347 882 z "},"ȋ":{"ha":536,"x_min":29,"x_max":496,"o":"m 42 0 l 42 22 l 135 68 l 135 710 l 42 756 l 42 778 l 494 778 l 494 756 l 392 710 l 392 68 l 494 22 l 494 0 l 42 0 m 29 896 q 113 1071 57 1014 q 263 1128 169 1128 q 419 1071 369 1128 q 496 896 469 1014 l 457 896 q 375 990 424 969 q 263 1010 326 1010 q 151 990 199 1010 q 68 896 103 971 l 29 896 z "},"ỉ":{"ha":536,"x_min":42,"x_max":494,"o":"m 42 0 l 42 22 l 135 68 l 135 710 l 42 756 l 42 778 l 494 778 l 494 756 l 392 710 l 392 68 l 494 22 l 494 0 l 42 0 m 178 903 l 178 904 q 240 930 221 918 q 260 963 260 942 q 238 997 260 983 q 164 1019 217 1010 l 186 1128 q 318 1085 281 1119 q 356 1015 356 1051 q 315 930 356 960 q 193 888 274 900 l 178 903 z "},"ḯ":{"ha":536,"x_min":29,"x_max":531,"o":"m 42 0 l 42 22 l 135 68 l 135 710 l 42 756 l 42 778 l 494 778 l 494 756 l 392 710 l 392 68 l 494 22 l 494 0 l 42 0 z "},"ĳ":{"ha":1119,"x_min":42,"x_max":1078,"o":"m 42 0 l 42 22 l 135 68 l 135 710 l 42 756 l 42 778 l 494 778 l 494 756 l 392 710 l 392 68 l 494 22 l 494 0 l 42 0 m 621 -204 q 578 -196 597 -204 q 560 -158 560 -187 q 565 -127 560 -156 q 575 -58 569 -99 l 588 -58 q 612 -66 600 -62 q 636 -69 624 -69 q 684 -57 667 -69 q 709 -7 701 -44 q 717 106 717 31 l 717 710 l 611 756 l 611 778 l 1078 778 l 1078 756 l 974 710 l 974 294 q 954 166 974 226 q 907 56 935 106 q 851 -32 879 6 q 806 -90 822 -69 q 719 -169 769 -135 q 621 -204 669 -204 z "},"ĵ":{"ha":583,"x_min":24,"x_max":542,"o":"m 85 -204 q 42 -196 61 -204 q 24 -158 24 -187 q 28 -127 24 -156 q 39 -58 33 -99 l 51 -58 q 76 -66 64 -62 q 100 -69 88 -69 q 148 -57 131 -69 q 173 -7 165 -44 q 181 106 181 31 l 181 710 l 75 756 l 75 778 l 542 778 l 542 756 l 438 710 l 438 294 q 418 166 438 226 q 371 56 399 106 q 315 -32 343 6 q 269 -90 286 -69 q 183 -169 233 -135 q 85 -204 133 -204 m 75 882 l 268 1128 l 349 1128 l 542 882 l 501 882 l 308 989 l 115 882 l 75 882 z "},"ķ":{"ha":1033,"x_min":44,"x_max":1028,"o":"m 44 0 l 44 22 l 150 68 l 150 710 l 44 756 l 44 778 l 513 778 l 513 756 l 407 710 l 407 68 l 513 22 l 513 0 l 44 0 m 672 0 l 407 390 l 725 714 l 636 756 l 636 778 l 932 778 l 932 756 l 849 719 l 626 506 l 938 57 l 1028 22 l 1028 0 l 672 0 m 526 -332 q 497 -331 513 -332 q 469 -326 481 -329 l 469 -297 q 493 -301 481 -300 q 513 -301 506 -301 q 574 -260 574 -301 q 548 -223 574 -233 q 468 -212 522 -212 l 468 -132 q 480 -111 468 -119 q 524 -103 492 -103 q 641 -133 600 -103 q 682 -217 682 -164 q 638 -302 682 -272 q 526 -332 594 -332 z "},"ĺ":{"ha":828,"x_min":42,"x_max":772,"o":"m 42 0 l 42 22 l 147 68 l 147 710 l 42 756 l 42 778 l 521 778 l 521 756 l 404 710 l 404 72 l 632 72 l 750 317 l 772 317 l 772 0 l 42 0 m 261 882 l 372 1128 l 550 1128 q 536 1076 550 1099 q 489 1026 522 1053 l 301 882 l 261 882 z "},"ľ":{"ha":828,"x_min":42,"x_max":772,"o":"m 42 0 l 42 22 l 147 68 l 147 710 l 42 756 l 42 778 l 521 778 l 521 756 l 404 710 l 404 72 l 632 72 l 750 317 l 772 317 l 772 0 l 42 0 m 561 518 l 581 778 l 739 778 q 743 736 743 758 q 724 688 743 714 l 601 518 l 561 518 z "},"ļ":{"ha":828,"x_min":42,"x_max":772,"o":"m 42 0 l 42 22 l 147 68 l 147 710 l 42 756 l 42 778 l 521 778 l 521 756 l 404 710 l 404 72 l 632 72 l 750 317 l 772 317 l 772 0 l 42 0 m 400 -332 q 370 -331 386 -332 q 343 -326 354 -329 l 343 -297 q 367 -301 354 -300 q 386 -301 379 -301 q 447 -260 447 -301 q 422 -223 447 -233 q 342 -212 396 -212 l 342 -132 q 353 -111 342 -119 q 397 -103 365 -103 q 515 -133 474 -103 q 556 -217 556 -164 q 512 -302 556 -272 q 400 -332 468 -332 z "},"ł":{"ha":828,"x_min":42,"x_max":772,"o":"m 42 0 l 42 22 l 147 68 l 147 217 l 42 154 l 42 240 l 147 303 l 147 710 l 42 756 l 42 778 l 521 778 l 521 756 l 404 710 l 404 444 l 569 544 l 569 460 l 404 360 l 404 72 l 632 72 l 750 317 l 772 317 l 772 0 l 42 0 z "},"ŀ":{"ha":828,"x_min":42,"x_max":788,"o":"m 42 0 l 42 22 l 147 68 l 147 710 l 42 756 l 42 778 l 521 778 l 521 756 l 404 710 l 404 72 l 632 72 l 750 317 l 772 317 l 772 0 l 42 0 m 675 325 q 594 357 626 325 q 563 438 563 389 q 594 518 563 486 q 675 550 626 550 q 756 518 724 550 q 788 438 788 486 q 756 357 788 389 q 675 325 724 325 z "},"ḷ":{"ha":828,"x_min":42,"x_max":772,"o":"m 42 0 l 42 22 l 147 68 l 147 710 l 42 756 l 42 778 l 521 778 l 521 756 l 404 710 l 404 72 l 632 72 l 750 317 l 772 317 l 772 0 l 42 0 m 450 -324 q 369 -292 401 -324 q 338 -211 338 -260 q 369 -131 338 -162 q 450 -99 401 -99 q 531 -131 499 -99 q 563 -211 563 -162 q 531 -292 563 -260 q 450 -324 499 -324 z "},"ḻ":{"ha":828,"x_min":42,"x_max":772,"o":"m 42 0 l 42 22 l 147 68 l 147 710 l 42 756 l 42 778 l 521 778 l 521 756 l 404 710 l 404 72 l 632 72 l 750 317 l 772 317 l 772 0 l 42 0 m 238 -253 l 238 -161 l 663 -161 l 663 -253 l 238 -253 z "},"ṃ":{"ha":1254,"x_min":42,"x_max":1213,"o":"m 42 0 l 42 22 l 147 69 l 171 711 l 67 756 l 67 778 l 446 778 l 643 322 l 833 778 l 1203 778 l 1203 756 l 1099 724 l 1118 69 l 1213 22 l 1213 0 l 761 0 l 761 22 l 860 68 l 849 610 l 589 -6 l 513 -6 l 246 611 l 232 68 l 339 22 l 339 0 l 42 0 m 551 -324 q 471 -292 503 -324 q 439 -211 439 -260 q 471 -131 439 -162 q 551 -99 503 -99 q 632 -131 600 -99 q 664 -211 664 -162 q 632 -292 664 -260 q 551 -324 600 -324 z "},"ń":{"ha":1022,"x_min":42,"x_max":981,"o":"m 42 0 l 42 24 l 147 69 l 147 710 l 42 756 l 42 778 l 331 778 l 788 300 l 788 710 l 642 756 l 642 778 l 981 778 l 981 756 l 878 710 l 878 -6 l 751 -6 l 238 526 l 238 69 l 383 24 l 383 0 l 42 0 m 492 882 l 603 1128 l 781 1128 q 767 1076 781 1099 q 719 1026 753 1053 l 532 882 l 492 882 z "},"ň":{"ha":1022,"x_min":42,"x_max":981,"o":"m 42 0 l 42 24 l 147 69 l 147 710 l 42 756 l 42 778 l 331 778 l 788 300 l 788 710 l 642 756 l 642 778 l 981 778 l 981 756 l 878 710 l 878 -6 l 751 -6 l 238 526 l 238 69 l 383 24 l 383 0 l 42 0 m 472 882 l 279 1128 l 319 1128 l 513 1021 l 706 1128 l 746 1128 l 553 882 l 472 882 z "},"ñ":{"ha":1022,"x_min":42,"x_max":981,"o":"m 42 0 l 42 24 l 147 69 l 147 710 l 42 756 l 42 778 l 331 778 l 788 300 l 788 710 l 642 756 l 642 778 l 981 778 l 981 756 l 878 710 l 878 -6 l 751 -6 l 238 526 l 238 69 l 383 24 l 383 0 l 42 0 m 272 904 q 325 1034 301 992 q 374 1090 349 1076 q 431 1104 399 1104 q 508 1083 471 1104 q 576 1042 544 1063 q 633 1021 608 1021 q 674 1035 657 1021 q 714 1104 692 1049 l 753 1104 q 700 974 724 1017 q 651 917 676 931 q 594 904 626 904 q 517 925 554 904 q 449 967 481 946 q 392 988 417 988 q 351 974 368 988 q 311 904 333 960 l 272 904 z "},"ņ":{"ha":1022,"x_min":42,"x_max":981,"o":"m 42 0 l 42 24 l 147 69 l 147 710 l 42 756 l 42 778 l 331 778 l 788 300 l 788 710 l 642 756 l 642 778 l 981 778 l 981 756 l 878 710 l 878 -6 l 751 -6 l 238 526 l 238 69 l 383 24 l 383 0 l 42 0 m 461 -332 q 431 -331 447 -332 q 404 -326 415 -329 l 404 -297 q 428 -301 415 -300 q 447 -301 440 -301 q 508 -260 508 -301 q 483 -223 508 -233 q 403 -212 457 -212 l 403 -132 q 415 -111 403 -119 q 458 -103 426 -103 q 576 -133 535 -103 q 617 -217 617 -164 q 573 -302 617 -272 q 461 -332 529 -332 z "},"ṅ":{"ha":1022,"x_min":42,"x_max":981,"o":"m 42 0 l 42 24 l 147 69 l 147 710 l 42 756 l 42 778 l 331 778 l 788 300 l 788 710 l 642 756 l 642 778 l 981 778 l 981 756 l 878 710 l 878 -6 l 751 -6 l 238 526 l 238 69 l 383 24 l 383 0 l 42 0 m 511 892 q 431 924 463 892 q 399 1004 399 956 q 431 1085 399 1053 q 511 1117 463 1117 q 592 1085 560 1117 q 624 1004 624 1053 q 592 924 624 956 q 511 892 560 892 z "},"ṇ":{"ha":1022,"x_min":42,"x_max":981,"o":"m 42 0 l 42 24 l 147 69 l 147 710 l 42 756 l 42 778 l 331 778 l 788 300 l 788 710 l 642 756 l 642 778 l 981 778 l 981 756 l 878 710 l 878 -6 l 751 -6 l 238 526 l 238 69 l 383 24 l 383 0 l 42 0 m 511 -324 q 431 -292 463 -324 q 399 -211 399 -260 q 431 -131 399 -162 q 511 -99 463 -99 q 592 -131 560 -99 q 624 -211 624 -162 q 592 -292 624 -260 q 511 -324 560 -324 z "},"ṉ":{"ha":1022,"x_min":42,"x_max":981,"o":"m 42 0 l 42 24 l 147 69 l 147 710 l 42 756 l 42 778 l 331 778 l 788 300 l 788 710 l 642 756 l 642 778 l 981 778 l 981 756 l 878 710 l 878 -6 l 751 -6 l 238 526 l 238 69 l 383 24 l 383 0 l 42 0 m 299 -253 l 299 -161 l 724 -161 l 724 -253 l 299 -253 z "},"ò":{"ha":964,"x_min":49,"x_max":915,"o":"m 482 -14 q 258 39 356 -14 q 104 183 160 92 q 49 390 49 275 q 104 597 49 506 q 258 742 160 689 q 482 794 356 794 q 706 742 608 794 q 860 597 804 689 q 915 390 915 506 q 860 183 915 275 q 706 39 804 92 q 482 -14 608 -14 m 499 60 q 578 99 544 60 q 629 204 611 138 q 647 356 647 271 q 624 544 647 461 q 561 674 601 626 q 469 722 521 722 q 390 683 425 722 q 337 578 356 644 q 318 426 318 511 q 342 239 318 322 q 406 108 365 156 q 499 60 447 60 m 461 882 l 274 1026 q 226 1076 239 1053 q 213 1128 213 1099 l 390 1128 l 501 882 l 461 882 z "},"ó":{"ha":964,"x_min":49,"x_max":915,"o":"m 482 -14 q 258 39 356 -14 q 104 183 160 92 q 49 390 49 275 q 104 597 49 506 q 258 742 160 689 q 482 794 356 794 q 706 742 608 794 q 860 597 804 689 q 915 390 915 506 q 860 183 915 275 q 706 39 804 92 q 482 -14 608 -14 m 499 60 q 578 99 544 60 q 629 204 611 138 q 647 356 647 271 q 624 544 647 461 q 561 674 601 626 q 469 722 521 722 q 390 683 425 722 q 337 578 356 644 q 318 426 318 511 q 342 239 318 322 q 406 108 365 156 q 499 60 447 60 m 461 882 l 572 1128 l 750 1128 q 736 1076 750 1099 q 689 1026 722 1053 l 501 882 l 461 882 z "},"ô":{"ha":964,"x_min":49,"x_max":915,"o":"m 482 -14 q 258 39 356 -14 q 104 183 160 92 q 49 390 49 275 q 104 597 49 506 q 258 742 160 689 q 482 794 356 794 q 706 742 608 794 q 860 597 804 689 q 915 390 915 506 q 860 183 915 275 q 706 39 804 92 q 482 -14 608 -14 m 499 60 q 578 99 544 60 q 629 204 611 138 q 647 356 647 271 q 624 544 647 461 q 561 674 601 626 q 469 722 521 722 q 390 683 425 722 q 337 578 356 644 q 318 426 318 511 q 342 239 318 322 q 406 108 365 156 q 499 60 447 60 m 249 882 l 442 1128 l 522 1128 l 715 882 l 675 882 l 482 989 l 289 882 l 249 882 z "},"õ":{"ha":964,"x_min":49,"x_max":915,"o":"m 482 -14 q 258 39 356 -14 q 104 183 160 92 q 49 390 49 275 q 104 597 49 506 q 258 742 160 689 q 482 794 356 794 q 706 742 608 794 q 860 597 804 689 q 915 390 915 506 q 860 183 915 275 q 706 39 804 92 q 482 -14 608 -14 m 499 60 q 578 99 544 60 q 629 204 611 138 q 647 356 647 271 q 624 544 647 461 q 561 674 601 626 q 469 722 521 722 q 390 683 425 722 q 337 578 356 644 q 318 426 318 511 q 342 239 318 322 q 406 108 365 156 q 499 60 447 60 m 242 904 q 294 1034 271 992 q 343 1090 318 1076 q 400 1104 368 1104 q 477 1083 440 1104 q 546 1042 514 1063 q 603 1021 578 1021 q 644 1035 626 1021 q 683 1104 661 1049 l 722 1104 q 669 974 693 1017 q 621 917 646 931 q 564 904 596 904 q 487 925 524 904 q 418 967 450 946 q 361 988 386 988 q 320 974 338 988 q 281 904 303 960 l 242 904 z "},"ö":{"ha":964,"x_min":49,"x_max":915,"o":"m 482 -14 q 258 39 356 -14 q 104 183 160 92 q 49 390 49 275 q 104 597 49 506 q 258 742 160 689 q 482 794 356 794 q 706 742 608 794 q 860 597 804 689 q 915 390 915 506 q 860 183 915 275 q 706 39 804 92 q 482 -14 608 -14 m 499 60 q 578 99 544 60 q 629 204 611 138 q 647 356 647 271 q 624 544 647 461 q 561 674 601 626 q 469 722 521 722 q 390 683 425 722 q 337 578 356 644 q 318 426 318 511 q 342 239 318 322 q 406 108 365 156 q 499 60 447 60 m 338 914 q 274 940 299 914 q 249 1003 249 967 q 274 1065 249 1039 q 338 1092 299 1092 q 401 1065 376 1092 q 426 1003 426 1039 q 401 940 426 967 q 338 914 376 914 m 625 914 q 560 940 585 914 q 536 1003 536 967 q 560 1065 536 1039 q 625 1092 585 1092 q 690 1065 665 1092 q 714 1003 714 1039 q 690 940 714 967 q 625 914 665 914 z "},"ō":{"ha":964,"x_min":49,"x_max":915,"o":"m 482 -14 q 258 39 356 -14 q 104 183 160 92 q 49 390 49 275 q 104 597 49 506 q 258 742 160 689 q 482 794 356 794 q 706 742 608 794 q 860 597 804 689 q 915 390 915 506 q 860 183 915 275 q 706 39 804 92 q 482 -14 608 -14 m 499 60 q 578 99 544 60 q 629 204 611 138 q 647 356 647 271 q 624 544 647 461 q 561 674 601 626 q 469 722 521 722 q 390 683 425 722 q 337 578 356 644 q 318 426 318 511 q 342 239 318 322 q 406 108 365 156 q 499 60 447 60 m 269 957 l 269 1049 l 694 1049 l 694 957 l 269 957 z "}}}
